<svg width="200" height="200" viewBox="0 0 200 200" fill="none" xmlns="http://www.w3.org/2000/svg">
<ellipse cx="100.417" cy="175" rx="83.3333" ry="8.33333" fill="#E6E6E6"/>
<path fill-rule="evenodd" clip-rule="evenodd" d="M58.3333 141.667C56.1232 141.667 54.0036 142.545 52.4408 144.107C50.878 145.67 50 147.79 50 150C50 152.21 50.878 154.33 52.4408 155.893C54.0036 157.455 56.1232 158.333 58.3333 158.333H158.333V141.667H58.3333Z" fill="#E6E6E6"/>
<path fill-rule="evenodd" clip-rule="evenodd" d="M33.3333 150V50C33.3333 43.3696 35.9672 37.0107 40.6556 32.3223C45.344 27.6339 51.7028 25 58.3333 25H158.333C162.936 25 166.667 28.731 166.667 33.3333V133.333C166.667 137.936 162.936 141.667 158.333 141.667H58.3333C56.1231 141.667 54.0035 142.545 52.4407 144.107C50.8779 145.67 49.9999 147.79 49.9999 150C49.9999 154.602 46.269 158.333 41.6666 158.333C37.0642 158.333 33.3333 154.602 33.3333 150Z" fill="#D2D2D2"/>
<path fill-rule="evenodd" clip-rule="evenodd" d="M40.6556 132.322C45.344 127.634 51.7028 125 58.3333 125H158.333C162.936 125 166.667 128.731 166.667 133.333C166.667 137.936 162.936 141.667 158.333 141.667H58.3333C56.1231 141.667 54.0035 142.545 52.4407 144.107C50.8779 145.67 49.9999 147.79 49.9999 150C49.9999 152.21 50.8779 154.33 52.4407 155.893C54.0035 157.455 56.1231 158.333 58.3333 158.333H158.333C162.936 158.333 166.667 162.064 166.667 166.667C166.667 171.269 162.936 175 158.333 175H58.3333C51.7028 175 45.344 172.366 40.6556 167.678C35.9672 162.989 33.3333 156.63 33.3333 150C33.3333 143.37 35.9672 137.011 40.6556 132.322Z" fill="#BDBDBD"/>
<path d="M83.3333 52.7785V97.2215C83.3331 97.7158 83.4648 98.2011 83.7149 98.6274C83.9649 99.0538 84.3241 99.4057 84.7555 99.6468C85.1869 99.888 85.6748 100.01 86.169 99.9994C86.6631 99.9891 87.1455 99.8471 87.5665 99.5881L123.676 77.3666C124.081 77.1181 124.415 76.7701 124.647 76.3558C124.878 75.9415 125 75.4747 125 75C125 74.5253 124.878 74.0585 124.647 73.6442C124.415 73.2299 124.081 72.8819 123.676 72.6334L87.5665 50.4119C87.1455 50.1529 86.6631 50.0109 86.169 50.0006C85.6748 49.9903 85.1869 50.112 84.7555 50.3532C84.3241 50.5943 83.9649 50.9462 83.7149 51.3726C83.4648 51.7989 83.3331 52.2842 83.3333 52.7785Z" fill="#BDBDBD"/>
</svg>
