<svg width="200" height="200" viewBox="0 0 200 200" fill="none" xmlns="http://www.w3.org/2000/svg">
<ellipse cx="100" cy="175" rx="83.3333" ry="8.33333" fill="#E6E6E6"/>
<path d="M164.286 57.9866C162.577 51.7565 158.056 46.8615 152.229 44.1344C146.451 41.4298 139.755 40.9909 133.574 42.6088L41.6667 66.6667H166.667L164.286 57.9866Z" fill="#A9A9A9"/>
<path fill-rule="evenodd" clip-rule="evenodd" d="M133.333 58.3333H158.333C164.584 58.3333 170.789 60.4504 175.542 64.5237C180.334 68.631 183.333 74.5024 183.333 80.9524V94.0476C183.333 98.65 179.602 102.381 175 102.381C172.41 102.381 170.137 103.274 168.638 104.559C167.179 105.81 166.667 107.206 166.667 108.333C166.667 109.461 167.179 110.857 168.638 112.108C170.137 113.393 172.41 114.286 175 114.286C179.602 114.286 183.333 118.017 183.333 122.619V135.714C183.333 142.164 180.334 148.036 175.542 152.143C170.789 156.216 164.584 158.333 158.333 158.333H133.333V58.3333Z" fill="#E6E6E6"/>
<path fill-rule="evenodd" clip-rule="evenodd" d="M24.4584 64.5237C29.2106 60.4504 35.4158 58.3333 41.6667 58.3333H133.333V158.333H41.6667C35.4158 158.333 29.2106 156.216 24.4584 152.143C19.6665 148.036 16.6667 142.164 16.6667 135.714V122.619C16.6667 118.017 20.3977 114.286 25.0001 114.286C27.5897 114.286 29.8629 113.393 31.3619 112.108C32.8213 110.857 33.3334 109.461 33.3334 108.333C33.3334 107.206 32.8213 105.81 31.3619 104.559C29.8629 103.274 27.5897 102.381 25.0001 102.381C20.3977 102.381 16.6667 98.65 16.6667 94.0476V80.9524C16.6667 74.5024 19.6665 68.631 24.4584 64.5237Z" fill="#D2D2D2"/>
<path d="M63.7135 77.2559C68.0251 75.1967 72.8691 74.5248 77.5785 75.3328C82.2878 76.1408 86.6309 78.3889 90.0095 81.7676C93.3882 85.1462 95.6363 89.4893 96.4443 94.1986C97.1162 98.1148 96.7648 102.124 95.4432 105.843L113.643 124.043C115.579 125.979 116.667 128.605 116.667 131.343C116.667 134.081 115.579 136.707 113.643 138.643C111.707 140.579 109.081 141.667 106.343 141.667C103.605 141.667 100.979 140.579 99.0426 138.643L80.8429 120.443C77.1241 121.765 73.1148 122.116 69.1986 121.444C64.4893 120.636 60.1462 118.388 56.7676 115.01C53.3889 111.631 51.1408 107.288 50.3328 102.578C49.5248 97.8691 50.1967 93.0251 52.2559 88.7135C52.7222 87.737 53.6336 87.0477 54.7001 86.8647C55.7666 86.6817 56.8556 87.0278 57.6208 87.793L68.1784 98.3506H73.3506V93.1784L62.793 82.6208C62.0278 81.8556 61.6817 80.7666 61.8647 79.7001C62.0477 78.6336 62.737 77.7222 63.7135 77.2559Z" fill="#A9A9A9"/>
</svg>
