<svg width="20" height="20" viewBox="0 0 20 20" fill="none" xmlns="http://www.w3.org/2000/svg">
<path fill-rule="evenodd" clip-rule="evenodd" d="M6.61271 3.13729C6.5248 3.04939 6.40557 3 6.28125 3C6.15693 3 6.0377 3.04939 5.94979 3.13729C5.86189 3.2252 5.8125 3.34443 5.8125 3.46875V3.9375H4.875C4.37772 3.9375 3.90081 4.13504 3.54917 4.48667C3.19754 4.83831 3 5.31522 3 5.8125V16.125C3 16.6223 3.19754 17.0992 3.54917 17.4508C3.90081 17.8025 4.37772 18 4.875 18H16.125C16.6223 18 17.0992 17.8025 17.4508 17.4508C17.8025 17.0992 18 16.6223 18 16.125V5.8125C18 5.31522 17.8025 4.83831 17.4508 4.48667C17.0992 4.13504 16.6223 3.9375 16.125 3.9375H15.1875V3.46875C15.1875 3.34443 15.1381 3.2252 15.0502 3.13729C14.9623 3.04939 14.8431 3 14.7188 3C14.5944 3 14.4752 3.04939 14.3873 3.13729C14.2994 3.2252 14.25 3.34443 14.25 3.46875V3.9375H6.75V3.46875C6.75 3.34443 6.70061 3.2252 6.61271 3.13729ZM5.38594 5.8125H15.6131C15.8963 5.8125 16.125 6.0225 16.125 6.28125V7.21875C16.125 7.4775 15.8953 7.6875 15.6141 7.6875H5.38594C5.10375 7.6875 4.875 7.4775 4.875 7.21875V6.28125C4.875 6.0225 5.10469 5.8125 5.38594 5.8125ZM6.60209 14.265V15H10.3051V14.076H8.19554L9.32509 13.012C9.55376 12.7973 9.72643 12.6037 9.84309 12.431C9.96443 12.2583 10.0438 12.095 10.0811 11.941C10.1231 11.7823 10.1441 11.6237 10.1441 11.465C10.1441 11.1663 10.0671 10.9097 9.91309 10.695C9.76376 10.4803 9.55143 10.3147 9.27609 10.198C9.00543 10.0767 8.68809 10.016 8.32409 10.016C7.88543 10.016 7.49809 10.0977 7.16209 10.261C6.82609 10.4243 6.56476 10.646 6.37809 10.926L7.20409 11.458C7.32543 11.29 7.47243 11.1663 7.64509 11.087C7.82243 11.0077 8.01376 10.968 8.21909 10.968C8.47576 10.968 8.66943 11.0217 8.80009 11.129C8.93543 11.2317 9.00309 11.381 9.00309 11.577C9.00309 11.6517 8.98909 11.7333 8.96109 11.822C8.93776 11.9107 8.89109 12.0087 8.82109 12.116C8.75109 12.2233 8.64143 12.3447 8.49209 12.48L6.60209 14.265ZM10.731 14.265V15H14.434V14.076H12.3244L13.454 13.012C13.6827 12.7973 13.8553 12.6037 13.972 12.431C14.0933 12.2583 14.1727 12.095 14.21 11.941C14.252 11.7823 14.273 11.6237 14.273 11.465C14.273 11.1663 14.196 10.9097 14.042 10.695C13.8927 10.4803 13.6803 10.3147 13.405 10.198C13.1343 10.0767 12.817 10.016 12.453 10.016C12.0143 10.016 11.627 10.0977 11.291 10.261C10.955 10.4243 10.6937 10.646 10.507 10.926L11.333 11.458C11.4543 11.29 11.6013 11.1663 11.774 11.087C11.9513 11.0077 12.1427 10.968 12.348 10.968C12.6047 10.968 12.7983 11.0217 12.929 11.129C13.0643 11.2317 13.132 11.381 13.132 11.577C13.132 11.6517 13.118 11.7333 13.09 11.822C13.0667 11.9107 13.02 12.0087 12.95 12.116C12.88 12.2233 12.7703 12.3447 12.621 12.48L10.731 14.265Z" fill="#F28F27"/>
</svg>
