<svg width="20" height="20" viewBox="0 0 20 20" fill="none" xmlns="http://www.w3.org/2000/svg">
<path fill-rule="evenodd" clip-rule="evenodd" d="M12.2608 2.14054C12.1008 2.30054 11.9028 2.38054 11.6667 2.38054H8.33333C8.09778 2.38109 7.9 2.30137 7.74 2.14137C7.58 1.98137 7.5 1.78331 7.5 1.5472C7.49944 1.31165 7.57916 1.11387 7.73916 0.95387C7.89916 0.79387 8.09722 0.71387 8.33333 0.71387H11.6667C11.9022 0.713315 12.1 0.793037 12.26 0.953037C12.42 1.11304 12.5 1.31109 12.5 1.5472C12.5006 1.78276 12.4208 1.98054 12.2608 2.14054ZM12.9067 17.6197C11.9967 18.0158 11.0278 18.2139 10 18.2139C8.97278 18.2144 8.00416 18.0166 7.09416 17.6205C6.18416 17.2244 5.38889 16.6861 4.70833 16.0055C4.02833 15.3255 3.49027 14.5305 3.09416 13.6205C2.69805 12.7105 2.5 11.7416 2.5 10.7139C2.5 9.85276 2.63889 9.02637 2.91666 8.2347C3.19444 7.44304 3.59722 6.69998 4.125 6.00554L3.54166 5.4222C3.38889 5.26943 3.3125 5.07498 3.3125 4.83887C3.3125 4.60276 3.38889 4.40831 3.54166 4.25554C3.69444 4.10276 3.88889 4.02637 4.125 4.02637C4.36111 4.02637 4.55555 4.10276 4.70833 4.25554L5.29167 4.83887C5.98611 4.31109 6.72916 3.90831 7.52083 3.63054C8.3125 3.35276 9.13889 3.21387 10 3.21387C11.0272 3.21331 11.9958 3.41109 12.9058 3.8072C13.8158 4.20331 14.6111 4.74165 15.2917 5.4222C15.9717 6.1022 16.5097 6.8972 16.9058 7.8072C17.3019 8.7172 17.5 9.68609 17.5 10.7139C17.5006 11.7411 17.3028 12.7097 16.9067 13.6197C16.5106 14.5297 15.9722 15.325 15.2917 16.0055C14.6117 16.6855 13.8167 17.2236 12.9067 17.6197ZM8.06051 6.2V9H8.70851V6.2H8.06051ZM9.37301 6.2V9H10.013V7.30052L11.409 9H11.941V6.2H11.301V7.89871L9.90901 6.2H9.37301ZM6.58651 13.96C6.79185 14.0187 7.00651 14.048 7.23051 14.048C7.49718 14.048 7.71718 14.008 7.89051 13.928C8.06651 13.848 8.19851 13.7427 8.28652 13.612C8.37451 13.4813 8.41852 13.3373 8.41852 13.18C8.41852 13.0333 8.38785 12.912 8.32651 12.816C8.26785 12.72 8.19051 12.6427 8.09451 12.584C7.99852 12.5253 7.89185 12.4787 7.77452 12.444C7.65985 12.4093 7.54385 12.3787 7.42651 12.352C7.31185 12.3253 7.20651 12.2987 7.11051 12.272C7.01451 12.2453 6.93718 12.2107 6.87851 12.168C6.81985 12.1227 6.79051 12.064 6.79051 11.992C6.79051 11.9307 6.80785 11.8773 6.84251 11.832C6.87718 11.784 6.93451 11.7453 7.01451 11.716C7.09451 11.6867 7.19718 11.672 7.32251 11.672C7.44785 11.672 7.57585 11.6907 7.70651 11.728C7.83718 11.7627 7.96785 11.8173 8.09851 11.892L8.29851 11.4C8.16785 11.3173 8.01718 11.256 7.84651 11.216C7.67585 11.1733 7.50251 11.152 7.32651 11.152C7.06251 11.152 6.84251 11.192 6.66651 11.272C6.49318 11.3493 6.36251 11.4547 6.27451 11.588C6.18918 11.7187 6.14651 11.864 6.14651 12.024C6.14651 12.1733 6.17585 12.296 6.23451 12.392C6.29585 12.488 6.37451 12.5653 6.47051 12.624C6.56651 12.6827 6.67185 12.7307 6.78651 12.768C6.90385 12.8053 7.01985 12.8373 7.13451 12.864C7.25185 12.888 7.35851 12.9147 7.45451 12.944C7.55052 12.9707 7.62785 13.0067 7.68651 13.052C7.74518 13.0947 7.77452 13.1533 7.77452 13.228C7.77452 13.2867 7.75585 13.3387 7.71851 13.384C7.68118 13.4293 7.62251 13.4653 7.54251 13.492C7.46518 13.516 7.36251 13.528 7.23452 13.528C7.06651 13.528 6.89985 13.5013 6.73452 13.448C6.57185 13.392 6.43051 13.3213 6.31051 13.236L6.09052 13.724C6.21585 13.82 6.38118 13.8987 6.58651 13.96ZM8.8613 11.2V14H10.9133V13.472H9.5093V11.2H8.8613ZM12.171 11.2L10.923 14H11.587L11.8365 13.4H13.1344L13.383 14H14.063L12.811 11.2H12.171ZM12.9306 12.908L12.4867 11.8364L12.0411 12.908H12.9306Z" fill="#63C938"/>
</svg>
