<svg width="20" height="20" viewBox="0 0 20 20" fill="none" xmlns="http://www.w3.org/2000/svg">
<path fill-rule="evenodd" clip-rule="evenodd" d="M7.73917 2.14054C7.89917 2.30054 8.09722 2.38054 8.33334 2.38054H11.6667C11.9022 2.38109 12.1 2.30137 12.26 2.14137C12.42 1.98137 12.5 1.78331 12.5 1.5472C12.5006 1.31165 12.4208 1.11387 12.2608 0.95387C12.1008 0.79387 11.9028 0.71387 11.6667 0.71387H8.33334C8.09778 0.713315 7.9 0.793037 7.74 0.953037C7.58 1.11304 7.5 1.31109 7.5 1.5472C7.49945 1.78276 7.57917 1.98054 7.73917 2.14054ZM7.09334 17.6197C8.00334 18.0158 8.97222 18.2139 10 18.2139C11.0272 18.2144 11.9958 18.0166 12.9058 17.6205C13.8158 17.2244 14.6111 16.6861 15.2917 16.0055C15.9717 15.3255 16.5097 14.5305 16.9058 13.6205C17.3019 12.7105 17.5 11.7416 17.5 10.7139C17.5 9.85276 17.3611 9.02637 17.0833 8.2347C16.8056 7.44304 16.4028 6.69998 15.875 6.00554L16.4583 5.4222C16.6111 5.26943 16.6875 5.07498 16.6875 4.83887C16.6875 4.60276 16.6111 4.40831 16.4583 4.25554C16.3056 4.10276 16.1111 4.02637 15.875 4.02637C15.6389 4.02637 15.4444 4.10276 15.2917 4.25554L14.7083 4.83887C14.0139 4.31109 13.2708 3.90831 12.4792 3.63054C11.6875 3.35276 10.8611 3.21387 10 3.21387C8.97278 3.21331 8.00417 3.41109 7.09417 3.8072C6.18417 4.20331 5.38889 4.74165 4.70834 5.4222C4.02834 6.1022 3.49028 6.8972 3.09417 7.8072C2.69806 8.7172 2.5 9.68609 2.5 10.7139C2.49945 11.7411 2.69722 12.7097 3.09334 13.6197C3.48945 14.5297 4.02778 15.325 4.70834 16.0055C5.38834 16.6855 6.18334 17.2236 7.09334 17.6197ZM6.59944 9.94C6.78877 10.012 6.99411 10.048 7.21544 10.048C7.4341 10.048 7.63544 10.012 7.81944 9.94C8.00611 9.868 8.16744 9.768 8.30344 9.64C8.44211 9.50933 8.55011 9.356 8.62744 9.18C8.70477 9.00133 8.74344 8.808 8.74344 8.6C8.74344 8.38933 8.70477 8.19733 8.62744 8.024C8.55011 7.848 8.44211 7.69467 8.30344 7.564C8.16744 7.43333 8.00611 7.332 7.81944 7.26C7.63544 7.188 7.43277 7.152 7.21144 7.152C6.99277 7.152 6.79011 7.188 6.60344 7.26C6.41677 7.332 6.25411 7.43333 6.11544 7.564C5.97677 7.69467 5.86877 7.848 5.79144 8.024C5.71677 8.2 5.67944 8.392 5.67944 8.6C5.67944 8.808 5.71677 9 5.79144 9.176C5.86877 9.352 5.97544 9.50533 6.11144 9.636C6.25011 9.76667 6.41277 9.868 6.59944 9.94ZM7.55544 9.432C7.45144 9.47467 7.33677 9.496 7.21144 9.496C7.08611 9.496 6.97011 9.47467 6.86344 9.432C6.75677 9.38933 6.66344 9.328 6.58344 9.248C6.50611 9.168 6.44477 9.07333 6.39944 8.964C6.35677 8.852 6.33544 8.73067 6.33544 8.6C6.33544 8.46667 6.35677 8.34533 6.39944 8.236C6.44477 8.12667 6.50744 8.032 6.58744 7.952C6.66744 7.872 6.75944 7.81067 6.86344 7.768C6.97011 7.72533 7.08611 7.704 7.21144 7.704C7.33677 7.704 7.45277 7.72533 7.55944 7.768C7.66611 7.81067 7.75811 7.872 7.83544 7.952C7.91544 8.032 7.97677 8.12667 8.01944 8.236C8.06477 8.34533 8.08744 8.46667 8.08744 8.6C8.08744 8.73333 8.06477 8.85467 8.01944 8.964C7.97677 9.07333 7.91544 9.168 7.83544 9.248C7.75544 9.328 7.66211 9.38933 7.55544 9.432ZM9.54244 9.716C9.76644 9.93733 10.0771 10.048 10.4744 10.048C10.8718 10.048 11.1824 9.93733 11.4064 9.716C11.6304 9.49467 11.7424 9.17867 11.7424 8.768V7.2H11.1024V8.744C11.1024 9.01067 11.0478 9.20267 10.9384 9.32C10.8291 9.43733 10.6758 9.496 10.4784 9.496C10.2811 9.496 10.1278 9.43733 10.0184 9.32C9.90911 9.20267 9.85444 9.01067 9.85444 8.744V7.2H9.20644V8.768C9.20644 9.17867 9.31844 9.49467 9.54244 9.716ZM12.9159 7.728V10H13.5639V7.728H14.4599V7.2H12.0199V7.728H12.9159ZM6.58652 14.96C6.79185 15.0187 7.00652 15.048 7.23052 15.048C7.49718 15.048 7.71718 15.008 7.89052 14.928C8.06652 14.848 8.19852 14.7427 8.28652 14.612C8.37452 14.4813 8.41852 14.3373 8.41852 14.18C8.41852 14.0333 8.38785 13.912 8.32652 13.816C8.26785 13.72 8.19052 13.6427 8.09452 13.584C7.99852 13.5253 7.89185 13.4787 7.77452 13.444C7.65985 13.4093 7.54385 13.3787 7.42652 13.352C7.31185 13.3253 7.20652 13.2987 7.11052 13.272C7.01452 13.2453 6.93718 13.2107 6.87852 13.168C6.81985 13.1227 6.79052 13.064 6.79052 12.992C6.79052 12.9307 6.80785 12.8773 6.84252 12.832C6.87718 12.784 6.93452 12.7453 7.01452 12.716C7.09452 12.6867 7.19718 12.672 7.32252 12.672C7.44785 12.672 7.57585 12.6907 7.70652 12.728C7.83718 12.7627 7.96785 12.8173 8.09852 12.892L8.29852 12.4C8.16785 12.3173 8.01718 12.256 7.84652 12.216C7.67585 12.1733 7.50252 12.152 7.32652 12.152C7.06252 12.152 6.84252 12.192 6.66652 12.272C6.49318 12.3493 6.36252 12.4547 6.27452 12.588C6.18918 12.7187 6.14652 12.864 6.14652 13.024C6.14652 13.1733 6.17585 13.296 6.23452 13.392C6.29585 13.488 6.37452 13.5653 6.47052 13.624C6.56652 13.6827 6.67185 13.7307 6.78652 13.768C6.90385 13.8053 7.01985 13.8373 7.13452 13.864C7.25185 13.888 7.35852 13.9147 7.45452 13.944C7.55052 13.9707 7.62785 14.0067 7.68652 14.052C7.74518 14.0947 7.77452 14.1533 7.77452 14.228C7.77452 14.2867 7.75585 14.3387 7.71852 14.384C7.68118 14.4293 7.62252 14.4653 7.54252 14.492C7.46518 14.516 7.36252 14.528 7.23452 14.528C7.06652 14.528 6.89985 14.5013 6.73452 14.448C6.57185 14.392 6.43052 14.3213 6.31052 14.236L6.09052 14.724C6.21585 14.82 6.38118 14.8987 6.58652 14.96ZM8.8613 12.2V15H10.9133V14.472H9.5093V12.2H8.8613ZM12.171 12.2L10.923 15H11.587L11.8365 14.4H13.1344L13.383 15H14.063L12.811 12.2H12.171ZM12.9306 13.908L12.4867 12.8364L12.0411 13.908H12.9306Z" fill="#F82C17"/>
</svg>
