<svg width="12" height="12" viewBox="0 0 12 12" fill="none" xmlns="http://www.w3.org/2000/svg">
<path fill-rule="evenodd" clip-rule="evenodd" d="M1.732 1.732C1 2.465 1 3.643 1 6C1 8.357 1 9.5355 1.732 10.2675C2.465 11 3.643 11 6 11C8.357 11 9.5355 11 10.2675 10.2675C11 9.536 11 8.357 11 6C11 3.643 11 2.4645 10.2675 1.732C9.536 1 8.357 1 6 1C3.643 1 2.4645 1 1.732 1.732ZM6.375 4C6.375 3.90054 6.33549 3.80516 6.26516 3.73483C6.19484 3.66451 6.09946 3.625 6 3.625C5.90054 3.625 5.80516 3.66451 5.73484 3.73483C5.66451 3.80516 5.625 3.90054 5.625 4V6C5.625 6.0995 5.6645 6.195 5.735 6.265L6.985 7.515C7.01933 7.55184 7.06073 7.58139 7.10673 7.60189C7.15273 7.62239 7.20239 7.63341 7.25274 7.6343C7.30309 7.63518 7.3531 7.62592 7.3998 7.60706C7.44649 7.5882 7.48891 7.56013 7.52452 7.52452C7.56013 7.48891 7.5882 7.44649 7.60706 7.3998C7.62592 7.3531 7.63518 7.30309 7.6343 7.25274C7.63341 7.20239 7.62239 7.15273 7.60189 7.10673C7.58139 7.06073 7.55184 7.01933 7.515 6.985L6.375 5.845V4Z" fill="#717171"/>
</svg>
