<svg width="20" height="20" viewBox="0 0 20 20" fill="none" xmlns="http://www.w3.org/2000/svg">
<g clip-path="url(#clip0_366_7067)">
<path d="M1.66577 13.3334C1.66577 10.9767 1.66577 9.79754 2.39827 9.06587C3.12994 8.33337 4.3091 8.33337 6.66577 8.33337H13.3324C15.6891 8.33337 16.8683 8.33337 17.5999 9.06587C18.3324 9.79754 18.3324 10.9767 18.3324 13.3334C18.3324 15.69 18.3324 16.8692 17.5999 17.6009C16.8683 18.3334 15.6891 18.3334 13.3324 18.3334H6.66577C4.3091 18.3334 3.12994 18.3334 2.39827 17.6009C1.66577 16.8692 1.66577 15.69 1.66577 13.3334Z" stroke="white" stroke-width="1.5"/>
<path d="M4.99902 8.33335V6.66669C4.99902 5.3406 5.52581 4.06883 6.46349 3.13115C7.40117 2.19347 8.67294 1.66669 9.99902 1.66669C11.3251 1.66669 12.5969 2.19347 13.5346 3.13115C14.4722 4.06883 14.999 5.3406 14.999 6.66669V8.33335" stroke="white" stroke-width="1.5" stroke-linecap="round"/>
<path d="M6.66577 13.3334H6.67327M9.9916 13.3334H9.9991M13.3249 13.3334H13.3324" stroke="white" stroke-width="2" stroke-linecap="round" stroke-linejoin="round"/>
</g>
<defs>
<clipPath id="clip0_366_7067">
<rect width="20" height="20" fill="white" transform="translate(-0.000976562)"/>
</clipPath>
</defs>
</svg>
