<svg width="60" height="60" viewBox="0 0 60 60" fill="none" xmlns="http://www.w3.org/2000/svg">
<path fill-rule="evenodd" clip-rule="evenodd" d="M31.1719 39.375C32.9932 39.375 34.0694 40.2399 33.6439 41.7215C33.4957 42.2374 33.1053 42.8909 32.8516 43.3984C32.5448 44.0119 32.282 44.537 31.9922 45.1172C31.7143 45.6734 31.5475 46.263 30.9832 46.5693C29.5545 47.3447 28.1475 46.27 28.1494 45.0001C28.1506 44.269 28.6775 43.7713 28.8281 43.125C27.0068 43.125 25.9306 42.26 26.3561 40.7785L28.0078 37.3828C28.4471 36.5035 29.193 34.9595 30.9832 35.9307C32.7245 36.8753 31.2511 39.0348 31.1719 39.375ZM15 29.7656V47.3437C15 51.9118 19.3382 56.25 23.9062 56.25H36.0937C40.6618 56.25 45 51.9118 45 47.3437V29.6485C45 28.1002 43.3684 26.25 41.4844 26.25H18.5156C16.7072 26.25 15 27.9572 15 29.7656Z" fill="#F28F27"/>
<path fill-rule="evenodd" clip-rule="evenodd" d="M22.5 5.39062V11.25C20.3419 11.25 18.75 13.0513 18.75 14.6485V22.5H41.25V14.6485C41.25 13.0513 39.6581 11.25 37.5 11.25V5.39062C37.5 4.54074 36.6871 3.75 35.3906 3.75C34.6588 3.75 33.75 4.65884 33.75 5.39062V11.25H26.25V5.39062C26.25 4.54074 25.4371 3.75 24.1406 3.75C23.4088 3.75 22.5 4.65884 22.5 5.39062Z" fill="#F28F27"/>
</svg>
