<svg width="60" height="60" viewBox="0 0 60 60" fill="none" xmlns="http://www.w3.org/2000/svg">
<path d="M52.75 8H39.625C37.6359 8 35.7282 8.79018 34.3217 10.1967C32.9152 11.6032 32.125 13.5109 32.125 15.5V36.125C32.125 36.6223 31.9275 37.0992 31.5758 37.4508C31.2242 37.8025 30.7473 38 30.25 38C29.7527 38 29.2758 37.8025 28.9242 37.4508C28.5725 37.0992 28.375 36.6223 28.375 36.125V15.5C28.375 13.5109 27.5848 11.6032 26.1783 10.1967C24.7718 8.79018 22.8641 8 20.875 8H7.75C6.75544 8 5.80161 8.39509 5.09835 9.09835C4.39509 9.80161 4 10.7554 4 11.75V41.75C4 42.7446 4.39509 43.6984 5.09835 44.4017C5.80161 45.1049 6.75544 45.5 7.75 45.5H22.75C24.2418 45.5 25.6726 46.0926 26.7275 47.1475C27.7824 48.2024 28.375 49.6332 28.375 51.125C28.375 51.6223 28.5725 52.0992 28.9242 52.4508C29.2758 52.8025 29.7527 53 30.25 53C30.7473 53 31.2242 52.8025 31.5758 52.4508C31.9275 52.0992 32.125 51.6223 32.125 51.125C32.125 49.6332 32.7176 48.2024 33.7725 47.1475C34.8274 46.0926 36.2582 45.5 37.75 45.5H52.75C53.7446 45.5 54.6984 45.1049 55.4016 44.4017C56.1049 43.6984 56.5 42.7446 56.5 41.75V11.75C56.5 10.7554 56.1049 9.80161 55.4016 9.09835C54.6984 8.39509 53.7446 8 52.75 8ZM49 36.125H39.625C39.1277 36.125 38.6508 35.9275 38.2992 35.5758C37.9475 35.2242 37.75 34.7473 37.75 34.25C37.75 33.7527 37.9475 33.2758 38.2992 32.9242C38.6508 32.5725 39.1277 32.375 39.625 32.375H49C49.4973 32.375 49.9742 32.5725 50.3258 32.9242C50.6775 33.2758 50.875 33.7527 50.875 34.25C50.875 34.7473 50.6775 35.2242 50.3258 35.5758C49.9742 35.9275 49.4973 36.125 49 36.125ZM49 28.625H39.625C39.1277 28.625 38.6508 28.4275 38.2992 28.0758C37.9475 27.7242 37.75 27.2473 37.75 26.75C37.75 26.2527 37.9475 25.7758 38.2992 25.4242C38.6508 25.0725 39.1277 24.875 39.625 24.875H49C49.4973 24.875 49.9742 25.0725 50.3258 25.4242C50.6775 25.7758 50.875 26.2527 50.875 26.75C50.875 27.2473 50.6775 27.7242 50.3258 28.0758C49.9742 28.4275 49.4973 28.625 49 28.625ZM49 21.125H39.625C39.1277 21.125 38.6508 20.9275 38.2992 20.5758C37.9475 20.2242 37.75 19.7473 37.75 19.25C37.75 18.7527 37.9475 18.2758 38.2992 17.9242C38.6508 17.5725 39.1277 17.375 39.625 17.375H49C49.4973 17.375 49.9742 17.5725 50.3258 17.9242C50.6775 18.2758 50.875 18.7527 50.875 19.25C50.875 19.7473 50.6775 20.2242 50.3258 20.5758C49.9742 20.9275 49.4973 21.125 49 21.125Z" fill="#F28F27"/>
</svg>
