<svg width="60" height="60" viewBox="0 0 60 60" fill="none" xmlns="http://www.w3.org/2000/svg">
<path d="M13 52.5C11.3431 52.5 10 51.1569 10 49.5V47.5C8.61929 47.5 7.5 46.3807 7.5 45V38C7.5 36.3431 8.84315 35 10.5 35H12.5V17.5C12.5 14.75 13.4792 12.3958 15.4375 10.4375C17.3958 8.47917 19.75 7.5 22.5 7.5C25.25 7.5 27.6042 8.47917 29.5625 10.4375C31.5208 12.3958 32.5 14.75 32.5 17.5V42.5C32.5 43.875 32.99 45.0525 33.97 46.0325C34.95 47.0125 36.1267 47.5017 37.5 47.5C38.875 47.5 40.0525 47.01 41.0325 46.03C42.0125 45.05 42.5017 43.8733 42.5 42.5V25H40.5C38.8431 25 37.5 23.6569 37.5 22V15C37.5 13.6193 38.6193 12.5 40 12.5V10.5C40 8.84315 41.3431 7.5 43 7.5H47C48.6569 7.5 50 8.84315 50 10.5V12.5C51.3807 12.5 52.5 13.6193 52.5 15V22C52.5 23.6569 51.1569 25 49.5 25H47.5V42.5C47.5 45.25 46.5208 47.6042 44.5625 49.5625C42.6042 51.5208 40.25 52.5 37.5 52.5C34.75 52.5 32.3958 51.5208 30.4375 49.5625C28.4792 47.6042 27.5 45.25 27.5 42.5V17.5C27.5 16.125 27.01 14.9475 26.03 13.9675C25.05 12.9875 23.8733 12.4983 22.5 12.5C21.125 12.5 19.9475 12.99 18.9675 13.97C17.9875 14.95 17.4983 16.1267 17.5 17.5V35H19.5C21.1569 35 22.5 36.3431 22.5 38V45C22.5 46.3807 21.3807 47.5 20 47.5V49.5C20 51.1569 18.6569 52.5 17 52.5H13Z" fill="#F28F27"/>
</svg>
