<svg width="60" height="60" viewBox="0 0 60 60" fill="none" xmlns="http://www.w3.org/2000/svg">
<g clip-path="url(#clip0_396_7783)">
<path fill-rule="evenodd" clip-rule="evenodd" d="M26.875 6.41742C27.8251 5.86887 28.9029 5.58008 30 5.58008C31.0971 5.58008 32.1749 5.86887 33.125 6.41742L48.86 15.5024C49.8101 16.051 50.5991 16.8399 51.1476 17.79C51.6962 18.7401 51.985 19.8178 51.985 20.9149V39.0849C51.985 40.182 51.6962 41.2597 51.1476 42.2098C50.5991 43.1599 49.8101 43.9489 48.86 44.4974L33.125 53.5824C32.1749 54.131 31.0971 54.4198 30 54.4198C28.9029 54.4198 27.8251 54.131 26.875 53.5824L11.14 44.4974C10.1899 43.9489 9.40093 43.1599 8.85238 42.2098C8.30383 41.2597 8.01503 40.182 8.015 39.0849V20.9149C8.01503 19.8178 8.30383 18.7401 8.85238 17.79C9.40093 16.8399 10.1899 16.051 11.14 15.5024L26.875 6.41742ZM20.0475 21.3674L34.5425 13.0099L39.545 15.8974L25.05 24.2549L20.0475 21.3674Z" fill="#F28F27"/>
</g>
<defs>
<clipPath id="clip0_396_7783">
<rect width="60" height="60" fill="white"/>
</clipPath>
</defs>
</svg>
