<svg width="60" height="60" viewBox="0 0 60 60" fill="none" xmlns="http://www.w3.org/2000/svg">
<path fill-rule="evenodd" clip-rule="evenodd" d="M5 15.7566V26.1859V49.7117L5.78125 50.0313C6.1594 50.1508 7.07063 50.1242 7.34374 50.0313C8.03863 49.7046 8.08297 49.5525 8.12499 46.421V43.1038L13.0252 45.333L19.0546 47.5622L19.0756 51.1846V54.5345C19.1619 54.8051 19.2838 54.8765 19.6008 54.953C20.0209 55.0724 21.4062 54.9265 21.4062 54.9265C21.4062 54.9265 22.0044 54.7757 22.1874 54.5345V51.032V46.9147L36.8066 41.83C43.5037 39.3686 48.8001 37.2478 50.9004 36.4068C51.4947 36.1688 51.8331 36.0333 51.8748 36.0216C51.8748 36.0216 51.8328 36.3395 51.8748 39.524C51.8748 42.9446 51.8748 43.0264 52.6561 43.0264H54.2186C54.865 43.0119 54.9858 42.8797 54.9998 42.5262V19.2198V11.2275L38.9635 4.99994L21.9817 10.3783L5 15.7566ZM40.9375 18.5095L51.875 15.0071V22.0119L40.9375 18.5095ZM8.12504 24.0132L19.0625 27.5156L8.12504 31.0181V24.0132ZM19.0625 38.5234L8.12504 35.021V42.0259L19.0625 38.5234ZM51.875 26.0146L40.9375 29.5171L51.875 33.0195V26.0146Z" fill="#F28F27"/>
</svg>
