<svg width="60" height="60" viewBox="0 0 60 60" fill="none" xmlns="http://www.w3.org/2000/svg">
<path d="M46.25 5H13.75C9 5 5 9 5 13.75V46.25C5 51 9 55 13.75 55H40L55 40V13.75C55 9 51 5 46.25 5ZM37.5 50V46.25C37.5 41.5 41.5 37.5 46.25 37.5H50L37.5 50Z" fill="#F28F27"/>
<path d="M13.8887 33.072C13.5527 33.072 13.2307 33.028 12.9227 32.94C12.6147 32.848 12.3667 32.73 12.1787 32.586L12.5087 31.854C12.6887 31.982 12.9007 32.088 13.1447 32.172C13.3927 32.252 13.6427 32.292 13.8947 32.292C14.0867 32.292 14.2407 32.274 14.3567 32.238C14.4767 32.198 14.5647 32.144 14.6207 32.076C14.6767 32.008 14.7047 31.93 14.7047 31.842C14.7047 31.73 14.6607 31.642 14.5727 31.578C14.4847 31.51 14.3687 31.456 14.2247 31.416C14.0807 31.372 13.9207 31.332 13.7447 31.296C13.5727 31.256 13.3987 31.208 13.2227 31.152C13.0507 31.096 12.8927 31.024 12.7487 30.936C12.6047 30.848 12.4867 30.732 12.3947 30.588C12.3067 30.444 12.2627 30.26 12.2627 30.036C12.2627 29.796 12.3267 29.578 12.4547 29.382C12.5867 29.182 12.7827 29.024 13.0427 28.908C13.3067 28.788 13.6367 28.728 14.0327 28.728C14.2967 28.728 14.5567 28.76 14.8127 28.824C15.0687 28.884 15.2947 28.976 15.4907 29.1L15.1907 29.838C14.9947 29.726 14.7987 29.644 14.6027 29.592C14.4067 29.536 14.2147 29.508 14.0267 29.508C13.8387 29.508 13.6847 29.53 13.5647 29.574C13.4447 29.618 13.3587 29.676 13.3067 29.748C13.2547 29.816 13.2287 29.896 13.2287 29.988C13.2287 30.096 13.2727 30.184 13.3607 30.252C13.4487 30.316 13.5647 30.368 13.7087 30.408C13.8527 30.448 14.0107 30.488 14.1827 30.528C14.3587 30.568 14.5327 30.614 14.7047 30.666C14.8807 30.718 15.0407 30.788 15.1847 30.876C15.3287 30.964 15.4447 31.08 15.5327 31.224C15.6247 31.368 15.6707 31.55 15.6707 31.77C15.6707 32.006 15.6047 32.222 15.4727 32.418C15.3407 32.614 15.1427 32.772 14.8787 32.892C14.6187 33.012 14.2887 33.072 13.8887 33.072ZM18.9041 33V29.592H17.5601V28.8H21.2201V29.592H19.8761V33H18.9041ZM23.4423 33V28.8H24.4143V33H23.4423ZM29.1203 33.072C28.7963 33.072 28.4943 33.02 28.2143 32.916C27.9383 32.808 27.6983 32.656 27.4943 32.46C27.2903 32.264 27.1303 32.034 27.0143 31.77C26.9023 31.506 26.8463 31.216 26.8463 30.9C26.8463 30.584 26.9023 30.294 27.0143 30.03C27.1303 29.766 27.2903 29.536 27.4943 29.34C27.7023 29.144 27.9443 28.994 28.2203 28.89C28.4963 28.782 28.7983 28.728 29.1263 28.728C29.4903 28.728 29.8183 28.792 30.1103 28.92C30.4063 29.044 30.6543 29.228 30.8543 29.472L30.2303 30.048C30.0863 29.884 29.9263 29.762 29.7503 29.682C29.5743 29.598 29.3823 29.556 29.1743 29.556C28.9783 29.556 28.7983 29.588 28.6343 29.652C28.4703 29.716 28.3283 29.808 28.2083 29.928C28.0883 30.048 27.9943 30.19 27.9263 30.354C27.8623 30.518 27.8303 30.7 27.8303 30.9C27.8303 31.1 27.8623 31.282 27.9263 31.446C27.9943 31.61 28.0883 31.752 28.2083 31.872C28.3283 31.992 28.4703 32.084 28.6343 32.148C28.7983 32.212 28.9783 32.244 29.1743 32.244C29.3823 32.244 29.5743 32.204 29.7503 32.124C29.9263 32.04 30.0863 31.914 30.2303 31.746L30.8543 32.322C30.6543 32.566 30.4063 32.752 30.1103 32.88C29.8183 33.008 29.4883 33.072 29.1203 33.072ZM34.0799 32.04L34.0259 30.918L36.0359 28.8H37.1159L35.3039 30.75L34.7639 31.326L34.0799 32.04ZM33.2099 33V28.8H34.1759V33H33.2099ZM36.0839 33L34.5899 31.17L35.2259 30.48L37.2179 33H36.0839ZM40.2445 30.492H42.2665V31.248H40.2445V30.492ZM40.3165 32.22H42.6025V33H39.3505V28.8H42.5245V29.58H40.3165V32.22ZM45.0751 33V28.8H46.8931C47.2691 28.8 47.5931 28.862 47.8651 28.986C48.1371 29.106 48.3471 29.28 48.4951 29.508C48.6431 29.736 48.7171 30.008 48.7171 30.324C48.7171 30.636 48.6431 30.906 48.4951 31.134C48.3471 31.358 48.1371 31.53 47.8651 31.65C47.5931 31.77 47.2691 31.83 46.8931 31.83H45.6151L46.0471 31.404V33H45.0751ZM47.7451 33L46.6951 31.476H47.7331L48.7951 33H47.7451ZM46.0471 31.512L45.6151 31.056H46.8391C47.1391 31.056 47.3631 30.992 47.5111 30.864C47.6591 30.732 47.7331 30.552 47.7331 30.324C47.7331 30.092 47.6591 29.912 47.5111 29.784C47.3631 29.656 47.1391 29.592 46.8391 29.592H45.6151L46.0471 29.13V31.512Z" fill="white"/>
</svg>
