<svg width="60" height="60" viewBox="0 0 60 60" fill="none" xmlns="http://www.w3.org/2000/svg">
<g clip-path="url(#clip0_396_7779)">
<path d="M7.5 45C7.5 48.635 10.5875 51.13 13.7125 52.575C16.8125 54.0025 20.8575 54.87 25.235 54.9875L26.25 55H50C50.3369 55.0003 50.6704 54.9324 50.9804 54.8006C51.2904 54.6688 51.5706 54.4756 51.8041 54.2328C52.0376 53.9899 52.2196 53.7024 52.3392 53.3874C52.4588 53.0725 52.5135 52.7366 52.5 52.4L52.465 52.09L51.285 45L52.465 37.91C52.5151 37.6099 52.51 37.3032 52.45 37.005L52.3725 36.71L50.135 30L52.3725 23.29C52.4898 22.938 52.5272 22.5644 52.4822 22.1962C52.4371 21.828 52.3107 21.4744 52.112 21.1611C51.9134 20.8478 51.6475 20.5826 51.3336 20.3848C51.0198 20.187 50.6658 20.0615 50.2975 20.0175L50 20H42.6825C44.0575 18.6725 45 17.01 45 15C45 11.365 41.9125 8.87 38.7875 7.425C35.45 5.89 31.015 5 26.25 5C21.485 5 17.05 5.8875 13.7125 7.425C10.7275 8.8025 7.78 11.14 7.52 14.5125L7.5 15L7.5 45ZM12.5 15C12.5 14.4925 13.05 13.2375 15.8075 11.9675C18.35 10.7925 22.04 10 26.25 10C30.46 10 34.15 10.7925 36.6925 11.9675C39.45 13.2375 40 14.4925 40 15C40 15.5075 39.45 16.7625 36.6925 18.0325C34.15 19.2075 30.46 20 26.25 20C22.04 20 18.35 19.2075 15.8075 18.0325C13.05 16.7625 12.5 15.5075 12.5 15ZM21.25 15C21.25 16.38 23.4875 17.5 26.25 17.5C29.0125 17.5 31.25 16.38 31.25 15C31.25 13.62 29.0125 12.5 26.25 12.5C23.4875 12.5 21.25 13.62 21.25 15Z" fill="#F28F27"/>
</g>
<defs>
<clipPath id="clip0_396_7779">
<rect width="60" height="60" fill="white" transform="matrix(0 1 1 0 0 0)"/>
</clipPath>
</defs>
</svg>
