<svg width="25" height="24" viewBox="0 0 25 24" fill="none" xmlns="http://www.w3.org/2000/svg">
<g clip-path="url(#clip0_396_12432)">
<path d="M10.443 2.01321C10.9242 1.95652 11.4092 2.0836 11.8007 2.36904C12.1922 2.65447 12.4614 3.07719 12.5545 3.55259L12.5798 3.7215L12.5849 3.82669V10.9066C12.5849 11.1544 12.6759 11.3935 12.8406 11.5786C13.0052 11.7637 13.2321 11.882 13.4782 11.911L13.5966 11.918H20.4765C21.0132 11.918 21.5279 12.1312 21.9073 12.5105C22.2868 12.8899 22.5 13.4044 22.5 13.9409C22.5 14.0178 22.4911 14.0945 22.4737 14.1695C22.0688 15.9158 21.2069 17.5233 19.9762 18.8271C18.7455 20.131 17.1902 21.0844 15.4697 21.5898C13.7492 22.0951 11.9252 22.1343 10.1846 21.7032C8.44394 21.2722 6.84919 20.3863 5.56364 19.1365C4.27809 17.8867 3.34793 16.3177 2.86841 14.5903C2.3889 12.8629 2.37727 11.0392 2.83471 9.30579C3.29215 7.57243 4.20222 5.99175 5.47172 4.72562C6.74123 3.4595 8.32455 2.55342 10.0595 2.1002L10.3327 2.03243L10.444 2.0122L10.443 2.01321Z" fill="#F28F27"/>
<path d="M14.5 3.50007V9.00007C14.5 9.26529 14.6054 9.51964 14.7929 9.70718C14.9804 9.89472 15.2348 10.0001 15.5 10.0001H21C21.1598 10 21.3173 9.96167 21.4593 9.88821C21.6013 9.81476 21.7235 9.70834 21.8159 9.57789C21.9082 9.44743 21.968 9.29674 21.9901 9.13844C22.0122 8.98014 21.9961 8.81884 21.943 8.66807C21.4463 7.25741 20.6396 5.9761 19.5822 4.91851C18.5248 3.86091 17.2436 3.05396 15.833 2.55707C15.6822 2.50381 15.5208 2.4875 15.3623 2.50952C15.2039 2.53154 15.0531 2.59125 14.9225 2.68363C14.7919 2.77601 14.6854 2.89836 14.6119 3.04043C14.5383 3.18249 14.5 3.34012 14.5 3.50007Z" fill="#F28F27"/>
</g>
<defs>
<clipPath id="clip0_396_12432">
<rect width="24" height="24" fill="white" transform="translate(0.5)"/>
</clipPath>
</defs>
</svg>
