<svg width="181" height="171" viewBox="0 0 181 171" fill="none" xmlns="http://www.w3.org/2000/svg">
<g filter="url(#filter0_dd_190_5027)">
<path d="M63.9563 113.501C69.7728 137.315 81.5384 149.441 103.609 149.441C125.716 149.441 139.488 142.838 145.144 112.263C150.267 84.5613 146.422 43.3559 146.422 43.3559L66.6702 42.9843C66.6702 42.9843 58.0713 89.4101 63.9563 113.501Z" fill="#F8A38E" stroke="white" stroke-width="10"/>
<path d="M62.1132 75.0911C62.1132 75.0911 54.0498 74.9473 52.465 84.9843C50.8802 95.0199 56.8591 104.228 67.6308 106.048L70.2963 83.2685C70.8502 78.5384 66.842 74.533 62.1132 75.0911Z" fill="#F8A38E" stroke="white" stroke-width="10"/>
<path d="M60.1288 93.16C59.9623 93.16 59.7957 93.0889 59.6803 92.9493C59.5664 92.8126 56.8824 89.5562 56.6887 86.3681C56.5307 83.7809 57.1216 81.9825 58.443 81.0228C60.4293 79.579 63.2514 80.6654 63.3696 80.7124C63.6701 80.8306 63.8167 81.1695 63.6985 81.4699C63.5803 81.7689 63.2415 81.917 62.9424 81.7989C62.9054 81.7846 60.5859 80.9047 59.125 81.9697C58.1496 82.6802 57.7225 84.1369 57.8535 86.2969C58.0243 89.0991 60.5517 92.1719 60.5774 92.2018C60.7838 92.4495 60.7497 92.8169 60.5019 93.0234C60.3923 93.1159 60.2598 93.16 60.1288 93.16Z" fill="black" stroke="white" stroke-width="10"/>
<path d="M151.402 75.0911C151.402 75.0911 159.465 74.9473 161.05 84.9843C162.635 95.0199 156.656 104.228 145.884 106.048L143.219 83.2685C142.665 78.5384 146.673 74.533 151.402 75.0911Z" fill="#F8A38E" stroke="white" stroke-width="10"/>
<path d="M153.388 93.1586C153.257 93.1586 153.125 93.1145 153.015 93.0234C152.767 92.8169 152.735 92.4495 152.94 92.2018C152.965 92.1719 155.493 89.0991 155.664 86.2969C155.795 84.1369 155.367 82.6817 154.392 81.9697C152.927 80.9018 150.597 81.7889 150.575 81.7989C150.274 81.9156 149.937 81.7675 149.819 81.4685C149.702 81.1695 149.848 80.8306 150.147 80.7124C150.267 80.6654 153.088 79.579 155.074 81.0228C156.395 81.9825 156.985 83.7809 156.828 86.3681C156.635 89.5562 153.951 92.8126 153.837 92.9493C153.721 93.0874 153.556 93.1586 153.388 93.1586Z" fill="black" stroke="white" stroke-width="10"/>
<path d="M82.4582 49.3956C64.3805 56.76 67.3493 76.8311 66.8681 80.9475C66.3868 85.064 60.6514 79.1349 61.3291 63.2016C62.0069 47.2683 66.5833 43.7086 67.0916 43.3697C67.5999 43.0308 75.0583 39.6847 75.0583 39.6847L82.4582 49.3956Z" fill="#010101" stroke="white" stroke-width="10"/>
<path d="M131.057 49.395C149.135 56.7594 146.166 76.8291 146.647 80.9456C147.128 85.062 152.864 79.1329 152.186 63.1996C151.508 47.2663 146.932 43.7066 146.424 43.3677C145.915 43.0288 138.457 39.6827 138.457 39.6827L131.057 49.395Z" fill="#010101" stroke="white" stroke-width="10"/>
<path d="M65.1171 63.587C69.7347 69.2939 69.3503 60.6495 94.7012 63.8048C99.9382 64.457 126.817 76.6455 138.845 69.9119C142.851 67.6693 142.77 60.6068 147.715 62.2414C152.661 63.876 148.879 52.1532 148.879 52.1532L118.886 42.9819L90.421 38.2831C90.421 38.2831 71.2469 46.2896 70.5819 47.2308C69.917 48.172 65.1185 56.2454 65.1185 57.0072C65.1185 57.769 65.1171 63.587 65.1171 63.587Z" fill="#010101" stroke="white" stroke-width="10"/>
<path d="M153.906 63.5436H59.3811C59.3811 41.7282 65.7957 19.3333 106.643 19.3333C145.63 19.3348 153.906 41.7282 153.906 63.5436Z" fill="#E11907" stroke="white" stroke-width="10"/>
<path d="M59.3819 63.5441C59.3819 63.5441 59.0473 55.7512 71.774 50.1183C78.9761 46.9302 94.2088 44.4355 106.53 44.4355C118.589 44.4355 133.437 46.8263 140.622 49.9161C153.75 55.5618 153.905 63.5441 153.905 63.5441H59.3819Z" fill="#C6150C" stroke="white" stroke-width="10"/>
<path fill-rule="evenodd" clip-rule="evenodd" d="M120.242 35.0966C120.244 35.7218 119.869 36.3796 119.458 36.7945C119.421 36.8322 119.408 36.8369 119.369 36.8705C118.898 37.2702 118.361 37.5124 117.705 37.514L104.271 37.5489C104.226 37.5493 104.149 37.4502 104.117 37.4189L102.595 35.9031C102.553 35.8607 102.051 35.3876 102.051 35.339L102.039 30.6681C102.039 30.6154 102.818 29.8608 102.871 29.8089C102.921 29.7584 103.672 28.9721 103.725 28.9718L108.917 28.9585L108.921 30.7102L104.463 30.7218C104.42 30.7218 103.792 31.3547 103.792 31.397L103.8 34.6015C103.799 34.646 103.906 34.7292 103.938 34.7613C103.993 34.8147 104.035 34.8571 104.088 34.9106C104.192 35.0147 104.284 35.1068 104.389 35.2098C104.432 35.2532 104.951 35.7956 105 35.7957L117.641 35.7624C117.777 35.7624 117.899 35.7382 117.999 35.7002C118.076 35.669 118.191 35.6044 118.251 35.5475C118.463 35.3479 118.523 35.1587 118.521 34.8766C118.52 34.5016 118.202 34.1704 117.808 34.1077C117.639 34.0809 113.143 34.1116 112.685 34.1137C112.07 34.1154 111.494 33.9252 111.042 33.5596C110.779 33.3457 110.525 33.0645 110.372 32.7617C110.074 32.1665 109.968 31.5861 110.134 30.9167C110.193 30.6728 110.282 30.4531 110.402 30.2431C110.494 30.0788 110.74 29.7449 110.893 29.627C110.928 29.6 110.939 29.5853 110.972 29.5564C111.39 29.1995 111.99 28.9505 112.552 28.9491L120.226 28.9286L120.231 30.6801L112.721 30.7002C112.457 30.7004 112.246 30.7964 112.112 30.9297C111.574 31.4604 111.931 32.343 112.68 32.3622C113.204 32.3758 113.754 32.3594 114.281 32.3581L117.752 32.3491C118.278 32.3469 118.738 32.541 119.136 32.8025C119.633 33.1304 119.988 33.664 120.155 34.239C120.256 34.5823 120.242 34.7535 120.242 35.0966Z" fill="white" stroke="white" stroke-width="10"/>
<path fill-rule="evenodd" clip-rule="evenodd" d="M91.5118 37.5837L93.2324 37.5794C93.2665 37.5794 93.2776 37.5688 93.2775 37.5336L93.2686 34.1659L98.7433 34.1511C99.3075 34.1495 99.8918 33.8973 100.316 33.55C100.344 33.5269 100.357 33.5087 100.385 33.4856C100.464 33.4222 100.521 33.3708 100.588 33.2841C100.614 33.251 100.627 33.2433 100.652 33.2133C100.883 32.9421 101.072 32.5583 101.162 32.2134C101.243 31.9049 101.262 31.5883 101.221 31.2387C101.127 30.4368 100.586 29.6447 99.8881 29.2927C99.1732 28.9313 98.7922 28.986 98.0274 28.9873L91.4897 28.9902L91.5118 37.5837ZM98.4997 32.3998L93.2781 32.4137C93.244 32.4137 93.2334 32.4036 93.2334 32.3695L93.2294 30.7523L98.5553 30.7381C98.8084 30.7372 99.015 30.8288 99.1433 30.9568C99.2223 31.0371 99.2662 31.0834 99.32 31.1854C99.4963 31.5205 99.4137 31.9275 99.1392 32.1853C99.0835 32.2376 98.9563 32.3131 98.8783 32.3433C98.7836 32.3807 98.6268 32.3998 98.4997 32.3998Z" fill="white" stroke="white" stroke-width="10"/>
<path d="M106.002 108.394C105.952 108.394 105.901 108.39 105.85 108.383L101.104 107.654C100.825 107.611 100.577 107.452 100.422 107.215C100.267 106.979 100.22 106.688 100.291 106.415L103.993 92.3213C104.133 91.7888 104.678 91.4712 105.21 91.6108C105.743 91.7503 106.06 92.2957 105.921 92.8282L102.501 105.851L106.152 106.412C106.696 106.496 107.069 107.004 106.986 107.548C106.911 108.042 106.485 108.394 106.002 108.394Z" fill="black" stroke="white" stroke-width="10"/>
<path d="M76.7482 90.4965C76.6086 90.4965 76.4662 90.4695 76.3295 90.4111C75.787 90.1804 75.535 89.5525 75.7657 89.01C77.06 85.9743 80.4759 83.7701 83.8904 83.7701C87.6224 83.7701 90.3463 85.4375 91.988 88.7252C92.2515 89.2535 92.0364 89.8942 91.5096 90.1576C90.9813 90.4211 90.3406 90.2061 90.0772 89.6792C88.8099 87.1404 86.7866 85.9059 83.8904 85.9059C81.3359 85.9059 78.6875 87.6003 77.7306 89.8472C77.5584 90.2531 77.1625 90.4965 76.7482 90.4965Z" fill="black" stroke="white" stroke-width="10"/>
<path d="M130.919 90.4965C130.503 90.4965 130.109 90.2531 129.937 89.8472C128.98 87.6003 126.331 85.9059 123.777 85.9059C120.881 85.9059 118.857 87.1404 117.59 89.6792C117.327 90.2075 116.686 90.4211 116.158 90.1576C115.629 89.8942 115.416 89.2535 115.679 88.7252C117.321 85.4375 120.045 83.7701 123.777 83.7701C127.191 83.7701 130.607 85.9743 131.902 89.01C132.132 89.5525 131.88 90.1804 131.338 90.4111C131.201 90.4681 131.059 90.4965 130.919 90.4965Z" fill="black" stroke="white" stroke-width="10"/>
<path d="M96.4386 135.751C96.4386 135.751 105.917 123.822 119.891 132.764C116.49 135.841 111.586 138.095 105.089 137.829C101.831 137.693 98.9034 137.011 96.3589 135.932L96.4386 135.751Z" fill="#C1272D" stroke="white" stroke-width="10"/>
<path d="M125.239 119.044C126.797 121.385 125.132 128.043 119.892 132.768C105.918 123.826 96.4392 135.755 96.4392 135.755L96.3595 135.936C87.3833 132.162 83.301 123.712 87.1655 118.825C90.4945 114.609 94.0955 119.172 105.307 119.674C112.781 120.012 121.46 113.376 125.239 119.044Z" fill="#010101" stroke="white" stroke-width="10"/>
</g>
<path d="M63.9554 113.501C69.772 137.315 81.5376 149.441 103.608 149.441C125.715 149.441 139.487 142.838 145.143 112.263C150.266 84.5613 146.421 43.3559 146.421 43.3559L66.6693 42.9843C66.6693 42.9843 58.0705 89.4101 63.9554 113.501Z" fill="#F8A38E"/>
<path d="M62.1124 75.0911C62.1124 75.0911 54.0489 74.9473 52.4641 84.9843C50.8793 95.0199 56.8582 104.228 67.6299 106.048L70.2955 83.2685C70.8494 78.5384 66.8411 74.533 62.1124 75.0911Z" fill="#F8A38E"/>
<path d="M60.128 93.16C59.9614 93.16 59.7948 93.0889 59.6795 92.9493C59.5656 92.8126 56.8815 89.5562 56.6879 86.3681C56.5298 83.7809 57.1207 81.9825 58.4421 81.0228C60.4284 79.579 63.2506 80.6654 63.3688 80.7124C63.6692 80.8306 63.8159 81.1695 63.6977 81.4699C63.5795 81.7689 63.2406 81.917 62.9416 81.7989C62.9046 81.7846 60.5851 80.9047 59.1242 81.9697C58.1488 82.6802 57.7216 84.1369 57.8526 86.2969C58.0235 89.0991 60.5509 92.1719 60.5765 92.2018C60.783 92.4495 60.7488 92.8169 60.501 93.0234C60.3914 93.1159 60.259 93.16 60.128 93.16Z" fill="black"/>
<path d="M151.401 75.0911C151.401 75.0911 159.464 74.9473 161.049 84.9843C162.634 95.0199 156.655 104.228 145.883 106.048L143.218 83.2685C142.664 78.5384 146.672 74.533 151.401 75.0911Z" fill="#F8A38E"/>
<path d="M153.387 93.1586C153.256 93.1586 153.124 93.1145 153.014 93.0234C152.767 92.8169 152.734 92.4495 152.939 92.2018C152.964 92.1719 155.492 89.0991 155.663 86.2969C155.794 84.1369 155.367 82.6817 154.391 81.9697C152.926 80.9018 150.597 81.7889 150.574 81.7989C150.273 81.9156 149.936 81.7675 149.818 81.4685C149.701 81.1695 149.848 80.8306 150.147 80.7124C150.266 80.6654 153.087 79.579 155.073 81.0228C156.395 81.9825 156.984 83.7809 156.828 86.3681C156.634 89.5562 153.95 92.8126 153.836 92.9493C153.721 93.0874 153.555 93.1586 153.387 93.1586Z" fill="black"/>
<path d="M82.4574 49.3956C64.3797 56.76 67.3485 76.8311 66.8672 80.9475C66.3859 85.064 60.6505 79.1349 61.3283 63.2016C62.0061 47.2683 66.5824 43.7086 67.0908 43.3697C67.5991 43.0308 75.0574 39.6847 75.0574 39.6847L82.4574 49.3956Z" fill="#010101"/>
<path d="M131.056 49.395C149.134 56.7594 146.165 76.8291 146.646 80.9456C147.128 85.062 152.863 79.1329 152.185 63.1996C151.507 47.2663 146.931 43.7066 146.423 43.3677C145.914 43.0288 138.456 39.6827 138.456 39.6827L131.056 49.395Z" fill="#010101"/>
<path d="M65.1162 63.587C69.7339 69.2939 69.3494 60.6495 94.7003 63.8048C99.9374 64.457 126.816 76.6455 138.844 69.9119C142.851 67.6693 142.769 60.6068 147.715 62.2414C152.66 63.876 148.878 52.1532 148.878 52.1532L118.885 42.9819L90.4201 38.2831C90.4201 38.2831 71.246 46.2896 70.5811 47.2308C69.9161 48.172 65.1176 56.2454 65.1176 57.0072C65.1176 57.769 65.1162 63.587 65.1162 63.587Z" fill="#010101"/>
<path d="M153.905 63.5436H59.3802C59.3802 41.7282 65.7949 19.3333 106.642 19.3333C145.629 19.3348 153.905 41.7282 153.905 63.5436Z" fill="#E11907"/>
<path d="M59.3811 63.5441C59.3811 63.5441 59.0465 55.7512 71.7732 50.1183C78.9752 46.9302 94.208 44.4355 106.529 44.4355C118.588 44.4355 133.436 46.8263 140.621 49.9161C153.749 55.5618 153.904 63.5441 153.904 63.5441H59.3811Z" fill="#C6150C"/>
<path fill-rule="evenodd" clip-rule="evenodd" d="M120.241 35.0966C120.243 35.7218 119.868 36.3796 119.457 36.7945C119.42 36.8322 119.407 36.8369 119.368 36.8705C118.897 37.2702 118.36 37.5124 117.704 37.514L104.27 37.5489C104.225 37.5493 104.148 37.4502 104.116 37.4189L102.594 35.9031C102.552 35.8607 102.05 35.3876 102.05 35.339L102.038 30.6681C102.038 30.6154 102.817 29.8608 102.87 29.8089C102.92 29.7584 103.671 28.9721 103.724 28.9718L108.916 28.9585L108.92 30.7102L104.462 30.7218C104.419 30.7218 103.791 31.3547 103.791 31.397L103.799 34.6015C103.798 34.646 103.905 34.7292 103.937 34.7613C103.992 34.8147 104.034 34.8571 104.087 34.9106C104.191 35.0147 104.284 35.1068 104.388 35.2098C104.431 35.2532 104.95 35.7956 104.999 35.7957L117.64 35.7624C117.776 35.7624 117.898 35.7382 117.998 35.7002C118.075 35.669 118.19 35.6044 118.25 35.5475C118.462 35.3479 118.522 35.1587 118.52 34.8766C118.519 34.5016 118.201 34.1704 117.807 34.1077C117.638 34.0809 113.142 34.1116 112.684 34.1137C112.069 34.1154 111.493 33.9252 111.041 33.5596C110.778 33.3457 110.524 33.0645 110.371 32.7617C110.073 32.1665 109.967 31.5861 110.133 30.9167C110.192 30.6728 110.281 30.4531 110.401 30.2431C110.493 30.0788 110.739 29.7449 110.892 29.627C110.927 29.6 110.938 29.5853 110.971 29.5564C111.389 29.1995 111.989 28.9505 112.551 28.9491L120.225 28.9286L120.23 30.6801L112.72 30.7002C112.456 30.7004 112.245 30.7964 112.111 30.9297C111.573 31.4604 111.931 32.343 112.679 32.3622C113.203 32.3758 113.753 32.3594 114.28 32.3581L117.751 32.3491C118.277 32.3469 118.737 32.541 119.135 32.8025C119.633 33.1304 119.987 33.664 120.154 34.239C120.255 34.5823 120.241 34.7535 120.241 35.0966Z" fill="white"/>
<path fill-rule="evenodd" clip-rule="evenodd" d="M91.5108 37.5837L93.2314 37.5794C93.2655 37.5794 93.2766 37.5688 93.2765 37.5336L93.2677 34.1659L98.7424 34.1511C99.3065 34.1495 99.8908 33.8973 100.315 33.55C100.343 33.5269 100.356 33.5087 100.384 33.4856C100.463 33.4222 100.52 33.3708 100.587 33.2841C100.613 33.251 100.626 33.2433 100.651 33.2133C100.882 32.9421 101.071 32.5583 101.161 32.2134C101.242 31.9049 101.261 31.5883 101.22 31.2387C101.126 30.4368 100.585 29.6447 99.8871 29.2927C99.1722 28.9313 98.7912 28.986 98.0264 28.9873L91.4887 28.9902L91.5108 37.5837ZM98.4987 32.3998L93.2771 32.4137C93.243 32.4137 93.2325 32.4036 93.2324 32.3695L93.2284 30.7523L98.5543 30.7381C98.8075 30.7372 99.014 30.8288 99.1423 30.9568C99.2214 31.0371 99.2653 31.0834 99.3191 31.1854C99.4954 31.5205 99.4127 31.9275 99.1382 32.1853C99.0826 32.2376 98.9553 32.3131 98.8773 32.3433C98.7827 32.3807 98.6258 32.3998 98.4987 32.3998Z" fill="white"/>
<path d="M106.001 108.394C105.951 108.394 105.9 108.39 105.849 108.383L101.103 107.654C100.824 107.611 100.576 107.452 100.421 107.215C100.266 106.979 100.219 106.688 100.29 106.415L103.992 92.3213C104.132 91.7888 104.677 91.4712 105.21 91.6108C105.742 91.7503 106.06 92.2957 105.92 92.8282L102.5 105.851L106.151 106.412C106.695 106.496 107.068 107.004 106.985 107.548C106.91 108.042 106.484 108.394 106.001 108.394Z" fill="black"/>
<path d="M76.7473 90.4965C76.6078 90.4965 76.4654 90.4695 76.3287 90.4111C75.7862 90.1804 75.5342 89.5525 75.7648 89.01C77.0591 85.9743 80.475 83.7701 83.8895 83.7701C87.6215 83.7701 90.3454 85.4375 91.9872 88.7252C92.2506 89.2535 92.0356 89.8942 91.5088 90.1576C90.9805 90.4211 90.3397 90.2061 90.0763 89.6792C88.8091 87.1404 86.7857 85.9059 83.8895 85.9059C81.3351 85.9059 78.6866 87.6003 77.7298 89.8472C77.5575 90.2531 77.1617 90.4965 76.7473 90.4965Z" fill="black"/>
<path d="M130.918 90.4965C130.503 90.4965 130.108 90.2531 129.936 89.8472C128.979 87.6003 126.331 85.9059 123.776 85.9059C120.88 85.9059 118.857 87.1404 117.589 89.6792C117.326 90.2075 116.685 90.4211 116.157 90.1576C115.629 89.8942 115.415 89.2535 115.678 88.7252C117.32 85.4375 120.044 83.7701 123.776 83.7701C127.191 83.7701 130.607 85.9743 131.901 89.01C132.131 89.5525 131.879 90.1804 131.337 90.4111C131.2 90.4681 131.058 90.4965 130.918 90.4965Z" fill="black"/>
<path d="M96.4378 135.751C96.4378 135.751 105.917 123.822 119.891 132.764C116.489 135.841 111.585 138.095 105.088 137.829C101.83 137.693 98.9025 137.011 96.358 135.932L96.4378 135.751Z" fill="#C1272D"/>
<path d="M125.238 119.044C126.796 121.385 125.131 128.043 119.891 132.768C105.917 123.826 96.4384 135.755 96.4384 135.755L96.3586 135.936C87.3825 132.162 83.3002 123.712 87.1646 118.825C90.4937 114.609 94.0947 119.172 105.306 119.674C112.78 120.012 121.459 113.376 125.238 119.044Z" fill="#010101"/>
<g filter="url(#filter1_dd_190_5027)">
<path d="M75.8935 145.193L58.812 151.127C53.3862 153.193 47.9963 150.814 46.6657 144.897C44.9004 139.779 47.1495 134.048 52.2661 132.283L69.3499 126.349C74.4665 124.583 80.2775 127.381 82.0428 132.5C83.7902 137.841 81.0123 143.428 75.8935 145.193Z" fill="white" stroke="white" stroke-width="10" stroke-linejoin="round"/>
<path d="M73.4788 99.0425C71.2767 99.0425 68.4025 99.4973 66.1288 99.0425C64.4867 98.7132 61.1219 96.1011 57.0268 96.1011C51.9662 96.1011 50.3421 99.9543 43.4468 99.6384C40.1873 99.4883 35.7674 100.478 33.1889 103.559C31.0832 106.074 26.9209 106.531 24.5799 107.898C21.6676 109.466 19.8889 113.162 19.8889 116.523V131.489C19.8889 138.842 21.6385 142.516 27.9402 143.181C33.1643 143.732 34.4502 140.058 35.5703 139.61C35.9197 141.85 39.0717 145.421 42.432 145.421C47.4366 145.421 48.9353 144.008 50.7274 141.991C52.3359 145.598 55.3758 147.52 58.2881 147.52C64.2448 147.52 65.2528 145.141 67.0383 141.991C68.8304 144.008 71.4291 145.246 74.5653 145.246C79.0099 145.246 82.5785 141.116 82.5785 135.515L82.1663 108.906C82.1663 103.306 79.0793 99.0425 73.4788 99.0425Z" fill="white" stroke="white" stroke-width="10" stroke-linejoin="round"/>
<path d="M24.8434 141.995C25.1346 142.279 25.4303 142.539 25.7283 142.774C21.5884 141.614 20.1278 138.477 19.9172 133.02C19.878 127.25 19.8795 121.48 19.9217 115.71C20.0993 113.594 20.8938 111.577 22.2067 109.908C22.126 118.663 22.0633 133.916 22.2515 137.167C22.3411 138.744 23.3604 140.545 24.8434 141.997V141.995ZM40.0162 143.545C40.5919 144.262 41.2147 144.889 41.8308 145.384C38.7035 144.999 35.8987 141.717 35.5694 139.611C35.5457 139.621 35.5226 139.632 35.5 139.645C35.2923 138.881 35.1838 138.093 35.1774 137.301C35.1774 136.215 35.1707 134.698 35.1617 132.929C35.1393 128.343 35.1102 122.07 35.1774 117.265C35.1816 116.968 35.3036 116.685 35.5166 116.478C35.7296 116.271 36.0161 116.157 36.3132 116.161C36.6102 116.165 36.8935 116.287 37.1006 116.5C37.3077 116.713 37.4218 116.999 37.4176 117.296C37.3504 122.079 37.3795 128.305 37.4019 132.888C37.4109 134.667 37.4176 136.197 37.4176 137.301C37.4176 139.282 38.4862 141.638 40.0162 143.545ZM56.6877 147.331C56.1407 146.849 55.637 146.319 55.1823 145.749C53.6523 143.845 52.5837 141.486 52.5837 139.506C52.5837 138.504 52.5792 136.737 52.5725 134.548C52.5501 128.117 52.5143 118.049 52.5837 113.094C52.5858 112.947 52.5588 112.801 52.5044 112.664C52.4501 112.527 52.3693 112.403 52.2667 112.297C52.1642 112.192 52.0418 112.108 51.9067 112.049C51.7716 111.991 51.6264 111.96 51.4793 111.958C51.3322 111.956 51.1861 111.983 51.0495 112.037C50.9128 112.092 50.7881 112.172 50.6827 112.275C50.5772 112.378 50.493 112.5 50.4348 112.635C50.3766 112.77 50.3456 112.915 50.3435 113.062C50.2763 118.04 50.3099 128.159 50.3301 134.589C50.339 136.764 50.3435 138.518 50.3435 139.506C50.3435 140.335 50.4779 141.177 50.7087 142.01L50.7266 141.992C52.0416 144.938 54.3131 146.764 56.6877 147.331ZM70.6912 143.545C71.1123 144.067 71.5537 144.542 72.0017 144.952C70.1081 144.507 68.3951 143.496 67.0912 142.053C66.3385 140.532 65.8524 138.887 65.8524 137.301C65.8524 136.282 65.8479 134.602 65.8389 132.559C65.8165 126.77 65.7852 118.056 65.8546 113.134C65.8588 112.837 65.9808 112.554 66.1938 112.347C66.4068 112.14 66.6933 112.026 66.9904 112.03C67.2875 112.034 67.5707 112.156 67.7778 112.369C67.9849 112.582 68.099 112.868 68.0948 113.166C68.0254 118.065 68.0567 126.728 68.0791 132.516C68.0881 134.573 68.0926 136.266 68.0926 137.301C68.0926 139.282 69.1611 141.638 70.6912 143.545Z" fill="white" stroke="white" stroke-width="10" stroke-linejoin="round"/>
</g>
<path d="M75.8935 145.193L58.812 151.127C53.3862 153.193 47.9963 150.814 46.6657 144.897C44.9004 139.779 47.1495 134.048 52.2661 132.283L69.3499 126.349C74.4665 124.583 80.2775 127.381 82.0428 132.5C83.7902 137.841 81.0123 143.428 75.8935 145.193Z" fill="#EA8D76"/>
<path d="M73.4788 99.0425C71.2767 99.0425 68.4025 99.4973 66.1288 99.0425C64.4867 98.7132 61.1219 96.1011 57.0268 96.1011C51.9662 96.1011 50.3421 99.9543 43.4468 99.6384C40.1873 99.4883 35.7674 100.478 33.1889 103.559C31.0832 106.074 26.9209 106.531 24.5799 107.898C21.6676 109.466 19.8889 113.162 19.8889 116.523V131.489C19.8889 138.842 21.6385 142.516 27.9402 143.181C33.1643 143.732 34.4502 140.058 35.5703 139.61C35.9197 141.85 39.0717 145.421 42.432 145.421C47.4366 145.421 48.9353 144.008 50.7274 141.991C52.3359 145.598 55.3758 147.52 58.2881 147.52C64.2448 147.52 65.2528 145.141 67.0383 141.991C68.8304 144.008 71.4291 145.246 74.5653 145.246C79.0099 145.246 82.5785 141.116 82.5785 135.515L82.1663 108.906C82.1663 103.306 79.0793 99.0425 73.4788 99.0425Z" fill="#F8A38E"/>
<path d="M24.8434 141.995C25.1346 142.279 25.4303 142.539 25.7283 142.774C21.5884 141.614 20.1278 138.477 19.9172 133.02C19.878 127.25 19.8795 121.48 19.9217 115.71C20.0993 113.594 20.8938 111.577 22.2067 109.908C22.126 118.663 22.0633 133.916 22.2515 137.167C22.3411 138.744 23.3604 140.545 24.8434 141.997V141.995ZM40.0162 143.545C40.5919 144.262 41.2147 144.889 41.8308 145.384C38.7035 144.999 35.8987 141.717 35.5694 139.611C35.5457 139.621 35.5226 139.632 35.5 139.645C35.2923 138.881 35.1838 138.093 35.1774 137.301C35.1774 136.215 35.1707 134.698 35.1617 132.929C35.1393 128.343 35.1102 122.07 35.1774 117.265C35.1816 116.968 35.3036 116.685 35.5166 116.478C35.7296 116.271 36.0161 116.157 36.3132 116.161C36.6102 116.165 36.8935 116.287 37.1006 116.5C37.3077 116.713 37.4218 116.999 37.4176 117.296C37.3504 122.079 37.3795 128.305 37.4019 132.888C37.4109 134.667 37.4176 136.197 37.4176 137.301C37.4176 139.282 38.4862 141.638 40.0162 143.545ZM56.6877 147.331C56.1407 146.849 55.637 146.319 55.1823 145.749C53.6523 143.845 52.5837 141.486 52.5837 139.506C52.5837 138.504 52.5792 136.737 52.5725 134.548C52.5501 128.117 52.5143 118.049 52.5837 113.094C52.5858 112.947 52.5588 112.801 52.5044 112.664C52.4501 112.527 52.3693 112.403 52.2667 112.297C52.1642 112.192 52.0418 112.108 51.9067 112.049C51.7716 111.991 51.6264 111.96 51.4793 111.958C51.3322 111.956 51.1861 111.983 51.0495 112.037C50.9128 112.092 50.7881 112.172 50.6827 112.275C50.5772 112.378 50.493 112.5 50.4348 112.635C50.3766 112.77 50.3456 112.915 50.3435 113.062C50.2763 118.04 50.3099 128.159 50.3301 134.589C50.339 136.764 50.3435 138.518 50.3435 139.506C50.3435 140.335 50.4779 141.177 50.7087 142.01L50.7266 141.992C52.0416 144.938 54.3131 146.764 56.6877 147.331ZM70.6912 143.545C71.1123 144.067 71.5537 144.542 72.0017 144.952C70.1081 144.507 68.3951 143.496 67.0912 142.053C66.3385 140.532 65.8524 138.887 65.8524 137.301C65.8524 136.282 65.8479 134.602 65.8389 132.559C65.8165 126.77 65.7852 118.056 65.8546 113.134C65.8588 112.837 65.9808 112.554 66.1938 112.347C66.4068 112.14 66.6933 112.026 66.9904 112.03C67.2875 112.034 67.5707 112.156 67.7778 112.369C67.9849 112.582 68.099 112.868 68.0948 113.166C68.0254 118.065 68.0567 126.728 68.0791 132.516C68.0881 134.573 68.0926 136.266 68.0926 137.301C68.0926 139.282 69.1611 141.638 70.6912 143.545Z" fill="#EA8D76"/>
<defs>
<filter id="filter0_dd_190_5027" x="33.2137" y="0.333344" width="147.088" height="168.108" filterUnits="userSpaceOnUse" color-interpolation-filters="sRGB">
<feFlood flood-opacity="0" result="BackgroundImageFix"/>
<feColorMatrix in="SourceAlpha" type="matrix" values="0 0 0 0 0 0 0 0 0 0 0 0 0 0 0 0 0 0 127 0" result="hardAlpha"/>
<feOffset dx="4" dy="4"/>
<feGaussianBlur stdDeviation="5"/>
<feComposite in2="hardAlpha" operator="out"/>
<feColorMatrix type="matrix" values="0 0 0 0 0.101961 0 0 0 0 0.101961 0 0 0 0 0.101961 0 0 0 0.1 0"/>
<feBlend mode="normal" in2="BackgroundImageFix" result="effect1_dropShadow_190_5027"/>
<feColorMatrix in="SourceAlpha" type="matrix" values="0 0 0 0 0 0 0 0 0 0 0 0 0 0 0 0 0 0 127 0" result="hardAlpha"/>
<feOffset dx="-4" dy="-4"/>
<feGaussianBlur stdDeviation="5"/>
<feComposite in2="hardAlpha" operator="out"/>
<feColorMatrix type="matrix" values="0 0 0 0 0.101961 0 0 0 0 0.101961 0 0 0 0 0.101961 0 0 0 0.1 0"/>
<feBlend mode="normal" in2="effect1_dropShadow_190_5027" result="effect2_dropShadow_190_5027"/>
<feBlend mode="normal" in="SourceGraphic" in2="effect2_dropShadow_190_5027" result="shape"/>
</filter>
<filter id="filter1_dd_190_5027" x="0.888916" y="77.1011" width="100.69" height="93.7578" filterUnits="userSpaceOnUse" color-interpolation-filters="sRGB">
<feFlood flood-opacity="0" result="BackgroundImageFix"/>
<feColorMatrix in="SourceAlpha" type="matrix" values="0 0 0 0 0 0 0 0 0 0 0 0 0 0 0 0 0 0 127 0" result="hardAlpha"/>
<feOffset dx="4" dy="4"/>
<feGaussianBlur stdDeviation="5"/>
<feComposite in2="hardAlpha" operator="out"/>
<feColorMatrix type="matrix" values="0 0 0 0 0.101961 0 0 0 0 0.101961 0 0 0 0 0.101961 0 0 0 0.1 0"/>
<feBlend mode="normal" in2="BackgroundImageFix" result="effect1_dropShadow_190_5027"/>
<feColorMatrix in="SourceAlpha" type="matrix" values="0 0 0 0 0 0 0 0 0 0 0 0 0 0 0 0 0 0 127 0" result="hardAlpha"/>
<feOffset dx="-4" dy="-4"/>
<feGaussianBlur stdDeviation="5"/>
<feComposite in2="hardAlpha" operator="out"/>
<feColorMatrix type="matrix" values="0 0 0 0 0.101961 0 0 0 0 0.101961 0 0 0 0 0.101961 0 0 0 0.1 0"/>
<feBlend mode="normal" in2="effect1_dropShadow_190_5027" result="effect2_dropShadow_190_5027"/>
<feBlend mode="normal" in="SourceGraphic" in2="effect2_dropShadow_190_5027" result="shape"/>
</filter>
</defs>
</svg>
