<svg width="198" height="171" viewBox="0 0 198 171" fill="none" xmlns="http://www.w3.org/2000/svg">
<g filter="url(#filter0_dd_190_3864)">
<path d="M141.805 106.119C141.667 106.156 141.518 106.158 141.369 106.12C140.911 106.001 140.635 105.533 140.752 105.074C140.857 104.67 143.361 95.1526 148.147 92.7941C149.551 92.102 151.01 92.0673 152.48 92.6933C152.918 92.8781 153.12 93.3832 152.934 93.8199C152.746 94.2567 152.239 94.4594 151.808 94.2735C150.807 93.8479 149.861 93.8658 148.907 94.3351C144.826 96.3453 142.441 105.412 142.416 105.504C142.338 105.814 142.095 106.041 141.805 106.119Z" fill="white" stroke="white" stroke-width="10"/>
<path d="M57.6778 70.8379C57.6778 70.8379 56.5142 106.338 64.638 127.063C72.7618 147.787 94.5619 151.696 111.333 147.258C129.421 142.472 137.765 134.105 139.895 108.908C142.025 83.7102 131.847 48.5719 131.847 48.5719L57.9208 58.4562L57.6778 70.8379Z" fill="white" stroke="white" stroke-width="10"/>
<path d="M84.3806 99.6989C84.9731 101.938 83.638 104.234 81.3991 104.826C79.1602 105.419 76.8641 104.084 76.2716 101.845C75.6791 99.6059 77.0142 97.3099 79.2531 96.7174C81.492 96.1249 83.7881 97.46 84.3806 99.6989Z" fill="white" stroke="white" stroke-width="10"/>
<path d="M115.397 101.387C115.357 101.398 115.313 101.406 115.272 101.41L106.521 102.391C106.224 102.425 105.933 102.302 105.749 102.068C105.566 101.833 105.515 101.52 105.619 101.241C108.543 93.2843 118.886 94.7122 118.989 94.7267C119.457 94.7951 119.782 95.2307 119.713 95.6999C119.645 96.1703 119.205 96.4951 118.739 96.4268C118.394 96.3764 110.885 95.3572 107.854 100.512L115.08 99.7025C115.552 99.6499 115.977 99.9892 116.029 100.461C116.078 100.89 115.802 101.28 115.397 101.387Z" fill="white" stroke="white" stroke-width="10"/>
<path d="M99.2767 118.123C99.2543 118.129 99.2308 118.132 99.2084 118.132L92.3534 118.277C92.1753 118.281 91.9827 118.128 91.8461 117.874C91.7094 117.618 91.6501 117.302 91.6882 117.04L94.1688 100.366C94.2304 99.9561 94.5103 99.806 94.7914 100.023C95.0748 100.243 95.2551 100.752 95.1957 101.16L92.9021 116.579L98.9037 116.452C99.1815 116.447 99.4738 116.819 99.5578 117.282C99.635 117.707 99.5107 118.062 99.2767 118.123Z" fill="white" stroke="white" stroke-width="10"/>
<path d="M86.5964 86.1233C86.3187 86.1961 86.0096 86.1289 85.7845 85.915C79.3192 79.7667 72.3053 85.9475 72.0085 86.2129C71.6635 86.531 71.1148 86.503 70.7967 86.1513C70.4787 85.7986 70.5056 85.2565 70.8572 84.9385C70.9412 84.8623 79.3461 77.416 86.9682 84.6697C87.312 84.9978 87.3266 85.541 86.9985 85.8848C86.8865 86.0046 86.7454 86.0841 86.5964 86.1233Z" fill="white" stroke="white" stroke-width="10"/>
<path d="M120.023 81.281C119.745 81.355 119.436 81.2866 119.211 81.0727C112.745 74.9233 105.731 81.1041 105.435 81.3706C105.089 81.6887 104.541 81.6607 104.223 81.309C103.905 80.9563 103.932 80.4142 104.284 80.0962C104.369 80.02 112.773 72.5738 120.395 79.8274C120.739 80.1544 120.753 80.6987 120.425 81.0425C120.313 81.1623 120.172 81.2419 120.023 81.281Z" fill="white" stroke="white" stroke-width="10"/>
<path d="M91.6925 130.227C87.3014 129.206 84.3437 127.255 84.2798 127.211C83.8856 126.946 83.7826 126.414 84.048 126.021C84.3134 125.628 84.842 125.517 85.2407 125.788C85.7671 126.143 98.291 134.355 109.817 123.875C110.168 123.552 110.71 123.583 111.03 123.932C111.35 124.284 111.323 124.827 110.972 125.146C104.163 131.338 96.9158 131.441 91.6925 130.227Z" fill="white" stroke="white" stroke-width="10"/>
<path d="M118.181 42.1385C110.535 41.9525 60.8234 47.29 50.9794 57.489C45.1492 63.5298 43.504 72.5115 70.2945 64.3395C85.0045 59.8532 99.8713 61.4479 113.834 71.5965C131.375 84.3467 131.613 76.5532 134.964 75.6932C139.369 75.7391 130.975 90.9385 134.082 93.6363C139.286 98.1529 146.54 92.5287 152.973 95.006C149.954 83.051 154.667 88.8834 156.232 79.063C157.046 73.9539 152.961 72.9471 153.079 71.4397C154.696 50.951 144.239 42.7734 118.181 42.1385Z" fill="white" stroke="white" stroke-width="10"/>
<path d="M145.599 82.6297C145.599 82.6297 154.474 82.9206 155.658 94.0453C156.842 105.169 149.757 114.962 137.809 116.364L136.144 91.1665C135.799 85.934 140.43 81.7531 145.599 82.6297Z" fill="white" stroke="white" stroke-width="10"/>
<path d="M141.034 93.9326C141.034 93.9326 142.873 89.7643 146.073 90.7419C149.274 91.7196 148.287 99.1076 148.287 99.1076" stroke="white" stroke-width="10" stroke-miterlimit="10" stroke-linecap="round"/>
<path d="M52.9107 83.0065C52.9107 83.0065 44.9917 83.9577 44.799 94.0047C44.6064 104.052 51.7113 112.262 62.5105 112.585L62.0372 89.9077C61.9385 85.1995 57.4679 81.8183 52.9107 83.0065Z" fill="white" stroke="white" stroke-width="10"/>
<path d="M54.7756 88.8978C54.7756 88.8978 48.2196 87.3087 49.6979 94.6687C50.2903 97.6152 53.3443 100.398 53.3443 100.398" stroke="white" stroke-width="10" stroke-miterlimit="10" stroke-linecap="round"/>
<path d="M72.1018 63.8146C56.9326 72.5857 62.0405 90.0664 62.1178 93.7856C62.1962 97.5059 56.3682 92.939 55.012 78.6881C53.6558 64.4373 57.2877 60.7091 57.6975 60.3451C58.1085 59.9812 64.3285 56.0895 64.3285 56.0895L72.1018 63.8146Z" fill="white" stroke="white" stroke-width="10"/>
<path d="M153.499 69.0423L142.789 67.816L142.754 67.8205L51.2605 57.4423C51.2605 57.4423 55.2585 12.8744 104.212 19.7137C166.743 28.4299 153.499 69.0423 153.499 69.0423Z" fill="white" stroke="white" stroke-width="10"/>
<path d="M51.2603 57.4401C38.8117 57.5814 28.099 56.1886 20.3361 63.652C12.5753 71.1163 64.421 72.242 80.4758 71.1737C96.5305 70.1055 124.01 65.6909 124.01 65.6909L51.2603 57.4401Z" fill="white" stroke="white" stroke-width="10"/>
<path fill-rule="evenodd" clip-rule="evenodd" d="M108.671 46.7991C108.59 47.4767 108.097 48.1397 107.597 48.535C107.551 48.5708 107.537 48.5742 107.491 48.6055C106.927 48.9762 106.314 49.1677 105.603 49.0826L91.0437 47.3445C90.9945 47.3389 90.9239 47.2213 90.8937 47.1833L89.4456 45.3399C89.4053 45.2884 88.9237 44.7094 88.9305 44.6567L89.5352 39.5948C89.5419 39.5376 90.486 38.8231 90.5498 38.7739C90.6103 38.7257 91.5286 37.9731 91.5858 37.9798L97.2122 38.6518L96.9848 40.55L92.1536 39.9733C92.1076 39.9677 91.3427 40.5702 91.3371 40.6161L90.9228 44.0889C90.9161 44.1371 91.0202 44.2413 91.0516 44.2804C91.1031 44.3454 91.1434 44.3969 91.1938 44.4619C91.2923 44.5884 91.3808 44.7004 91.4805 44.8258C91.5208 44.8785 92.0113 45.5347 92.0651 45.5415L105.765 47.1765C105.912 47.1945 106.047 47.1844 106.16 47.1564C106.249 47.1329 106.381 47.078 106.454 47.0242C106.71 46.8361 106.8 46.639 106.836 46.3332C106.884 45.9267 106.582 45.5258 106.165 45.406C105.984 45.3544 101.109 44.7934 100.613 44.7351C99.947 44.6556 99.3479 44.3734 98.9066 43.9176C98.6501 43.6511 98.4116 43.3128 98.2862 42.9646C98.042 42.2803 98.004 41.6375 98.2716 40.9342C98.3679 40.6777 98.4934 40.4515 98.6513 40.2398C98.7733 40.0741 99.0836 39.7448 99.265 39.6373C99.3064 39.6127 99.3199 39.5981 99.3602 39.5712C99.8596 39.2397 100.543 39.0494 101.152 39.1221L109.468 40.1144L109.242 42.0126L101.104 41.0417C100.817 41.007 100.576 41.0831 100.413 41.2097C99.76 41.7136 100.031 42.7171 100.84 42.8369C101.405 42.9209 102.003 42.9758 102.574 43.0441L106.336 43.4932C106.906 43.5603 107.379 43.8314 107.775 44.1673C108.271 44.5884 108.585 45.2133 108.69 45.8584C108.754 46.2436 108.716 46.4273 108.671 46.7991Z" fill="white" stroke="white" stroke-width="10"/>
<path fill-rule="evenodd" clip-rule="evenodd" d="M77.2163 45.6952L79.0809 45.9181C79.1179 45.9226 79.1313 45.9125 79.1358 45.8744L79.5714 42.2246L85.5047 42.9324C86.1162 43.0052 86.7825 42.8092 87.2876 42.4889C87.3212 42.4677 87.338 42.4497 87.3716 42.4285C87.4657 42.3702 87.534 42.3221 87.618 42.237C87.6505 42.2045 87.665 42.1978 87.6964 42.1686C87.9831 41.9055 88.2384 41.5146 88.3818 41.1529C88.5094 40.8292 88.5722 40.4888 88.5744 40.1047C88.5778 39.2233 88.0973 38.2938 87.3873 37.82C86.6605 37.334 86.2405 37.343 85.4118 37.2433L78.3283 36.3821L77.2163 45.6952ZM85.4722 41.0028L79.8133 40.3275C79.7764 40.323 79.7663 40.3107 79.7708 40.2738L79.9802 38.5211L85.7522 39.2098C86.0266 39.2423 86.2383 39.3689 86.3603 39.5245C86.4354 39.622 86.4768 39.678 86.5216 39.7956C86.6683 40.1819 86.525 40.612 86.1935 40.855C86.1263 40.9043 85.9784 40.9692 85.89 40.9916C85.7825 41.0196 85.61 41.0196 85.4722 41.0028Z" fill="white" stroke="white" stroke-width="10"/>
</g>
<path d="M141.805 106.119C141.667 106.156 141.518 106.158 141.369 106.12C140.911 106.001 140.635 105.533 140.752 105.074C140.857 104.67 143.361 95.1526 148.147 92.7941C149.551 92.102 151.01 92.0673 152.48 92.6933C152.918 92.8781 153.12 93.3832 152.934 93.8199C152.746 94.2567 152.239 94.4594 151.808 94.2735C150.807 93.8479 149.861 93.8658 148.907 94.3351C144.826 96.3453 142.441 105.412 142.416 105.504C142.338 105.814 142.095 106.041 141.805 106.119Z" fill="black"/>
<path d="M57.6778 70.8379C57.6778 70.8379 56.5142 106.338 64.638 127.063C72.7618 147.787 94.5619 151.696 111.333 147.258C129.421 142.472 137.765 134.105 139.895 108.908C142.025 83.7102 131.847 48.5719 131.847 48.5719L57.9208 58.4562L57.6778 70.8379Z" fill="#F8A38E"/>
<path d="M84.3806 99.6989C84.9731 101.938 83.638 104.234 81.3991 104.826C79.1602 105.419 76.8641 104.084 76.2716 101.845C75.6791 99.6059 77.0142 97.3099 79.2531 96.7174C81.492 96.1249 83.7881 97.46 84.3806 99.6989Z" fill="black"/>
<path d="M115.397 101.387C115.357 101.398 115.313 101.406 115.272 101.41L106.521 102.391C106.224 102.425 105.933 102.302 105.749 102.068C105.566 101.833 105.515 101.52 105.619 101.241C108.543 93.2843 118.886 94.7122 118.989 94.7267C119.457 94.7951 119.782 95.2307 119.713 95.6999C119.645 96.1703 119.205 96.4951 118.739 96.4268C118.394 96.3764 110.885 95.3572 107.854 100.512L115.08 99.7025C115.552 99.6499 115.977 99.9892 116.029 100.461C116.078 100.89 115.802 101.28 115.397 101.387Z" fill="black"/>
<path d="M99.2767 118.123C99.2543 118.129 99.2308 118.132 99.2084 118.132L92.3534 118.277C92.1753 118.281 91.9827 118.128 91.8461 117.874C91.7094 117.618 91.6501 117.302 91.6882 117.04L94.1688 100.366C94.2304 99.9561 94.5103 99.806 94.7914 100.023C95.0748 100.243 95.2551 100.752 95.1957 101.16L92.9021 116.579L98.9037 116.452C99.1815 116.447 99.4738 116.819 99.5578 117.282C99.635 117.707 99.5107 118.062 99.2767 118.123Z" fill="black"/>
<path d="M86.5964 86.1233C86.3187 86.1961 86.0096 86.1289 85.7845 85.915C79.3192 79.7667 72.3053 85.9475 72.0085 86.2129C71.6635 86.531 71.1148 86.503 70.7967 86.1513C70.4787 85.7986 70.5056 85.2565 70.8572 84.9385C70.9412 84.8623 79.3461 77.416 86.9682 84.6697C87.312 84.9978 87.3266 85.541 86.9985 85.8848C86.8865 86.0046 86.7454 86.0841 86.5964 86.1233Z" fill="black"/>
<path d="M120.023 81.281C119.745 81.355 119.436 81.2866 119.211 81.0727C112.745 74.9233 105.731 81.1041 105.435 81.3706C105.089 81.6887 104.541 81.6607 104.223 81.309C103.905 80.9563 103.932 80.4142 104.284 80.0962C104.369 80.02 112.773 72.5738 120.395 79.8274C120.739 80.1544 120.753 80.6987 120.425 81.0425C120.313 81.1623 120.172 81.2419 120.023 81.281Z" fill="black"/>
<path d="M91.6925 130.227C87.3014 129.206 84.3437 127.255 84.2798 127.211C83.8856 126.946 83.7826 126.414 84.048 126.021C84.3134 125.628 84.842 125.517 85.2407 125.788C85.7671 126.143 98.291 134.355 109.817 123.875C110.168 123.552 110.71 123.583 111.03 123.932C111.35 124.284 111.323 124.827 110.972 125.146C104.163 131.338 96.9158 131.441 91.6925 130.227Z" fill="black"/>
<path d="M118.181 42.1385C110.535 41.9525 60.8234 47.29 50.9794 57.489C45.1492 63.5298 43.504 72.5115 70.2945 64.3395C85.0045 59.8532 99.8713 61.4479 113.834 71.5965C131.375 84.3467 131.613 76.5532 134.964 75.6932C139.369 75.7391 130.975 90.9385 134.082 93.6363C139.286 98.1529 146.54 92.5287 152.973 95.006C149.954 83.051 154.667 88.8834 156.232 79.063C157.046 73.9539 152.961 72.9471 153.079 71.4397C154.696 50.951 144.239 42.7734 118.181 42.1385Z" fill="#010101"/>
<path d="M145.599 82.6297C145.599 82.6297 154.474 82.9206 155.658 94.0453C156.842 105.169 149.757 114.962 137.809 116.364L136.144 91.1665C135.799 85.934 140.43 81.7531 145.599 82.6297Z" fill="#F8A38E"/>
<path d="M141.034 93.9326C141.034 93.9326 142.873 89.7643 146.073 90.7419C149.274 91.7196 148.287 99.1076 148.287 99.1076" stroke="black" stroke-width="0.25" stroke-miterlimit="10" stroke-linecap="round"/>
<path d="M52.9107 83.0065C52.9107 83.0065 44.9917 83.9577 44.799 94.0047C44.6064 104.052 51.7113 112.262 62.5105 112.585L62.0372 89.9077C61.9385 85.1995 57.4679 81.8183 52.9107 83.0065Z" fill="#F8A38E"/>
<path d="M54.7756 88.8978C54.7756 88.8978 48.2196 87.3087 49.6979 94.6687C50.2903 97.6152 53.3443 100.398 53.3443 100.398" stroke="black" stroke-width="0.25" stroke-miterlimit="10" stroke-linecap="round"/>
<path d="M72.1018 63.8146C56.9326 72.5857 62.0405 90.0664 62.1178 93.7856C62.1962 97.5059 56.3682 92.939 55.012 78.6881C53.6558 64.4373 57.2877 60.7091 57.6975 60.3451C58.1085 59.9812 64.3285 56.0895 64.3285 56.0895L72.1018 63.8146Z" fill="#010101"/>
<path d="M153.499 69.0423L142.789 67.816L142.754 67.8205L51.2605 57.4423C51.2605 57.4423 55.2585 12.8744 104.212 19.7137C166.743 28.4299 153.499 69.0423 153.499 69.0423Z" fill="#E11907"/>
<path d="M51.2603 57.4401C38.8117 57.5814 28.099 56.1886 20.3361 63.652C12.5753 71.1163 64.421 72.242 80.4758 71.1737C96.5305 70.1055 124.01 65.6909 124.01 65.6909L51.2603 57.4401Z" fill="#C6150C"/>
<path fill-rule="evenodd" clip-rule="evenodd" d="M108.671 46.7991C108.59 47.4767 108.097 48.1397 107.597 48.535C107.551 48.5708 107.537 48.5742 107.491 48.6055C106.927 48.9762 106.314 49.1677 105.603 49.0826L91.0437 47.3445C90.9945 47.3389 90.9239 47.2213 90.8937 47.1833L89.4456 45.3399C89.4053 45.2884 88.9237 44.7094 88.9305 44.6567L89.5352 39.5948C89.5419 39.5376 90.486 38.8231 90.5498 38.7739C90.6103 38.7257 91.5286 37.9731 91.5858 37.9798L97.2122 38.6518L96.9848 40.55L92.1536 39.9733C92.1076 39.9677 91.3427 40.5702 91.3371 40.6161L90.9228 44.0889C90.9161 44.1371 91.0202 44.2413 91.0516 44.2804C91.1031 44.3454 91.1434 44.3969 91.1938 44.4619C91.2923 44.5884 91.3808 44.7004 91.4805 44.8258C91.5208 44.8785 92.0113 45.5347 92.0651 45.5415L105.765 47.1765C105.912 47.1945 106.047 47.1844 106.16 47.1564C106.249 47.1329 106.381 47.078 106.454 47.0242C106.71 46.8361 106.8 46.639 106.836 46.3332C106.884 45.9267 106.582 45.5258 106.165 45.406C105.984 45.3544 101.109 44.7934 100.613 44.7351C99.947 44.6556 99.3479 44.3734 98.9066 43.9176C98.6501 43.6511 98.4116 43.3128 98.2862 42.9646C98.042 42.2803 98.004 41.6375 98.2716 40.9342C98.3679 40.6777 98.4934 40.4515 98.6513 40.2398C98.7733 40.0741 99.0836 39.7448 99.265 39.6373C99.3064 39.6127 99.3199 39.5981 99.3602 39.5712C99.8596 39.2397 100.543 39.0494 101.152 39.1221L109.468 40.1144L109.242 42.0126L101.104 41.0417C100.817 41.007 100.576 41.0831 100.413 41.2097C99.76 41.7136 100.031 42.7171 100.84 42.8369C101.405 42.9209 102.003 42.9758 102.574 43.0441L106.336 43.4932C106.906 43.5603 107.379 43.8314 107.775 44.1673C108.271 44.5884 108.585 45.2133 108.69 45.8584C108.754 46.2436 108.716 46.4273 108.671 46.7991Z" fill="white"/>
<path fill-rule="evenodd" clip-rule="evenodd" d="M77.2163 45.6952L79.0809 45.9181C79.1179 45.9226 79.1313 45.9125 79.1358 45.8744L79.5714 42.2246L85.5047 42.9324C86.1162 43.0052 86.7825 42.8092 87.2876 42.4889C87.3212 42.4677 87.338 42.4497 87.3716 42.4285C87.4657 42.3702 87.534 42.3221 87.618 42.237C87.6505 42.2045 87.665 42.1978 87.6964 42.1686C87.9831 41.9055 88.2384 41.5146 88.3818 41.1529C88.5094 40.8292 88.5722 40.4888 88.5744 40.1047C88.5778 39.2233 88.0973 38.2938 87.3873 37.82C86.6605 37.334 86.2405 37.343 85.4118 37.2433L78.3283 36.3821L77.2163 45.6952ZM85.4722 41.0028L79.8133 40.3275C79.7764 40.323 79.7663 40.3107 79.7708 40.2738L79.9802 38.5211L85.7522 39.2098C86.0266 39.2423 86.2383 39.3689 86.3603 39.5245C86.4354 39.622 86.4768 39.678 86.5216 39.7956C86.6683 40.1819 86.525 40.612 86.1935 40.855C86.1263 40.9043 85.9784 40.9692 85.89 40.9916C85.7825 41.0196 85.61 41.0196 85.4722 41.0028Z" fill="white"/>
<g filter="url(#filter1_dd_190_3864)">
<path d="M171.585 80.8074C170.519 80.3635 169.542 79.8312 168.353 79.8003C164.75 79.7064 162.663 83.7316 160.758 86.1939C156.627 91.5334 152.517 96.8915 148.346 102.2C145.872 105.347 142.814 110.739 138.034 108.048C138.731 106.484 140.151 105.088 141.201 103.739C143.267 101.082 145.29 98.3925 147.357 95.7358C150.577 91.597 153.754 87.419 156.899 83.2259C158.568 81.0018 160.199 78.44 162.203 76.5059C165.878 72.9588 171.387 76.2014 171.585 80.8074Z" fill="white" stroke="white" stroke-width="10" stroke-linejoin="round"/>
<path d="M153.733 81.1142C149.823 81.2847 147.399 86.1941 145.286 88.9632C142.104 93.1347 138.876 97.2728 135.673 101.429C134.123 103.441 132.723 105.967 130.34 107.074C128.567 107.898 126.396 107.585 124.492 107.585C124.804 106.44 125.86 105.434 126.581 104.507C128.064 102.601 129.519 100.677 131.021 98.7869C135.795 92.7741 139.979 85.8991 145.282 80.347C147.22 78.3184 152.747 77.6035 153.733 81.1142Z" fill="white" stroke="white" stroke-width="10" stroke-linejoin="round"/>
<path d="M146.653 114.664V114.818C147.295 115.155 147.929 115.564 148.654 115.691C152.22 116.316 154.096 112.737 155.953 110.355C159.615 105.654 163.231 100.916 166.868 96.1959C168.788 93.7043 170.686 91.1896 174.202 91.9306C178.19 92.7714 174.806 96.5049 173.378 98.3505C168.886 104.157 164.388 109.963 159.857 115.741C158.78 117.114 157.733 118.51 156.675 119.897C156.324 120.356 155.63 120.957 155.526 121.546C155.441 122.028 156.017 122.482 156.351 122.735C159.075 124.793 161.132 121.65 162.627 119.743C164.664 117.144 166.676 114.519 168.679 111.894C169.774 110.459 170.807 108.739 172.215 107.591C173.767 106.325 176.777 105.716 178.462 107.143C179.569 108.081 178.056 110.311 177.45 111.124C174.897 114.549 172.252 117.92 169.617 121.282C167.501 123.982 165.449 126.732 163.34 129.439C161.825 131.383 160.33 133.343 158.814 135.287C152.8 142.994 145.491 153.355 134.187 150.387C132.002 149.813 129.96 148.926 128.031 147.752C114.781 139.688 116.961 122.896 115.693 109.585C115.566 108.253 115.512 106.915 115.385 105.584C114.885 100.331 113.354 91.8946 120.182 89.8859C120.985 91.2979 121.159 93.0784 121.475 94.6568C121.989 97.2259 122.562 99.7828 123.076 102.352C123.352 103.734 123.441 106.159 124.438 107.228C124.993 107.823 126.217 107.585 126.954 107.585C130.021 107.585 131.845 106.307 133.668 103.891C137.567 98.7225 141.619 93.6691 145.518 88.5008C147.964 85.2591 149.783 81.9706 153.887 80.9596C156.186 84.9005 153.632 87.7187 151.252 90.8093C146.87 96.5006 141.994 102.056 138.035 108.046C141.037 109.271 143.403 108.427 145.368 105.892C149.545 100.504 153.771 95.1515 157.906 89.732C160.006 86.9792 162.054 83.4396 164.666 81.1636C166.262 79.7726 172.434 78.7051 171.312 82.3447C170.874 83.7661 169.835 84.8805 168.951 86.0384C167.169 88.3744 165.299 90.644 163.494 92.9639C161.229 95.8757 159.011 98.8245 156.746 101.736C154.442 104.698 152.204 107.712 149.885 110.663C148.852 111.977 147.914 113.563 146.653 114.664Z" fill="white"/>
<path d="M146.961 79.1128L146.807 79.2667M171.585 79.8823L171.431 80.0362M159.119 80.4979L158.965 80.6518L158.812 80.8057M146.653 114.664V114.818C147.295 115.155 147.929 115.564 148.654 115.691C152.22 116.316 154.096 112.737 155.953 110.355C159.615 105.654 163.231 100.916 166.868 96.1959C168.788 93.7043 170.686 91.1896 174.202 91.9306C178.19 92.7714 174.806 96.5049 173.378 98.3505C168.886 104.157 164.388 109.963 159.857 115.741C158.78 117.114 157.733 118.51 156.675 119.897C156.324 120.356 155.63 120.957 155.526 121.546C155.441 122.028 156.017 122.482 156.351 122.735C159.075 124.793 161.132 121.65 162.627 119.743C164.664 117.144 166.676 114.519 168.679 111.894C169.774 110.459 170.807 108.739 172.215 107.591C173.767 106.325 176.777 105.716 178.462 107.143C179.569 108.081 178.056 110.311 177.45 111.124C174.897 114.549 172.252 117.92 169.617 121.282C167.501 123.982 165.449 126.732 163.34 129.439C161.825 131.383 160.33 133.343 158.814 135.287C152.8 142.994 145.491 153.355 134.187 150.387C132.002 149.813 129.96 148.926 128.031 147.752C114.781 139.688 116.961 122.896 115.693 109.585C115.566 108.253 115.512 106.915 115.385 105.584C114.885 100.331 113.354 91.8946 120.182 89.8859C120.985 91.2979 121.159 93.0784 121.475 94.6568C121.989 97.2259 122.562 99.7828 123.076 102.352C123.352 103.734 123.441 106.159 124.438 107.228C124.993 107.823 126.217 107.585 126.954 107.585C130.021 107.585 131.845 106.307 133.668 103.891C137.567 98.7225 141.619 93.6691 145.518 88.5008C147.964 85.2591 149.783 81.9706 153.887 80.9596C156.186 84.9005 153.632 87.7187 151.252 90.8093C146.87 96.5006 141.994 102.056 138.035 108.046C141.037 109.271 143.403 108.427 145.368 105.892C149.545 100.504 153.771 95.1515 157.906 89.732C160.006 86.9792 162.054 83.4396 164.666 81.1636C166.262 79.7726 172.434 78.7051 171.312 82.3447C170.874 83.7661 169.835 84.8805 168.951 86.0384C167.169 88.3744 165.299 90.644 163.494 92.9639C161.229 95.8757 159.011 98.8245 156.746 101.736C154.442 104.698 152.204 107.712 149.885 110.663C148.852 111.977 147.914 113.563 146.653 114.664Z" stroke="white" stroke-width="10" stroke-linejoin="round"/>
<path d="M176.2 92.6586C174.543 92.1849 173.188 91.4628 171.429 92.059C169.004 92.8813 167.63 95.3531 166.143 97.2756C162.935 101.422 159.754 105.589 156.554 109.742C154.188 112.813 151.094 117.981 146.651 114.82C147.663 113.061 149.132 111.508 150.362 109.896C153.031 106.398 155.716 102.915 158.401 99.4303L164.095 92.043C165.059 90.7924 165.959 89.3048 167.146 88.2538C170.761 85.0531 176.086 88.2903 176.2 92.6586Z" fill="white" stroke="white" stroke-width="10" stroke-linejoin="round"/>
<path d="M139.728 87.5791L139.575 87.733M167.892 87.733L167.738 87.8869" stroke="white" stroke-width="10" stroke-linejoin="round"/>
<path d="M120.027 89.7332V89.8871C118.142 91.0414 116.553 92.2797 115.612 94.3503C114.54 96.7113 114.919 98.9475 115.089 101.43C115.317 104.766 115.529 108.104 115.846 111.433C116.972 123.255 115.292 137.053 125.26 145.619C126.839 146.976 128.609 148.13 130.493 149.019C132.67 150.047 135.167 150.796 137.572 150.986C136.109 151.6 133.42 151.205 131.878 150.948C126.261 150.012 121.284 147.252 117.63 142.849C111.069 134.945 111.907 123.413 111.241 113.742C110.881 108.508 109.809 102.977 110.03 97.7361C110.221 93.2116 115.041 87.222 120.027 89.7332Z" fill="white" stroke="white" stroke-width="10" stroke-linejoin="round"/>
<path d="M133.57 95.5835L133.409 95.7451" stroke="white" stroke-width="10" stroke-linejoin="round"/>
<path d="M110.329 100.661L110.167 100.822" stroke="white" stroke-width="10" stroke-linejoin="round"/>
<path d="M178.821 107.28C177.607 106.846 176.467 106.212 175.127 106.403C172.695 106.75 171.39 108.55 169.983 110.358C167.835 113.12 165.69 115.887 163.567 118.669C162.254 120.39 160.785 123.308 158.352 123.424C157.412 123.468 155.17 122.733 155.492 121.439C155.907 119.775 158.215 117.728 159.258 116.36C161.537 113.373 163.88 110.434 166.144 107.434C167.368 105.811 168.655 103.564 170.37 102.427C174.117 99.9442 178.81 103.089 178.821 107.28Z" fill="white" stroke="white" stroke-width="10" stroke-linejoin="round"/>
</g>
<path d="M172.552 118.118L172.398 118.272M171.474 119.503L171.321 119.657M171.013 120.119L170.859 120.273" stroke="white" stroke-width="3" stroke-linejoin="round"/>
<path d="M169.938 121.501L169.785 121.655M112.379 123.348L112.225 123.502M168.399 123.502L168.246 123.656" stroke="white" stroke-width="3" stroke-linejoin="round"/>
<path d="M171.585 80.8074C170.519 80.3635 169.542 79.8312 168.353 79.8003C164.75 79.7064 162.663 83.7316 160.758 86.1939C156.627 91.5334 152.517 96.8915 148.346 102.2C145.872 105.347 142.814 110.739 138.034 108.048C138.731 106.484 140.151 105.088 141.201 103.739C143.267 101.082 145.29 98.3925 147.357 95.7358C150.577 91.597 153.754 87.419 156.899 83.2259C158.568 81.0018 160.199 78.44 162.203 76.5059C165.878 72.9588 171.387 76.2014 171.585 80.8074Z" fill="#EA8D76"/>
<path d="M153.733 81.1142C149.823 81.2847 147.399 86.1941 145.286 88.9632C142.104 93.1347 138.876 97.2728 135.673 101.429C134.123 103.441 132.723 105.967 130.34 107.074C128.567 107.898 126.396 107.585 124.492 107.585C124.804 106.44 125.86 105.434 126.581 104.507C128.064 102.601 129.519 100.677 131.021 98.7869C135.795 92.7741 139.979 85.8991 145.282 80.347C147.22 78.3184 152.747 77.6035 153.733 81.1142Z" fill="#EA8D76"/>
<path d="M146.653 114.664V114.818C147.295 115.155 147.929 115.564 148.654 115.691C152.22 116.316 154.096 112.737 155.953 110.355C159.615 105.654 163.231 100.916 166.868 96.1959C168.788 93.7043 170.686 91.1896 174.202 91.9306C178.19 92.7714 174.806 96.5049 173.378 98.3505C168.886 104.157 164.388 109.963 159.857 115.741C158.78 117.114 157.733 118.51 156.675 119.897C156.324 120.356 155.63 120.957 155.526 121.546C155.441 122.028 156.017 122.482 156.351 122.735C159.075 124.793 161.132 121.65 162.627 119.743C164.664 117.144 166.676 114.519 168.679 111.894C169.774 110.459 170.807 108.739 172.215 107.591C173.767 106.325 176.777 105.716 178.462 107.143C179.569 108.081 178.056 110.311 177.45 111.124C174.897 114.549 172.252 117.92 169.617 121.282C167.501 123.982 165.449 126.732 163.34 129.439C161.825 131.383 160.33 133.343 158.814 135.287C152.8 142.994 145.491 153.355 134.187 150.387C132.002 149.813 129.96 148.926 128.031 147.752C114.781 139.688 116.961 122.896 115.693 109.585C115.566 108.253 115.512 106.915 115.385 105.584C114.885 100.331 113.354 91.8946 120.182 89.8859C120.985 91.2979 121.159 93.0784 121.475 94.6568C121.989 97.2259 122.562 99.7828 123.076 102.352C123.352 103.734 123.441 106.159 124.438 107.228C124.993 107.823 126.217 107.585 126.954 107.585C130.021 107.585 131.845 106.307 133.668 103.891C137.567 98.7225 141.619 93.6691 145.518 88.5008C147.964 85.2591 149.783 81.9706 153.887 80.9596C156.186 84.9005 153.632 87.7187 151.252 90.8093C146.87 96.5006 141.994 102.056 138.035 108.046C141.037 109.271 143.403 108.427 145.368 105.892C149.545 100.504 153.771 95.1515 157.906 89.732C160.006 86.9792 162.054 83.4396 164.666 81.1636C166.262 79.7726 172.434 78.7051 171.312 82.3447C170.874 83.7661 169.835 84.8805 168.951 86.0384C167.169 88.3744 165.299 90.644 163.494 92.9639C161.229 95.8757 159.011 98.8245 156.746 101.736C154.442 104.698 152.204 107.712 149.885 110.663C148.852 111.977 147.914 113.563 146.653 114.664Z" fill="#F8A38E"/>
<path d="M176.2 92.6586C174.543 92.1849 173.188 91.4628 171.429 92.059C169.004 92.8813 167.63 95.3531 166.143 97.2756C162.935 101.422 159.754 105.589 156.554 109.742C154.188 112.813 151.094 117.981 146.651 114.82C147.663 113.061 149.132 111.508 150.362 109.896C153.031 106.398 155.716 102.915 158.401 99.4303L164.095 92.043C165.059 90.7924 165.959 89.3048 167.146 88.2538C170.761 85.0531 176.086 88.2903 176.2 92.6586Z" fill="#EA8D76"/>
<path d="M120.027 89.7332V89.8871C118.142 91.0414 116.553 92.2797 115.612 94.3503C114.54 96.7113 114.919 98.9475 115.089 101.43C115.317 104.766 115.529 108.104 115.846 111.433C116.972 123.255 115.292 137.053 125.26 145.619C126.839 146.976 128.609 148.13 130.493 149.019C132.67 150.047 135.167 150.796 137.572 150.986C136.109 151.6 133.42 151.205 131.878 150.948C126.261 150.012 121.284 147.252 117.63 142.849C111.069 134.945 111.907 123.413 111.241 113.742C110.881 108.508 109.809 102.977 110.03 97.7361C110.221 93.2116 115.041 87.222 120.027 89.7332Z" fill="#EA8D76"/>
<path d="M178.821 107.28C177.607 106.846 176.467 106.212 175.127 106.403C172.695 106.75 171.39 108.55 169.983 110.358C167.835 113.12 165.69 115.887 163.567 118.669C162.254 120.39 160.785 123.308 158.352 123.424C157.412 123.468 155.17 122.733 155.492 121.439C155.907 119.775 158.215 117.728 159.258 116.36C161.537 113.373 163.88 110.434 166.144 107.434C167.368 105.811 168.655 103.564 170.37 102.427C174.117 99.9442 178.81 103.089 178.821 107.28Z" fill="#EA8D76"/>
<defs>
<filter id="filter0_dd_190_3864" x="0.548706" y="0.000213623" width="174.79" height="167.871" filterUnits="userSpaceOnUse" color-interpolation-filters="sRGB">
<feFlood flood-opacity="0" result="BackgroundImageFix"/>
<feColorMatrix in="SourceAlpha" type="matrix" values="0 0 0 0 0 0 0 0 0 0 0 0 0 0 0 0 0 0 127 0" result="hardAlpha"/>
<feOffset dx="4" dy="4"/>
<feGaussianBlur stdDeviation="5"/>
<feComposite in2="hardAlpha" operator="out"/>
<feColorMatrix type="matrix" values="0 0 0 0 0.101961 0 0 0 0 0.101961 0 0 0 0 0.101961 0 0 0 0.1 0"/>
<feBlend mode="normal" in2="BackgroundImageFix" result="effect1_dropShadow_190_3864"/>
<feColorMatrix in="SourceAlpha" type="matrix" values="0 0 0 0 0 0 0 0 0 0 0 0 0 0 0 0 0 0 127 0" result="hardAlpha"/>
<feOffset dx="-4" dy="-4"/>
<feGaussianBlur stdDeviation="5"/>
<feComposite in2="hardAlpha" operator="out"/>
<feColorMatrix type="matrix" values="0 0 0 0 0.101961 0 0 0 0 0.101961 0 0 0 0 0.101961 0 0 0 0.1 0"/>
<feBlend mode="normal" in2="effect1_dropShadow_190_3864" result="effect2_dropShadow_190_3864"/>
<feBlend mode="normal" in="SourceGraphic" in2="effect2_dropShadow_190_3864" result="shape"/>
</filter>
<filter id="filter1_dd_190_3864" x="91.0001" y="56.0027" width="106.856" height="114.31" filterUnits="userSpaceOnUse" color-interpolation-filters="sRGB">
<feFlood flood-opacity="0" result="BackgroundImageFix"/>
<feColorMatrix in="SourceAlpha" type="matrix" values="0 0 0 0 0 0 0 0 0 0 0 0 0 0 0 0 0 0 127 0" result="hardAlpha"/>
<feOffset dx="4" dy="4"/>
<feGaussianBlur stdDeviation="5"/>
<feComposite in2="hardAlpha" operator="out"/>
<feColorMatrix type="matrix" values="0 0 0 0 0.101961 0 0 0 0 0.101961 0 0 0 0 0.101961 0 0 0 0.1 0"/>
<feBlend mode="normal" in2="BackgroundImageFix" result="effect1_dropShadow_190_3864"/>
<feColorMatrix in="SourceAlpha" type="matrix" values="0 0 0 0 0 0 0 0 0 0 0 0 0 0 0 0 0 0 127 0" result="hardAlpha"/>
<feOffset dx="-4" dy="-4"/>
<feGaussianBlur stdDeviation="5"/>
<feComposite in2="hardAlpha" operator="out"/>
<feColorMatrix type="matrix" values="0 0 0 0 0.101961 0 0 0 0 0.101961 0 0 0 0 0.101961 0 0 0 0.1 0"/>
<feBlend mode="normal" in2="effect1_dropShadow_190_3864" result="effect2_dropShadow_190_3864"/>
<feBlend mode="normal" in="SourceGraphic" in2="effect2_dropShadow_190_3864" result="shape"/>
</filter>
</defs>
</svg>
