<svg width="24" height="24" viewBox="0 0 24 24" fill="none" xmlns="http://www.w3.org/2000/svg">
<g clip-path="url(#clip0_366_2172)">
<path fill-rule="evenodd" clip-rule="evenodd" d="M4.87868 2.87868C4.31607 3.44129 4 4.20435 4 5V19C4 19.7956 4.31607 20.5587 4.87868 21.1213C5.44129 21.6839 6.20435 22 7 22H19C19.1721 21.9999 19.3413 21.9555 19.4912 21.8709C19.6411 21.7863 19.7666 21.6644 19.8556 21.5171C19.9446 21.3697 19.9941 21.2019 19.9992 21.0299C20.0044 20.8578 19.965 20.6874 19.885 20.535L19.342 19.447C19.2725 19.3081 19.2363 19.1549 19.2363 18.9995C19.2363 18.8441 19.2725 18.6909 19.342 18.552L19.887 17.462C19.962 17.312 20 17.158 20 16.99V4C20 3.46957 19.7893 2.96086 19.4142 2.58579C19.0391 2.21071 18.5304 2 18 2H7C6.20435 2 5.44129 2.31607 4.87868 2.87868ZM17.408 18H7C6.73478 18 6.48043 18.1054 6.29289 18.2929C6.10536 18.4804 6 18.7348 6 19C6 19.2652 6.10536 19.5196 6.29289 19.7071C6.48043 19.8946 6.73478 20 7 20H17.408C17.1792 19.353 17.1792 18.647 17.408 18ZM9.32784 6.00001C9.38521 6.0005 9.44142 6.01584 9.49076 6.04447L15.8408 9.72651C15.8893 9.75467 15.9295 9.79469 15.9574 9.84264C15.9853 9.89059 16 9.94482 16 10C16 10.0552 15.9853 10.1094 15.9574 10.1574C15.9295 10.2053 15.8893 10.2453 15.8408 10.2735L9.49076 13.9555C9.44142 13.9842 9.38521 13.9995 9.32784 14C9.27048 14.0005 9.21401 13.9861 9.16416 13.9583C9.11431 13.9305 9.07287 13.8904 9.04404 13.8418C9.0152 13.7933 9.00001 13.7382 9 13.682V6.31796C9.00001 6.26183 9.0152 6.2067 9.04404 6.15817C9.07287 6.10965 9.11431 6.06945 9.16416 6.04168C9.21401 6.0139 9.27048 5.99952 9.32784 6.00001Z" fill="#F28F27"/>
</g>
<defs>
<clipPath id="clip0_366_2172">
<rect width="24" height="24" fill="white"/>
</clipPath>
</defs>
</svg>
