<svg width="24" height="24" viewBox="0 0 24 24" fill="none" xmlns="http://www.w3.org/2000/svg">
<path d="M16.7901 7.21203C16.428 6.8498 16.216 6.36423 16.1965 5.85243C16.177 5.34062 16.3514 4.84031 16.6848 4.45154C16.7124 4.41921 16.7267 4.37765 16.725 4.33519C16.7232 4.29273 16.7054 4.25251 16.6752 4.22259L14.7544 2.29956C14.7226 2.26783 14.6796 2.25 14.6347 2.25C14.5898 2.25 14.5467 2.26783 14.515 2.29956L11.4533 5.36126C11.3403 5.47419 11.2552 5.6119 11.2048 5.76345C11.1545 5.91535 11.0695 6.05344 10.9565 6.16677C10.8436 6.2801 10.7058 6.36556 10.554 6.41635C10.4024 6.46688 10.2645 6.55197 10.1514 6.66489L2.29956 14.515C2.26783 14.5467 2.25 14.5898 2.25 14.6347C2.25 14.6796 2.26783 14.7226 2.29956 14.7544L4.22041 16.6752C4.25033 16.7054 4.29055 16.7232 4.33301 16.725C4.37547 16.7267 4.41703 16.7124 4.44936 16.6848C4.83805 16.351 5.33847 16.1763 5.85045 16.1957C6.36244 16.2152 6.84819 16.4272 7.21048 16.7895C7.57277 17.1518 7.78485 17.6376 7.80426 18.1495C7.82368 18.6615 7.64899 19.162 7.31518 19.5506C7.28761 19.583 7.27327 19.6245 7.27504 19.667C7.27682 19.7094 7.29458 19.7497 7.32476 19.7796L9.24561 21.7004C9.27736 21.7322 9.32042 21.75 9.36531 21.75C9.4102 21.75 9.45326 21.7322 9.48501 21.7004L17.3373 13.8486C17.4502 13.7355 17.5353 13.5976 17.5858 13.446C17.6361 13.2941 17.7211 13.156 17.8341 13.0426C17.947 12.9293 18.0848 12.8439 18.2366 12.7931C18.3881 12.7426 18.5258 12.6575 18.6387 12.5445L21.7004 9.48283C21.7322 9.45108 21.75 9.40802 21.75 9.36313C21.75 9.31824 21.7322 9.27518 21.7004 9.24343L19.7796 7.32258C19.7497 7.2924 19.7094 7.27464 19.667 7.27287C19.6245 7.27109 19.583 7.28543 19.5506 7.31301C19.1624 7.64702 18.6624 7.82218 18.1506 7.80346C17.6388 7.78474 17.1529 7.57351 16.7901 7.21203Z" stroke="#1A1A1A" stroke-width="2" stroke-miterlimit="10"/>
<path d="M11.7604 6.97004L11.0418 6.2514M13.6765 8.8861L13.1973 8.4073M15.5926 10.8026L15.1138 10.3234M17.7485 12.958L17.0298 12.2394" stroke="#1A1A1A" stroke-width="1.5" stroke-miterlimit="10" stroke-linecap="round"/>
</svg>
