<svg width="24" height="24" viewBox="0 0 24 24" fill="none" xmlns="http://www.w3.org/2000/svg">
<path d="M22.2414 8.40925L20.2646 6.43242C20.1051 6.27507 19.8924 6.1832 19.6685 6.17491C19.4447 6.16662 19.2258 6.24251 19.0551 6.38762C18.7916 6.61193 18.4534 6.72905 18.1076 6.71578C17.7618 6.7025 17.4336 6.5598 17.188 6.31595C16.9443 6.07041 16.8017 5.7423 16.7884 5.3966C16.7751 5.05089 16.8921 4.71281 17.1163 4.44931C17.2614 4.27861 17.3373 4.05974 17.329 3.83586C17.3208 3.61197 17.2289 3.39931 17.0715 3.23982L15.0929 1.26074C14.9257 1.09385 14.6991 1.00012 14.4629 1.00012C14.2266 1.00012 14 1.09385 13.8328 1.26074L10.6814 4.41168C10.4869 4.60694 10.3401 4.84459 10.2527 5.10601C10.2357 5.15628 10.2073 5.20194 10.1698 5.23946C10.1323 5.27699 10.0866 5.30536 10.0364 5.32238C9.77483 5.40978 9.53715 5.55668 9.34202 5.75152L1.26087 13.8327C1.09398 13.9999 1.00024 14.2265 1.00024 14.4627C1.00024 14.699 1.09398 14.9256 1.26087 15.0928L3.23994 17.0696C3.39944 17.227 3.61209 17.3188 3.83598 17.3271C4.05987 17.3354 4.27874 17.2595 4.44943 17.1144C4.71233 16.8883 5.05097 16.7699 5.39749 16.7829C5.74402 16.7959 6.07282 16.9394 6.31803 17.1846C6.56323 17.4298 6.70671 17.7586 6.71972 18.1051C6.73273 18.4516 6.61431 18.7903 6.38819 19.0532C6.24308 19.2239 6.16718 19.4427 6.17548 19.6666C6.18377 19.8905 6.27564 20.1032 6.43299 20.2627L8.40982 22.2395C8.57703 22.4064 8.80363 22.5001 9.03988 22.5001C9.27612 22.5001 9.50272 22.4064 9.66993 22.2395L17.7511 14.1583C17.9458 13.9633 18.0927 13.7258 18.1802 13.4645C18.1972 13.414 18.2256 13.3682 18.2632 13.3306C18.3008 13.293 18.3466 13.2646 18.397 13.2476C18.6583 13.1602 18.8958 13.0135 19.0909 12.8189L22.2419 9.66757C22.4081 9.50037 22.5015 9.27413 22.5014 9.03832C22.5013 8.80251 22.4078 8.57633 22.2414 8.40925ZM12.0114 7.08106C11.9448 7.14763 11.8658 7.20044 11.7789 7.23647C11.6919 7.2725 11.5987 7.29104 11.5045 7.29104C11.4104 7.29104 11.3172 7.2725 11.2302 7.23647C11.1433 7.20044 11.0642 7.14763 10.9977 7.08106L10.4821 6.56546C10.3509 6.43037 10.2782 6.2491 10.2796 6.06083C10.281 5.87256 10.3565 5.69241 10.4896 5.55931C10.6228 5.42621 10.803 5.35085 10.9913 5.34951C11.1795 5.34818 11.3608 5.42098 11.4958 5.55218L12.0114 6.06733C12.078 6.13389 12.1308 6.21291 12.1668 6.29988C12.2028 6.38684 12.2214 6.48006 12.2214 6.57419C12.2214 6.66833 12.2028 6.76155 12.1668 6.84851C12.1308 6.93548 12.078 7.0145 12.0114 7.08106ZM13.9824 9.05207C13.848 9.18639 13.6658 9.26183 13.4758 9.26183C13.2858 9.26183 13.1035 9.18639 12.9691 9.05207L12.4764 8.55932C12.4098 8.49276 12.357 8.41374 12.321 8.32677C12.285 8.2398 12.2664 8.14659 12.2664 8.05246C12.2664 7.95832 12.285 7.86511 12.321 7.77814C12.357 7.69117 12.4098 7.61215 12.4764 7.54559C12.6108 7.41116 12.7931 7.33564 12.9832 7.33564C13.0774 7.33564 13.1706 7.35418 13.2576 7.39021C13.3445 7.42623 13.4235 7.47903 13.4901 7.54559L13.9829 8.03834C14.0497 8.1049 14.1027 8.18398 14.1389 8.27105C14.1751 8.35813 14.1937 8.45149 14.1937 8.54579C14.1938 8.64008 14.1752 8.73346 14.1391 8.82057C14.103 8.90768 14.0501 8.98681 13.9833 9.05342L13.9824 9.05207ZM15.9534 11.0231C15.8869 11.0897 15.8079 11.1425 15.7209 11.1785C15.6339 11.2145 15.5407 11.2331 15.4466 11.2331C15.3524 11.2331 15.2592 11.2145 15.1722 11.1785C15.0853 11.1425 15.0063 11.0897 14.9397 11.0231L14.4469 10.5303C14.3158 10.3952 14.2431 10.214 14.2445 10.0257C14.2459 9.83744 14.3214 9.65728 14.4545 9.52418C14.5877 9.39108 14.7679 9.31572 14.9561 9.31439C15.1444 9.31305 15.3256 9.38585 15.4607 9.51705L15.9534 10.0098C16.0204 10.0762 16.0736 10.1553 16.11 10.2423C16.1464 10.3294 16.1652 10.4228 16.1654 10.5171C16.1656 10.6115 16.1472 10.7049 16.1112 10.7921C16.0752 10.8793 16.0224 10.9586 15.9557 11.0253L15.9534 11.0231ZM17.9437 13.0183C17.8771 13.0849 17.7981 13.1377 17.7112 13.1737C17.6242 13.2097 17.531 13.2283 17.4368 13.2283C17.3427 13.2283 17.2495 13.2097 17.1625 13.1737C17.0756 13.1377 16.9965 13.0849 16.93 13.0183L16.4175 12.5031C16.3495 12.4368 16.2954 12.3576 16.2584 12.2701C16.2213 12.1827 16.2019 12.0887 16.2015 11.9937C16.201 11.8987 16.2195 11.8046 16.2557 11.7168C16.292 11.629 16.3453 11.5493 16.4126 11.4823C16.48 11.4153 16.56 11.3623 16.6479 11.3265C16.7359 11.2907 16.8301 11.2727 16.9251 11.2736C17.0201 11.2745 17.114 11.2943 17.2012 11.3318C17.2885 11.3693 17.3675 11.4238 17.4335 11.4921L17.9464 12.0068C18.0129 12.0734 18.0657 12.1524 18.1017 12.2394C18.1377 12.3264 18.1562 12.4196 18.1562 12.5138C18.1561 12.6079 18.1375 12.7011 18.1015 12.7881C18.0654 12.875 18.0125 12.954 17.9459 13.0205L17.9437 13.0183Z" fill="#F28F27"/>
</svg>
