<svg width="17" height="10" viewBox="0 0 17 10" fill="none" xmlns="http://www.w3.org/2000/svg">
<path d="M0.57508 8.87817V6.77817H1.48408C1.67208 6.77817 1.83408 6.80917 1.97008 6.87117C2.10608 6.93117 2.21108 7.01817 2.28508 7.13217C2.35908 7.24617 2.39608 7.38217 2.39608 7.54017C2.39608 7.69617 2.35908 7.83117 2.28508 7.94517C2.21108 8.05917 2.10608 8.14717 1.97008 8.20917C1.83408 8.26917 1.67208 8.29917 1.48408 8.29917H0.84508L1.06108 8.08017V8.87817H0.57508ZM1.06108 8.13417L0.84508 7.90317H1.45708C1.60708 7.90317 1.71908 7.87117 1.79308 7.80717C1.86708 7.74317 1.90408 7.65417 1.90408 7.54017C1.90408 7.42417 1.86708 7.33417 1.79308 7.27017C1.71908 7.20617 1.60708 7.17417 1.45708 7.17417H0.84508L1.06108 6.94317V8.13417ZM2.36158 8.87817L3.29758 6.77817H3.77758L4.71658 8.87817H4.20658L3.43858 7.02417H3.63058L2.85958 8.87817H2.36158ZM2.82958 8.42817L2.95858 8.05917H4.03858L4.17058 8.42817H2.82958ZM5.32755 8.87817V8.02017L5.43855 8.31417L4.51455 6.77817H5.03055L5.73855 7.95717H5.44155L6.15255 6.77817H6.62955L5.70555 8.31417L5.81355 8.02017V8.87817H5.32755ZM6.81239 8.87817V6.77817H7.21439L8.10839 8.26017H7.89539L8.77439 6.77817H9.17339L9.17939 8.87817H8.72339L8.72039 7.47717H8.80439L8.10239 8.65617H7.88339L7.16639 7.47717H7.26839V8.87817H6.81239ZM10.1246 7.62417H11.1356V8.00217H10.1246V7.62417ZM10.1606 8.48817H11.3036V8.87817H9.67762V6.77817H11.2646V7.16817H10.1606V8.48817ZM11.6903 8.87817V6.77817H12.0923L13.3313 8.29017H13.1363V6.77817H13.6163V8.87817H13.2173L11.9753 7.36617H12.1703V8.87817H11.6903ZM14.5482 8.87817V7.17417H13.8762V6.77817H15.7062V7.17417H15.0342V8.87817H14.5482Z" fill="#764AF1"/>
<path fill-rule="evenodd" clip-rule="evenodd" d="M13.884 0.633057H15.691V1.56102H15.0753C14.7533 1.17016 14.3469 0.851378 13.884 0.633057Z" fill="#F82C17"/>
<path fill-rule="evenodd" clip-rule="evenodd" d="M15.6912 3.90071C15.6912 4.23189 15.4911 4.57983 15.2731 4.79917C15.2532 4.81928 15.2463 4.82181 15.226 4.83907C14.976 5.05052 14.6913 5.1778 14.3438 5.1778H7.22647C7.20266 5.1778 7.1619 5.12514 7.14513 5.10836L6.34076 4.30333C6.31829 4.28086 6.05334 4.02966 6.05334 4.00383V1.52933C6.05334 1.50115 6.46769 1.10273 6.49518 1.07524C6.52202 1.0484 6.92078 0.633057 6.94895 0.633057H9.69931V1.56102H7.3373C7.31483 1.56102 6.98064 1.89554 6.98064 1.91785V3.61531C6.98064 3.63929 7.03681 3.68339 7.05408 3.70049C7.08242 3.72884 7.10489 3.75148 7.13324 3.77982C7.18807 3.83465 7.23703 3.88361 7.29186 3.93844C7.31466 3.96141 7.58867 4.24984 7.61482 4.24984H14.3121C14.3837 4.24984 14.4485 4.23726 14.5013 4.21713C14.5429 4.2012 14.6036 4.1665 14.6353 4.13681C14.7483 4.03134 14.7796 3.93123 14.7796 3.78183C14.7796 3.58312 14.6114 3.40738 14.403 3.37368C14.3128 3.35909 11.9312 3.36932 11.6887 3.36932C11.3629 3.36932 11.058 3.26804 10.8193 3.07336C10.6799 2.95985 10.5454 2.81077 10.4654 2.65012C10.308 2.33404 10.2528 2.02684 10.3412 1.67202C10.3732 1.5434 10.4205 1.42703 10.4842 1.31553C10.5337 1.22899 10.6643 1.0521 10.7455 0.98989C10.7639 0.975799 10.7695 0.96792 10.7874 0.95266C11.0093 0.763843 11.3273 0.633057 11.6251 0.633057H13.4239C13.4239 0.633057 14.1756 0.814819 14.8563 1.56102H11.7123C11.5723 1.56102 11.4607 1.61165 11.3892 1.68174C11.1037 1.96245 11.2918 2.4303 11.6884 2.44169C11.9661 2.44957 12.2575 2.44136 12.5367 2.44136H14.3755C14.654 2.44136 14.8975 2.54498 15.1078 2.68399C15.3711 2.85805 15.558 3.14144 15.6464 3.44595C15.6994 3.62823 15.6912 3.7186 15.6912 3.90071Z" fill="#F82C17"/>
<path fill-rule="evenodd" clip-rule="evenodd" d="M0.465897 5.17796H1.37737C1.39562 5.17796 1.40114 5.17244 1.40114 5.15417V3.36956H4.302C4.60093 3.36956 4.91026 3.23652 5.13539 3.05347C5.15057 3.04112 5.15746 3.03165 5.17268 3.01942C5.21457 2.98566 5.24493 2.95836 5.28023 2.91289C5.29397 2.89517 5.30051 2.89141 5.31416 2.87546C5.43697 2.73187 5.53804 2.52893 5.58607 2.34649C5.62918 2.18271 5.63967 2.01552 5.61837 1.83015C5.56948 1.40478 5.28458 0.984532 4.91504 0.79698C4.53673 0.604961 4.33501 0.633181 3.92948 0.633181L0.465897 0.625244V5.17796ZM4.17518 2.44156H1.40908C1.39081 2.44156 1.38529 2.43606 1.38529 2.41777V1.56116H4.20687C4.34088 1.56116 4.4504 1.60984 4.5181 1.67805C4.55993 1.72017 4.58299 1.74484 4.61125 1.79896C4.70425 1.9771 4.65983 2.19261 4.51415 2.32868C4.48481 2.3561 4.41724 2.39626 4.37567 2.41219C4.32556 2.43138 4.2423 2.44156 4.17518 2.44156Z" fill="#F82C17"/>
<path fill-rule="evenodd" clip-rule="evenodd" d="M15.691 0.633057V1.56102H13.8607C13.5387 1.17016 13.5342 0.851378 13.0715 0.633057H15.691Z" fill="#F82C17"/>
</svg>
