<svg width="44" height="21" viewBox="0 0 44 21" fill="none" xmlns="http://www.w3.org/2000/svg">
<path fill-rule="evenodd" clip-rule="evenodd" d="M38.217 0.0220337H43.3633V2.66463H41.6099C40.6927 1.55201 39.5351 0.643822 38.217 0.0220337Z" fill="white"/>
<path fill-rule="evenodd" clip-rule="evenodd" d="M43.3627 9.32832C43.3627 10.2715 42.7929 11.2627 42.1721 11.8869C42.1151 11.9444 42.0956 11.9514 42.0381 12.0004C41.3259 12.6027 40.5152 12.9651 39.5255 12.9651H19.2554C19.1874 12.9651 19.0715 12.8151 19.024 12.7671L16.7333 10.4744C16.6693 10.4105 15.9146 9.6952 15.9146 9.62172V2.57413C15.9146 2.49365 17.0946 1.35904 17.1731 1.28107C17.2496 1.20459 18.3852 0.0214964 18.4652 0.0214964H26.298V2.66409H19.5713C19.5073 2.66409 18.5556 3.61677 18.5556 3.68025V8.5146C18.5556 8.58308 18.7156 8.70853 18.7646 8.75702C18.8451 8.83749 18.9095 8.90197 18.99 8.98294C19.1459 9.13889 19.2854 9.27834 19.4418 9.43478C19.5068 9.50026 20.2871 10.3215 20.3615 10.3215H39.4355C39.6395 10.3215 39.8239 10.2855 39.9743 10.2285C40.0928 10.183 40.2657 10.0841 40.3557 9.99959C40.6776 9.6992 40.7671 9.41429 40.7671 8.98844C40.7671 8.42263 40.2882 7.9218 39.6944 7.82583C39.4375 7.78435 32.6548 7.81334 31.9641 7.81334C31.0364 7.81334 30.1682 7.52494 29.4879 6.97063C29.0911 6.64724 28.7082 6.22288 28.4803 5.76504C28.0319 4.86484 27.8745 3.99014 28.1264 2.97949C28.2174 2.61311 28.3523 2.28173 28.5337 1.96433C28.6747 1.71792 29.0466 1.21409 29.278 1.03715C29.3305 0.997164 29.3465 0.974672 29.3975 0.931187C30.0292 0.39337 30.9354 0.0209961 31.7831 0.0209961H36.9059C36.9059 0.0209961 39.0467 0.538821 40.985 2.6636H32.0316C31.6327 2.6636 31.3148 2.80805 31.1114 3.00748C30.2981 3.8067 30.834 5.13925 31.9636 5.17174C32.7543 5.19423 33.5845 5.17074 34.3798 5.17074H39.6165C40.4097 5.17074 41.103 5.46564 41.7018 5.862C42.4515 6.35784 42.9838 7.16456 43.2357 8.03226C43.3862 8.55259 43.3627 8.81 43.3627 9.32832Z" fill="white"/>
<path fill-rule="evenodd" clip-rule="evenodd" d="M10.5649 5.17223H2.68708C2.6351 5.17223 2.61961 5.15674 2.61961 5.10426V2.66459H10.6554C11.0372 2.66459 11.3491 2.80304 11.5416 2.99748C11.6605 3.11744 11.7265 3.18791 11.807 3.34186C12.0719 3.84919 11.9454 4.46298 11.5306 4.85035C11.4471 4.92832 11.2547 5.04278 11.1362 5.08826C10.9933 5.14324 10.7558 5.17223 10.5649 5.17223ZM0.000999873 12.9656H2.59661C2.6486 12.9656 2.66409 12.9501 2.66409 12.8976V7.81533H10.9258C11.777 7.81533 12.6582 7.43646 13.2995 6.91514C13.3429 6.88015 13.3624 6.85316 13.4054 6.81817C13.5249 6.72221 13.6114 6.64423 13.7118 6.51478C13.7508 6.46429 13.7698 6.4538 13.8083 6.40831C14.1582 5.99945 14.4461 5.42115 14.5825 4.90183C14.7055 4.43549 14.735 3.95915 14.6745 3.43133C14.535 2.21974 13.7238 1.02315 12.6712 0.488833C11.5935 -0.0579803 11.0192 0.0224914 9.86414 0.0224914L0 0V12.9656H0.000999873Z" fill="white"/>
<path fill-rule="evenodd" clip-rule="evenodd" d="M43.3628 0.0220337V2.66463H38.1501C37.2334 1.55151 37.2204 0.643822 35.9023 0.0220337H43.3628Z" fill="white"/>
<path d="M4.00327 17.9225C4.00327 18.9731 3.22554 19.6214 1.96997 19.6214H0.891836V20.9999H0.00463867V16.2236H1.96997C3.22504 16.2231 4.00327 16.8649 4.00327 17.9225ZM3.10908 17.9225C3.10908 17.3222 2.70672 16.9738 1.92848 16.9738H0.891336V18.8707H1.92848C2.70672 18.8707 3.10908 18.5228 3.10908 17.9225Z" fill="white"/>
<path d="M9.30496 19.8941H6.91678L6.44594 20.9998H5.53125L7.68052 16.2234H8.55372L10.71 20.9998H9.7818L9.30496 19.8941ZM9.01156 19.1984L8.11087 17.1101L7.21717 19.1984H9.01156Z" fill="white"/>
<path d="M14.6473 19.3143V20.9998H13.7601V19.3278L11.8838 16.2229H12.8325L14.2315 18.5496L15.644 16.2229H16.5172L14.6473 19.3143Z" fill="white"/>
<path d="M22.9715 20.9998L22.9645 17.8333L21.395 20.4534H20.9992L19.4297 17.8743V20.9998H18.5835V16.2234H19.3137L21.2106 19.3898L23.0735 16.2234H23.8037L23.8107 20.9998H22.9715Z" fill="white"/>
<path d="M30.2388 20.256V20.9998H26.6565V16.2234H30.1433V16.9671H27.5437V18.2092H29.8499V18.9395H27.5437V20.2565H30.2388V20.256Z" fill="white"/>
<path d="M37.028 16.2229V20.9993H36.2977L33.6636 17.7649V20.9993H32.7834V16.2229H33.5137L36.1478 19.4573V16.2229H37.028Z" fill="white"/>
<path d="M40.8352 16.9736H39.2522V16.2229H43.3053V16.9736H41.7224V20.9998H40.8352V16.9736Z" fill="white"/>
</svg>
