<svg width="88" height="86" viewBox="0 0 88 86" fill="none" xmlns="http://www.w3.org/2000/svg">
<g filter="url(#filter0_d_293_4828)">
<rect x="2" y="14.1178" width="80" height="65.8824" rx="32.9412" fill="#0B9EED"/>
</g>
<rect x="14" y="11.0001" width="56" height="34" rx="4" fill="white"/>
<g filter="url(#filter1_d_293_4828)">
<path fill-rule="evenodd" clip-rule="evenodd" d="M14 12.2501C14 9.35063 16.2793 7.00012 19.0909 7.00012H64.9091C67.7207 7.00012 70 9.35063 70 12.2501V43.7501C70 46.6496 67.7207 49.0001 64.9091 49.0001H19.0909C16.2793 49.0001 14 46.6496 14 43.7501V12.2501ZM64 40.0002C64 41.657 62.6569 43.0002 61 43.0002C59.3431 43.0002 58 41.657 58 40.0002C58 38.3433 59.3431 37.0002 61 37.0002C62.6569 37.0002 64 38.3433 64 40.0002ZM20 15.0002V24.2095H24.7804C25.9953 24.2095 26.9153 23.9902 27.5404 23.5516C28.1655 23.1043 28.478 22.486 28.478 21.6966C28.478 21.1616 28.3504 20.7099 28.095 20.3415C27.8485 19.9732 27.5008 19.6969 27.0518 19.5127C26.9693 19.4773 26.8845 19.4451 26.7976 19.4161C27.1569 19.2279 27.4441 18.9751 27.6592 18.6576C27.8969 18.298 28.0158 17.877 28.0158 17.3946C28.0158 16.6754 27.7209 16.0965 27.131 15.658C26.55 15.2194 25.6784 15.0002 24.5163 15.0002H20ZM24.622 22.6044H22.1261V20.3284H24.622C25.1766 20.3284 25.5948 20.4249 25.8765 20.6178C26.167 20.802 26.3123 21.0871 26.3123 21.473C26.3123 21.8677 26.167 22.1571 25.8765 22.3413C25.5948 22.5167 25.1766 22.6044 24.622 22.6044ZM22.1261 18.776V16.6052H24.2522C24.7716 16.6052 25.1678 16.6973 25.4407 16.8815C25.7224 17.0569 25.8633 17.3244 25.8633 17.684C25.8633 18.0524 25.7224 18.3287 25.4407 18.5128C25.1678 18.6883 24.7716 18.776 24.2522 18.776H22.1261ZM30.0976 15.0002V24.2095H32.237V21.644H34.0989C34.1327 21.644 34.1662 21.6438 34.1995 21.6434L35.9741 24.2095H38.2851L36.2201 21.2572C36.2262 21.2546 36.2322 21.252 36.2382 21.2493C36.8369 20.9862 37.2991 20.6091 37.6248 20.1179C37.9506 19.618 38.1134 19.0259 38.1134 18.3418C38.1134 17.6489 37.9506 17.0525 37.6248 16.5526C37.2991 16.0526 36.8369 15.6711 36.2382 15.408C35.6396 15.1361 34.9265 15.0002 34.0989 15.0002H30.0976ZM32.237 19.9469H33.9801C34.6404 19.9469 35.1334 19.8065 35.4591 19.5259C35.7849 19.2364 35.9477 18.8417 35.9477 18.3418C35.9477 17.8331 35.7849 17.4384 35.4591 17.1578C35.1334 16.8771 34.6404 16.7368 33.9801 16.7368H32.237V19.9469ZM39.8085 15.0002V24.2095H41.9478V15.0002H39.8085ZM43.5472 22.8281V24.2095H51.629V22.4728H46.3709L51.4309 16.3815V15.0002H43.6528V16.7368H48.6189L43.5472 22.8281ZM52.4068 22.8281V24.2095H60.4886V22.4728H55.2305L60.2905 16.3815V15.0002H52.5124V16.7368H57.4785L52.4068 22.8281ZM61.8607 15.0002V24.2095H64V15.0002H61.8607Z" fill="#38B9FF"/>
</g>
<ellipse cx="42" cy="65.0001" rx="16" ry="1" fill="#0080C4"/>
<defs>
<filter id="filter0_d_293_4828" x="0" y="12.1178" width="88" height="73.8823" filterUnits="userSpaceOnUse" color-interpolation-filters="sRGB">
<feFlood flood-opacity="0" result="BackgroundImageFix"/>
<feColorMatrix in="SourceAlpha" type="matrix" values="0 0 0 0 0 0 0 0 0 0 0 0 0 0 0 0 0 0 127 0" result="hardAlpha"/>
<feOffset dx="2" dy="2"/>
<feGaussianBlur stdDeviation="2"/>
<feComposite in2="hardAlpha" operator="out"/>
<feColorMatrix type="matrix" values="0 0 0 0 0.101961 0 0 0 0 0.101961 0 0 0 0 0.101961 0 0 0 0.08 0"/>
<feBlend mode="normal" in2="BackgroundImageFix" result="effect1_dropShadow_293_4828"/>
<feBlend mode="normal" in="SourceGraphic" in2="effect1_dropShadow_293_4828" result="shape"/>
</filter>
<filter id="filter1_d_293_4828" x="10" y="5.00012" width="64" height="50" filterUnits="userSpaceOnUse" color-interpolation-filters="sRGB">
<feFlood flood-opacity="0" result="BackgroundImageFix"/>
<feColorMatrix in="SourceAlpha" type="matrix" values="0 0 0 0 0 0 0 0 0 0 0 0 0 0 0 0 0 0 127 0" result="hardAlpha"/>
<feOffset dy="2"/>
<feGaussianBlur stdDeviation="2"/>
<feComposite in2="hardAlpha" operator="out"/>
<feColorMatrix type="matrix" values="0 0 0 0 0.101961 0 0 0 0 0.101961 0 0 0 0 0.101961 0 0 0 0.08 0"/>
<feBlend mode="normal" in2="BackgroundImageFix" result="effect1_dropShadow_293_4828"/>
<feBlend mode="normal" in="SourceGraphic" in2="effect1_dropShadow_293_4828" result="shape"/>
</filter>
</defs>
</svg>
