<svg width="88" height="88" viewBox="0 0 88 88" fill="none" xmlns="http://www.w3.org/2000/svg">
<g filter="url(#filter0_d_293_4764)">
<rect x="2" y="16.1177" width="80" height="65.8824" rx="32.9412" fill="#F82C17"/>
</g>
<g filter="url(#filter1_d_293_4764)">
<path d="M24.3046 42.5309C26.8081 52.7809 31.8722 58 41.3715 58C50.8867 58 56.8143 55.158 59.2486 41.9981C61.4536 30.0749 59.7989 12.3396 59.7989 12.3396L25.4727 12.1797C25.4727 12.1797 21.7717 32.1619 24.3046 42.5309Z" fill="#F8A38E"/>
<path d="M23.5113 25.9987C23.5113 25.9987 20.0407 25.9369 19.3586 30.2569C18.6765 34.5763 21.2499 38.5397 25.8862 39.3229L27.0334 29.5184C27.2718 27.4825 25.5466 25.7585 23.5113 25.9987Z" fill="#F8A38E"/>
<path d="M22.6572 33.7759C22.5855 33.7759 22.5138 33.7453 22.4642 33.6852C22.4151 33.6264 21.2599 32.2248 21.1765 30.8526C21.1085 29.739 21.3629 28.965 21.9316 28.5519C22.7865 27.9305 24.0012 28.3981 24.0521 28.4183C24.1814 28.4692 24.2445 28.6151 24.1936 28.7444C24.1428 28.8731 23.9969 28.9368 23.8682 28.8859C23.8523 28.8798 22.8539 28.5011 22.2251 28.9595C21.8053 29.2653 21.6215 29.8922 21.6779 30.822C21.7514 32.0281 22.8392 33.3506 22.8503 33.3635C22.9391 33.4701 22.9244 33.6282 22.8178 33.7171C22.7706 33.7569 22.7136 33.7759 22.6572 33.7759Z" fill="#1A1A1A"/>
<path d="M61.9422 25.9987C61.9422 25.9987 65.4128 25.9369 66.0949 30.2569C66.777 34.5763 64.2036 38.5397 59.5673 39.3229L58.4201 29.5184C58.1817 27.4825 59.9069 25.7585 61.9422 25.9987Z" fill="#F8A38E"/>
<path d="M62.7972 33.7753C62.7409 33.7753 62.6839 33.7563 62.6367 33.7171C62.53 33.6282 62.5159 33.4701 62.6042 33.3635C62.6152 33.3506 63.703 32.0281 63.7766 30.822C63.833 29.8922 63.6491 29.2659 63.2293 28.9595C62.5987 28.4998 61.596 28.8816 61.5862 28.8859C61.4569 28.9362 61.3117 28.8725 61.2608 28.7438C61.2105 28.6151 61.2737 28.4692 61.4024 28.4183C61.4538 28.3981 62.6679 27.9305 63.5229 28.5519C64.0916 28.965 64.3453 29.739 64.2779 30.8526C64.1945 32.2248 63.0393 33.6264 62.9903 33.6852C62.9406 33.7447 62.8696 33.7753 62.7972 33.7753Z" fill="#1A1A1A"/>
<path d="M32.2681 14.9391C24.4872 18.1088 25.765 26.7476 25.5579 28.5194C25.3507 30.2912 22.8821 27.7393 23.1739 20.8814C23.4656 14.0235 25.4353 12.4913 25.6541 12.3455C25.8729 12.1996 29.083 10.7594 29.083 10.7594L32.2681 14.9391Z" fill="#010101"/>
<path d="M53.1855 14.939C60.9664 18.1087 59.6886 26.7469 59.8957 28.5187C60.1029 30.2905 62.5715 27.7385 62.2798 20.8806C61.988 14.0228 60.0183 12.4906 59.7995 12.3447C59.5807 12.1989 56.3706 10.7587 56.3706 10.7587L53.1855 14.939Z" fill="#010101"/>
<path d="M24.8042 21.0474C26.7917 23.5037 26.6263 19.783 37.5376 21.1411C39.7917 21.4218 51.3606 26.6679 56.5374 23.7697C58.262 22.8044 58.2271 19.7646 60.3555 20.4682C62.484 21.1718 60.8562 16.1261 60.8562 16.1261L47.947 12.1787L35.6953 10.1562C35.6953 10.1562 27.4426 13.6024 27.1564 14.0075C26.8702 14.4126 24.8048 17.8875 24.8048 18.2153C24.8048 18.5432 24.8042 21.0474 24.8042 21.0474Z" fill="#010101"/>
<path d="M63.02 21.0286H22.3354C22.3354 11.639 25.0963 2 42.6774 2C59.4581 2.00061 63.02 11.639 63.02 21.0286Z" fill="#E11907"/>
<path d="M22.3357 21.0289C22.3357 21.0289 22.1917 17.6747 27.6695 15.2502C30.7693 13.878 37.3257 12.8043 42.6287 12.8043C47.819 12.8043 54.2099 13.8333 57.3024 15.1632C62.9529 17.5932 63.0197 21.0289 63.0197 21.0289H22.3357Z" fill="#C6150C"/>
<path fill-rule="evenodd" clip-rule="evenodd" d="M48.5308 8.78476C48.5316 9.05384 48.37 9.33695 48.1933 9.51556C48.1771 9.53178 48.1715 9.53379 48.1551 9.54826C47.9523 9.72028 47.7212 9.82455 47.4387 9.8252L41.6567 9.84025C41.6371 9.84041 41.6039 9.79775 41.5902 9.78429L40.9354 9.13187C40.9171 9.11363 40.701 8.90999 40.7011 8.88906L40.696 6.87867C40.6959 6.85599 41.0313 6.53121 41.054 6.50887C41.0753 6.48713 41.3989 6.14867 41.4216 6.14857L43.6561 6.14285L43.6578 6.89677L41.739 6.90178C41.7208 6.90178 41.4502 7.17417 41.4502 7.19241L41.4538 8.57164C41.4535 8.59081 41.4993 8.6266 41.5134 8.64045C41.5367 8.66341 41.5549 8.68165 41.5777 8.70467C41.6224 8.7495 41.6623 8.78912 41.7074 8.83345C41.7256 8.85213 41.949 9.0856 41.9704 9.08566L47.4113 9.07131C47.4695 9.07132 47.5221 9.0609 47.565 9.04454C47.5985 9.03111 47.6477 9.00332 47.6736 8.9788C47.765 8.8929 47.7906 8.81146 47.7901 8.69007C47.7895 8.52864 47.6524 8.38608 47.4832 8.35913C47.4101 8.34758 45.475 8.3608 45.2781 8.3617C45.0134 8.36241 44.7654 8.28055 44.5709 8.12321C44.4578 8.03112 44.3483 7.91012 44.2825 7.77978C44.1543 7.52358 44.1087 7.27377 44.1798 6.98568C44.2053 6.88069 44.2436 6.78614 44.2953 6.69574C44.3352 6.62503 44.4409 6.48133 44.5067 6.43058C44.5218 6.41895 44.5263 6.41261 44.5408 6.40016C44.7205 6.24654 44.9789 6.13939 45.2208 6.13878L48.5237 6.12995L48.5258 6.88382L45.2937 6.89248C45.1798 6.89258 45.0892 6.93389 45.0312 6.99124C44.7997 7.2197 44.9537 7.59955 45.2759 7.60783C45.5013 7.6137 45.7381 7.60661 45.9649 7.60607L47.4589 7.60218C47.6852 7.60126 47.8832 7.68477 48.0544 7.79735C48.2687 7.93849 48.4213 8.16813 48.4934 8.41561C48.5367 8.56336 48.5306 8.63708 48.5308 8.78476Z" fill="white"/>
<path fill-rule="evenodd" clip-rule="evenodd" d="M36.1648 9.85509L36.9054 9.85327C36.9201 9.85325 36.9248 9.84867 36.9248 9.83355L36.921 8.38404L39.2774 8.37769C39.5202 8.37698 39.7717 8.26843 39.9541 8.11892C39.9662 8.10899 39.9719 8.10117 39.9841 8.09124C40.0181 8.06395 40.0426 8.04184 40.0714 8.00451C40.0825 7.99024 40.0879 7.98692 40.0988 7.97402C40.1984 7.85731 40.2797 7.69211 40.3186 7.54367C40.3531 7.41087 40.3614 7.27461 40.3439 7.12414C40.3031 6.77897 40.0706 6.43805 39.7701 6.28653C39.4624 6.13099 39.2984 6.15456 38.9692 6.15512L36.1553 6.15635L36.1648 9.85509ZM39.1725 7.6239L36.925 7.62986C36.9104 7.62987 36.9058 7.62553 36.9058 7.61085L36.9041 6.91477L39.1964 6.90867C39.3054 6.90828 39.3943 6.9477 39.4495 7.00281C39.4835 7.03736 39.5024 7.0573 39.5256 7.1012C39.6015 7.24543 39.5659 7.42062 39.4477 7.53158C39.4238 7.55408 39.369 7.58657 39.3355 7.59956C39.2947 7.61566 39.2272 7.6239 39.1725 7.6239Z" fill="white"/>
<path d="M42.4016 40.3328C42.3802 40.3328 42.3581 40.3309 42.336 40.3279L40.2934 40.0141C40.1733 39.9957 40.0666 39.927 39.9998 39.8253C39.933 39.7236 39.9128 39.5986 39.9434 39.4809L41.5369 33.4148C41.5969 33.1856 41.8317 33.0489 42.0609 33.109C42.2901 33.1691 42.4267 33.4038 42.3667 33.633L40.8946 39.2382L42.466 39.4797C42.7001 39.5158 42.8606 39.7346 42.8251 39.9687C42.7926 40.1814 42.6094 40.3328 42.4016 40.3328Z" fill="#1A1A1A"/>
<path d="M29.8104 32.6295C29.7503 32.6295 29.689 32.6179 29.6302 32.5927C29.3967 32.4935 29.2882 32.2232 29.3875 31.9897C29.9446 30.6831 31.4148 29.7344 32.8844 29.7344C34.4908 29.7344 35.6632 30.452 36.3698 31.8671C36.4832 32.0945 36.3906 32.3703 36.1639 32.4837C35.9365 32.597 35.6607 32.5045 35.5473 32.2777C35.0019 31.185 34.131 30.6537 32.8844 30.6537C31.785 30.6537 30.6451 31.383 30.2332 32.3501C30.1591 32.5247 29.9887 32.6295 29.8104 32.6295Z" fill="#1A1A1A"/>
<path d="M53.1262 32.6295C52.9473 32.6295 52.7775 32.5247 52.7034 32.3501C52.2915 31.383 51.1516 30.6537 50.0522 30.6537C48.8056 30.6537 47.9347 31.185 47.3893 32.2777C47.2759 32.5051 47.0001 32.597 46.7727 32.4837C46.5454 32.3703 46.4534 32.0945 46.5668 31.8671C47.2735 30.452 48.4458 29.7344 50.0522 29.7344C51.5218 29.7344 52.992 30.6831 53.5491 31.9897C53.6484 32.2232 53.5399 32.4935 53.3064 32.5927C53.2476 32.6173 53.1863 32.6295 53.1262 32.6295Z" fill="#1A1A1A"/>
<path d="M38.2854 52.1077C38.2854 52.1077 42.3652 46.9732 48.3798 50.8219C46.9157 52.1463 44.805 53.1165 42.0085 53.0019C40.6063 52.9437 39.3462 52.6501 38.2511 52.1856L38.2854 52.1077Z" fill="#C1272D"/>
<path d="M50.6813 44.9168C51.3518 45.9243 50.6354 48.79 48.38 50.8235C42.3654 46.9747 38.2856 52.1093 38.2856 52.1093L38.2513 52.1871C34.3879 50.563 32.6308 46.9257 34.2941 44.8224C35.727 43.0077 37.2769 44.9719 42.1025 45.1877C45.3194 45.3335 49.0548 42.477 50.6813 44.9168Z" fill="#010101"/>
</g>
<ellipse cx="42" cy="67" rx="16" ry="1" fill="#CF1704"/>
<defs>
<filter id="filter0_d_293_4764" x="0" y="14.1177" width="88" height="73.8823" filterUnits="userSpaceOnUse" color-interpolation-filters="sRGB">
<feFlood flood-opacity="0" result="BackgroundImageFix"/>
<feColorMatrix in="SourceAlpha" type="matrix" values="0 0 0 0 0 0 0 0 0 0 0 0 0 0 0 0 0 0 127 0" result="hardAlpha"/>
<feOffset dx="2" dy="2"/>
<feGaussianBlur stdDeviation="2"/>
<feComposite in2="hardAlpha" operator="out"/>
<feColorMatrix type="matrix" values="0 0 0 0 0.101961 0 0 0 0 0.101961 0 0 0 0 0.101961 0 0 0 0.08 0"/>
<feBlend mode="normal" in2="BackgroundImageFix" result="effect1_dropShadow_293_4764"/>
<feBlend mode="normal" in="SourceGraphic" in2="effect1_dropShadow_293_4764" result="shape"/>
</filter>
<filter id="filter1_d_293_4764" x="10" y="0" width="64" height="64" filterUnits="userSpaceOnUse" color-interpolation-filters="sRGB">
<feFlood flood-opacity="0" result="BackgroundImageFix"/>
<feColorMatrix in="SourceAlpha" type="matrix" values="0 0 0 0 0 0 0 0 0 0 0 0 0 0 0 0 0 0 127 0" result="hardAlpha"/>
<feOffset dy="2"/>
<feGaussianBlur stdDeviation="2"/>
<feComposite in2="hardAlpha" operator="out"/>
<feColorMatrix type="matrix" values="0 0 0 0 0.101961 0 0 0 0 0.101961 0 0 0 0 0.101961 0 0 0 0.08 0"/>
<feBlend mode="normal" in2="BackgroundImageFix" result="effect1_dropShadow_293_4764"/>
<feBlend mode="normal" in="SourceGraphic" in2="effect1_dropShadow_293_4764" result="shape"/>
</filter>
</defs>
</svg>
