<svg width="52" height="52" viewBox="0 0 52 52" fill="none" xmlns="http://www.w3.org/2000/svg">
<path d="M45.1656 15.1249H16.849C15.8339 15.1249 15.0101 14.2556 15.0101 13.1815V7.99746C15.0101 6.92568 15.8339 6.0538 16.849 6.0538H45.1656C46.1805 6.0538 47.0042 6.92568 47.0042 7.99746V13.1815C47.0042 14.2556 46.1805 15.1249 45.1656 15.1249Z" fill="#FFC414"/>
<path d="M17.8447 26.3617H46.1613C47.1762 26.3617 48 27.3481 48 28.5634V34.4348C48 35.6499 47.1762 36.6366 46.1613 36.6366H17.8447C16.8296 36.6366 16.0059 35.6499 16.0059 34.4348V28.5634C16.0059 27.3481 16.8296 26.3617 17.8447 26.3617Z" fill="#FFC414"/>
<path d="M13.4305 8.69046L12.0875 43.6295C12.0395 44.8823 11.2244 45.8473 10.2676 45.7841L5.6475 45.4797C4.69135 45.4168 3.9542 44.3491 4.00222 43.0966L5.34495 8.15756C5.39297 6.90507 6.20826 5.94003 7.16441 6.00291L11.785 6.30769C12.7414 6.37057 13.4785 7.43828 13.4305 8.69046Z" fill="#FFC414"/>
<path d="M12.2705 38.8653L4.18546 38.3324L4.10413 40.4514L12.1892 40.9843L12.2705 38.8653Z" fill="#D6A101"/>
<path d="M13.2414 13.6075L13.16 15.7236L5.07474 15.191L5.15582 13.0739L13.2414 13.6075Z" fill="#D6A101"/>
<path d="M13.0846 17.6908L13.0032 19.8073L4.91795 19.2744L4.99904 17.1583L13.0846 17.6908Z" fill="#D6A101"/>
<path d="M12.3138 44.2977C12.314 44.2959 12.3142 44.294 12.3144 44.2925C12.3142 44.2943 12.314 44.2959 12.3138 44.2977Z" fill="#59727B"/>
<path d="M10.598 45.7639C10.8927 45.3796 11.0851 44.8579 11.1076 44.2711L11.2365 40.9214L12.1892 40.9843L12.2705 38.8652L11.3178 38.8023L12.0503 19.7444L13.0032 19.8073L13.0846 17.6908L12.1316 17.6279L12.2073 15.661L13.16 15.7235L13.2414 13.6074L12.2886 13.5445L12.4506 9.33207C12.4986 8.07989 11.7614 7.01219 10.805 6.94931L6.18474 6.64452C6.15681 6.64291 6.12912 6.64195 6.10144 6.64195C6.01766 6.64195 5.93511 6.65029 5.85426 6.66537C6.16955 6.25376 6.60243 6.00031 7.07646 6.00031C7.09287 6.00031 7.10953 6.00031 7.12594 6.00095H7.12742C7.12864 6.00127 7.13011 6.00126 7.13133 6.00126C7.14236 6.00191 7.15338 6.00223 7.16441 6.00287L11.785 6.30766C12.7115 6.36861 13.4322 7.37247 13.4327 8.57363C13.4327 8.61278 13.432 8.65128 13.4305 8.69042L13.2245 14.0517L12.4084 35.2826L12.1066 43.1338L12.0875 43.6295C12.0875 43.6317 12.0875 43.6339 12.0873 43.6365V43.6368C12.0828 43.7434 12.0731 43.8476 12.0581 43.9493L12.0579 43.9496C12.0576 43.9516 12.0574 43.9538 12.0571 43.9561L12.0569 43.9567C12.0566 43.9583 12.0564 43.9602 12.0562 43.9618C12.0562 43.9625 12.0559 43.9631 12.0559 43.9638C12.0557 43.9654 12.0554 43.967 12.0552 43.9682C12.0552 43.9689 12.0549 43.9695 12.0549 43.9702C12.0547 43.9718 12.0544 43.9731 12.0542 43.9743C12.054 43.9753 12.0539 43.9763 12.0537 43.9769C12.0537 43.9779 12.0534 43.9788 12.0534 43.9798C11.9047 44.9169 11.3178 45.6311 10.598 45.7639Z" fill="#D6A101"/>
<path d="M12.1892 40.9843L11.2365 40.9214L11.2634 40.2179L11.6216 40.2413C11.6287 40.2419 11.6355 40.2419 11.6426 40.2419C11.8587 40.2419 12.039 40.0199 12.05 39.734C12.0613 39.4389 11.8881 39.188 11.6627 39.1732L11.3046 39.1495L11.3178 38.8024L12.2705 38.8653L12.1892 40.9843Z" fill="#AD8200"/>
<path d="M13.16 15.7236L12.2073 15.661L12.2284 15.1101L12.6321 15.1368C12.6392 15.1374 12.6461 15.1374 12.6532 15.1374C12.8692 15.1374 13.0495 14.9154 13.0606 14.6295C13.0718 14.3344 12.8986 14.0835 12.6733 14.0687L12.2695 14.0421L12.2886 13.5445L13.2413 13.6074L13.16 15.7236Z" fill="#AD8200"/>
<path d="M13.0032 19.8073L12.0503 19.7445L12.0789 18.9985L12.5096 19.0268C12.5167 19.0274 12.5236 19.0274 12.5307 19.0274C12.7467 19.0274 12.927 18.8054 12.9381 18.5195C12.9493 18.2244 12.7761 17.9735 12.5508 17.9587L12.1201 17.9305L12.1316 17.628L13.0846 17.6909L13.0032 19.8073Z" fill="#AD8200"/>
<path d="M15.2554 15.0434H43.572C44.5871 15.0434 45.4107 16.1217 45.4107 17.4513V23.8734C45.4107 25.2025 44.5871 26.2813 43.572 26.2813H15.2554C14.2403 26.2813 13.4168 25.2025 13.4168 23.8734V17.4513C13.4168 16.1217 14.2403 15.0434 15.2554 15.0434Z" fill="#F68B27"/>
<path d="M13.5542 16.2715C13.8697 15.539 14.4683 15.0434 15.1558 15.0434H15.2554C14.5871 15.0434 14.0016 15.5111 13.6798 16.2099C13.6373 16.2285 13.5953 16.2491 13.5542 16.2715Z" fill="#73A68A"/>
<path d="M44.1774 26.097C44.3274 25.7481 44.4143 25.3463 44.4143 24.9175V18.4952C44.4143 17.1656 43.5907 16.0873 42.5757 16.0873H41.4281V15.0434H39.7108V16.0873H24.2654V15.0434H22.5497V16.0873H20.9555V15.0434H19.24V16.0873H14.259C14.0566 16.0873 13.8619 16.1306 13.6798 16.2099C14.0016 15.5111 14.587 15.0434 15.2554 15.0434H18.3807V15.1249H19.2392V15.0434H43.4722C44.4875 15.0434 45.311 16.1217 45.311 17.4513V23.8734C45.311 24.8757 44.8428 25.7346 44.1774 26.097Z" fill="#F47828"/>
<path d="M20.9555 15.0434H19.24V26.2813H20.9555V15.0434Z" fill="#FCB028"/>
<path d="M24.2654 15.0434H22.5497V26.2813H24.2654V15.0434Z" fill="#FCB028"/>
<path d="M41.4281 15.0434H39.7108V26.2813H41.4281V15.0434Z" fill="#FCB028"/>
<path d="M43.4108 45.6566H15.0942C14.0793 45.6566 13.2557 44.7857 13.2557 43.7127V38.5294C13.2557 37.4563 14.0793 36.5858 15.0942 36.5858H43.4108C44.4261 36.5858 45.2497 37.4563 45.2497 38.5294V43.7127C45.2497 44.7857 44.4261 45.6566 43.4108 45.6566Z" fill="#F68B27"/>
<path d="M44.3544 45.3786C44.4171 45.1832 44.4524 44.9744 44.4524 44.7565V39.5733C44.4524 38.5002 43.629 37.6294 42.6137 37.6294H14.2971C13.9518 37.6294 13.6298 37.7322 13.3536 37.9075C13.5931 37.1594 14.2503 36.6142 15.0322 36.5868H15.0332C15.0344 36.5865 15.0358 36.5865 15.037 36.5865H15.042C15.0428 36.5863 15.0438 36.5863 15.0448 36.5863H15.052C15.053 36.586 15.0537 36.586 15.0547 36.586H15.0631C15.0639 36.586 15.0645 36.586 15.0651 36.5858H42.8979V36.6366H43.8307C44.6437 36.8376 45.2497 37.609 45.2497 38.5294V43.7127C45.2497 43.7153 45.2495 43.7176 45.2495 43.7202V43.7301C45.2495 43.7351 45.2495 43.7403 45.2493 43.7453V43.7534C45.2491 43.7539 45.2491 43.7544 45.2491 43.7544C45.2353 44.4449 44.8794 45.0454 44.3544 45.3786Z" fill="#F47828"/>
<path d="M43 39H38V44H43V39Z" fill="#FCAB28"/>
<path d="M45.9856 14.919C46.1671 14.6178 46.2737 14.2614 46.2737 13.8775V8.69344C46.2737 7.62167 45.4499 6.74979 44.4351 6.74979H19.2392V6.0538H18.3807V6.74979H16.1184C15.8235 6.74979 15.5459 6.82547 15.2988 6.95569C15.6177 6.42724 16.1703 6.07102 16.8029 6.05458H16.8037C16.8059 6.05432 16.8079 6.05433 16.8101 6.05433H16.8181L16.8185 6.05407H16.842C16.8444 6.05407 16.8466 6.0538 16.849 6.0538H45.1656C46.1805 6.0538 47.0042 6.92568 47.0042 7.99746V13.1998C47.0042 13.2024 47.004 13.205 47.004 13.2078V13.2162C47.004 13.2167 47.004 13.2172 47.0038 13.218C47.0038 13.2235 47.0036 13.229 47.0036 13.2345V13.2352C46.9845 13.9743 46.5746 14.6079 45.9856 14.919Z" fill="#FFCE3E"/>
<path d="M41.6332 14.1656L38.2665 10.5899L41.6332 7.01416L45 10.5899L41.6332 14.1656Z" fill="#F28F27"/>
<path d="M19.2392 6.0538H18.3808V15.1249H19.2392V6.0538Z" fill="#FFCE3E"/>
<path d="M17.8061 26.3622C17.8069 26.3622 17.8074 26.3622 17.8082 26.3619C17.8074 26.3622 17.8067 26.3622 17.8061 26.3622Z" fill="#74C592"/>
<path d="M46.5929 36.5729C46.7892 36.2227 46.904 35.8015 46.904 35.3482V29.4768C46.904 28.2615 46.0802 27.2751 45.0654 27.2751H44.6152V26.3617H42.8979V27.2751H16.7487C16.5999 27.2751 16.4558 27.2985 16.3171 27.3387C16.6292 26.7821 17.1473 26.4048 17.7407 26.3651H17.7413C17.7435 26.3648 17.7457 26.3648 17.7479 26.3646H17.7487C17.7535 26.3643 17.758 26.364 17.7628 26.3638H17.7636C17.7656 26.3635 17.7678 26.3635 17.7698 26.3635C17.7704 26.3635 17.7708 26.3635 17.7714 26.3633C17.7732 26.3633 17.775 26.3633 17.7768 26.363H17.7784C17.783 26.3627 17.7875 26.3627 17.7921 26.3625H17.7939C17.7957 26.3625 17.7973 26.3625 17.7991 26.3622H17.8061C17.8067 26.3622 17.8075 26.3622 17.8083 26.3619C17.8126 26.3619 17.8172 26.362 17.8218 26.3617H46.1613C47.1762 26.3617 48 27.3481 48 28.5634V34.4615C48 34.4625 47.9998 34.4635 47.9998 34.4643V34.4758C47.9998 34.4771 47.9996 34.4784 47.9996 34.48V34.4873C47.9996 34.4883 47.9994 34.4891 47.9994 34.4902V34.4967C47.9992 34.498 47.9992 34.4993 47.9992 34.5006V34.5027C47.9992 34.5043 47.9992 34.5058 47.999 34.5071V34.5084C47.9715 35.5126 47.3803 36.3454 46.5929 36.5729Z" fill="#FFD968"/>
<path d="M44.6152 36.6366H43.8307C43.6958 36.6032 43.5553 36.5857 43.4108 36.5857H42.8979V27.2751H43.3975C43.303 27.3518 43.24 27.4888 43.24 27.6451V34.8649C43.24 35.1053 43.3887 35.3 43.5722 35.3C43.7557 35.3 43.9044 35.1053 43.9044 34.8649V27.6451C43.9044 27.4888 43.8416 27.3518 43.7472 27.2751H44.6152V36.6366Z" fill="#FFD968"/>
<path d="M43.8307 36.6366H42.8979V36.5858H43.4108C43.5553 36.5858 43.6958 36.6032 43.8307 36.6366Z" fill="#315BA9"/>
<path d="M44.6152 27.2751H43.7472C43.6964 27.2338 43.6364 27.2101 43.5722 27.2101C43.5082 27.2101 43.4483 27.2338 43.3975 27.2751H42.8979V26.3617H44.6152V27.2751Z" fill="#FFC414"/>
<path d="M24.5 35C22.5669 35 21 33.4331 21 31.4999C21 29.5669 22.5669 28 24.5 28C26.4328 28 28 29.5669 28 31.4999C28 33.4331 26.4328 35 24.5 35Z" fill="#FFD968"/>
<path d="M19.8591 25.1657C19.6758 25.1657 19.5269 24.9711 19.5269 24.7307V17.5109C19.5269 17.2705 19.6758 17.0759 19.8591 17.0759C20.0427 17.0759 20.1913 17.2705 20.1913 17.5109V24.7307C20.1913 24.9711 20.0427 25.1657 19.8591 25.1657Z" fill="#FDC526"/>
<path d="M12.7574 15.1122L6.16185 14.8287C5.92832 14.8188 5.74886 14.6486 5.76054 14.4492C5.5 13.5 6.5 13.5 6.5 13.5L12.5 14L12.7574 15.1122Z" fill="#FFCE3E"/>
<path d="M12.6532 15.1375C12.6461 15.1375 12.6392 15.1375 12.6321 15.1368L12.2284 15.1102L12.2695 14.0422L12.6733 14.0688C12.8986 14.0836 13.0718 14.3344 13.0606 14.6296C13.0495 14.9155 12.8692 15.1375 12.6532 15.1375Z" fill="#D6A101"/>
<path d="M12.0789 18.9986L5.7406 18.5812C5.51522 18.5661 5.34202 18.3149 5.35329 18.02C5.36407 17.7342 5.54462 17.5122 5.76069 17.5122C5.76755 17.5122 5.77465 17.5125 5.78175 17.5128L12.1201 17.9305L12.0789 18.9986Z" fill="#FFCE3E"/>
<path d="M12.5307 19.0274C12.5236 19.0274 12.5167 19.0274 12.5096 19.0268L12.0789 18.9985L12.1201 17.9305L12.5508 17.9587C12.7762 17.9735 12.9493 18.2244 12.9381 18.5195C12.9271 18.8054 12.7467 19.0274 12.5307 19.0274Z" fill="#D6A101"/>
<path d="M11.2634 40.2178L4.85254 39.7953C4.62716 39.7808 4.45396 39.5293 4.46523 39.2348C4.47601 38.9486 4.65655 38.7266 4.87263 38.7266C4.87948 38.7266 4.88659 38.7269 4.89369 38.7272L11.3046 39.1494L11.2634 40.2178Z" fill="#FFCE3E"/>
<path d="M11.6426 40.2419C11.6355 40.2419 11.6287 40.2419 11.6216 40.2413L11.2634 40.2179L11.3046 39.1495L11.6627 39.1732C11.8881 39.188 12.0613 39.4389 12.05 39.734C12.039 40.0199 11.8587 40.2419 11.6426 40.2419Z" fill="#D6A101"/>
<path d="M23.3131 24.6004C23.1297 24.6004 22.9811 24.4057 22.9811 24.1654V16.9456C22.9811 16.7052 23.1297 16.5106 23.3131 16.5106C23.4966 16.5106 23.6452 16.7052 23.6452 16.9456V24.1654C23.6452 24.4057 23.4966 24.6004 23.3131 24.6004Z" fill="#FDC526"/>
<path d="M40.3175 24.5133C40.1342 24.5133 39.9854 24.3186 39.9854 24.0783V16.8585C39.9854 16.6181 40.1342 16.4234 40.3175 16.4234C40.5011 16.4234 40.6497 16.6181 40.6497 16.8585V24.0783C40.6497 24.3186 40.5011 24.5133 40.3175 24.5133Z" fill="#FDC526"/>
<path d="M43.5722 35.3C43.3887 35.3 43.24 35.1053 43.24 34.8649V27.6451C43.24 27.4888 43.303 27.3518 43.3975 27.2751H43.7472C43.8416 27.3518 43.9044 27.4888 43.9044 27.6451V34.8649C43.9044 35.1053 43.7557 35.3 43.5722 35.3Z" fill="#FFC414"/>
<path d="M43.7472 27.2751H43.3975C43.4483 27.2338 43.5082 27.2101 43.5722 27.2101C43.6364 27.2101 43.6964 27.2338 43.7472 27.2751Z" fill="#FFC414"/>
<path d="M18.6637 14.7707C18.572 14.7707 18.4975 14.5761 18.4975 14.336V7.1159C18.4975 6.87555 18.572 6.68088 18.6637 6.68088C18.7556 6.68088 19 6.87555 19 7.1159V14.336C19 14.5761 18.7556 14.7707 18.6637 14.7707Z" fill="#F28F27"/>
</svg>
