<svg width="52" height="52" viewBox="0 0 52 52" fill="none" xmlns="http://www.w3.org/2000/svg">
<path d="M42.0379 48.3924C40.0159 47.977 37.9938 47.5616 35.9717 47.1462C34.6898 48.7641 33.4075 50.3821 32.1256 52C30.0258 46.2306 27.9257 40.4608 25.8259 34.6914L35.7383 31.0838L42.0379 48.3924Z" fill="#F24545"/>
<path d="M10.4147 48.3924C12.4369 47.977 14.4589 47.5616 16.481 47.1462C17.763 48.7641 19.0451 50.3821 20.3271 52C22.4271 46.2306 24.527 40.4608 26.6271 34.6914L16.7145 31.0838L10.4147 48.3924Z" fill="#F24545"/>
<path d="M36.1077 36.6409C36.0985 36.6713 36.0896 36.7006 36.0811 36.7289C35.9145 37.2765 35.662 38.156 34.87 38.5308C34.118 38.8869 33.3264 38.5792 32.789 38.3706C32.7352 38.3495 32.6779 38.3274 32.6183 38.3035C31.9565 38.0374 31.199 38.2701 30.8017 38.8627C30.784 38.8889 30.767 38.9145 30.7503 38.939C30.4296 39.413 29.9287 40.1787 29.0614 40.3031C28.5513 40.3763 28.1019 40.2019 27.7263 39.9732C28.2777 41.4879 28.829 43.0026 29.3804 44.5176C30.0551 44.2781 30.4712 43.6449 30.7503 43.2323C30.767 43.2077 30.784 43.1822 30.8017 43.1559C31.199 42.5633 31.9565 42.3306 32.6183 42.5967C32.6779 42.6206 32.7352 42.6427 32.789 42.6639C33.3264 42.8728 34.118 43.1801 34.87 42.824C35.662 42.4492 35.9145 41.57 36.0811 41.0221C36.0896 40.9938 36.0985 40.9648 36.1077 40.9342C36.3121 40.252 36.965 39.8046 37.6748 39.8635C37.7399 39.869 37.8026 39.8734 37.8612 39.8775C38.1614 39.8989 38.5359 39.9245 38.9125 39.8652L37.3525 35.5795C36.7749 35.6561 36.2805 36.064 36.1077 36.6409Z" fill="#EA3636"/>
<path d="M23.2272 40.283C22.4053 40.1528 21.925 39.4525 21.599 38.9772C21.567 38.9305 21.5332 38.8814 21.4984 38.8293C21.1007 38.2353 20.3449 37.9965 19.6813 38.2626C19.6515 38.2745 19.6225 38.2858 19.5946 38.297C19.0624 38.5076 18.217 38.8576 17.4307 38.4715C16.6838 38.1048 16.4314 37.2942 16.2602 36.7435C16.243 36.6883 16.2247 36.6297 16.2064 36.5683C16.0476 36.0364 15.6162 35.6479 15.0977 35.529L13.5415 39.8049C13.9096 39.8478 14.268 39.8171 14.5458 39.7957C14.5757 39.7933 14.6067 39.7909 14.6389 39.7882C15.3495 39.7303 16.0025 40.1784 16.2064 40.8616C16.2247 40.9229 16.243 40.9815 16.2602 41.0371C16.4314 41.5874 16.6838 42.3981 17.4307 42.7651C18.217 43.1511 19.0624 42.8008 19.5946 42.5903C19.6225 42.5793 19.6515 42.5678 19.6813 42.5558C20.3449 42.2897 21.1007 42.5286 21.4984 43.1229C21.5332 43.1747 21.567 43.2237 21.599 43.2704C21.9 43.7096 22.3333 44.3394 23.0451 44.5356C23.6133 42.9746 24.1815 41.4133 24.7497 39.8522C24.3388 40.1313 23.8209 40.3767 23.2272 40.283Z" fill="#EA3636"/>
<path d="M26.2969 5.76132C18.2943 5.76132 11.8069 12.2487 11.8069 20.2513C11.8069 28.2538 18.2943 34.7412 26.2969 34.7412C34.2993 34.7412 40.7867 28.2538 40.7867 20.2513C40.7867 12.2487 34.2993 5.76132 26.2969 5.76132Z" fill="#F7BC16"/>
<path d="M26.2969 36.2916C17.4381 36.2916 10.2566 29.1101 10.2566 20.2512C10.2566 11.3924 17.4381 4.21096 26.2969 4.21096C35.1556 4.21096 42.3371 11.3924 42.3371 20.2512C42.3371 29.1101 35.1556 36.2916 26.2969 36.2916ZM45.4172 22.7732C45.01 22.1872 45.069 21.3971 45.558 20.8774C45.6019 20.8307 45.6435 20.7855 45.6827 20.7429C46.0729 20.3184 46.6474 19.6933 46.5898 18.8632C46.5291 17.9893 45.802 17.4338 45.3525 17.0792C45.3293 17.0609 45.3051 17.0419 45.2803 17.0224C44.7183 16.5827 44.5415 15.8103 44.8553 15.1695C44.8836 15.1119 44.9099 15.0566 44.9347 15.0042C45.1821 14.4836 45.5471 13.7167 45.2469 12.9406C44.931 12.1235 44.0723 11.8073 43.5383 11.6011C43.5107 11.5904 43.4824 11.5794 43.4528 11.5681C42.7873 11.3143 42.3886 10.6302 42.4993 9.92673C42.5095 9.86215 42.5184 9.80014 42.5269 9.74173C42.6097 9.17123 42.7321 8.33095 42.2161 7.67781C41.6733 6.99033 40.7597 6.94153 40.1886 6.90207C40.1586 6.9001 40.1276 6.89788 40.0956 6.89577C39.3841 6.84967 38.8034 6.31089 38.7012 5.60524C38.692 5.54183 38.6825 5.48128 38.6736 5.42389C38.5847 4.85445 38.4531 4.0155 37.7679 3.54368C37.0461 3.04699 36.1588 3.26991 35.6017 3.4007C35.5724 3.40761 35.542 3.4147 35.5107 3.4222C34.8172 3.58801 34.1033 3.24453 33.7977 2.60042C33.7704 2.54253 33.7435 2.48746 33.7179 2.43539C33.4648 1.91754 33.0916 1.15471 32.2976 0.906059C31.4614 0.644423 30.6794 1.11931 30.1856 1.40871C30.1601 1.42361 30.1335 1.43914 30.1062 1.4553C29.4905 1.81947 28.7071 1.69955 28.2228 1.17287C28.1806 1.12694 28.1397 1.08336 28.1008 1.04216C27.7062 0.622002 27.1246 0.00321557 26.2928 1.24235e-05C25.4166 -0.0033611 24.8094 0.681089 24.4229 1.10346C24.4204 1.10612 24.4178 1.10891 24.4153 1.11178C23.936 1.63552 23.1563 1.75356 22.5429 1.3959C22.511 1.37733 22.48 1.35941 22.45 1.34216C21.9508 1.05385 21.2155 0.629225 20.4179 0.866395C19.5782 1.11604 19.1944 1.94664 18.9463 2.46248C18.9335 2.48906 18.9202 2.51666 18.9066 2.54532C18.6005 3.18827 17.8868 3.53124 17.1944 3.36461C17.1308 3.34928 17.0698 3.3353 17.0122 3.32222C16.4502 3.19402 15.6223 3.00538 14.9301 3.46731C14.2014 3.95355 14.0799 4.86041 13.995 5.42655C13.9905 5.45616 13.986 5.48703 13.9813 5.5189C13.8787 6.22304 13.2974 6.76032 12.5872 6.8054C12.5219 6.80952 12.4595 6.81426 12.4006 6.81869C11.8258 6.8621 10.979 6.92603 10.4541 7.5716C9.9014 8.25125 10.0527 9.15361 10.1387 9.71955C10.1432 9.74913 10.1479 9.78 10.1528 9.81179C10.2627 10.5162 9.8634 11.2003 9.19701 11.4536C9.13707 11.4765 9.08003 11.4989 9.02608 11.5201C8.48959 11.7312 7.69947 12.0421 7.38829 12.8139C7.06075 13.6263 7.47164 14.4438 7.72077 14.9592C7.73362 14.9859 7.74697 15.0134 7.76088 15.0419C8.07472 15.6848 7.89268 16.4564 7.32903 16.8969C7.27986 16.9354 7.23314 16.9727 7.18895 17.008C6.73873 17.3679 6.07544 17.8981 6.00586 18.7274C5.9326 19.6003 6.56641 20.2601 6.95651 20.6791C6.97665 20.7007 6.99751 20.7231 7.01921 20.7462C7.50749 21.2664 7.56443 22.0569 7.15654 22.6423C7.11994 22.6949 7.08549 22.7456 7.05291 22.7935C6.72885 23.2703 6.25162 23.9726 6.4298 24.7855C6.61732 25.6412 7.41766 26.0845 7.91401 26.3697C7.93957 26.3844 7.96612 26.3997 7.99368 26.4154C8.61254 26.7677 8.90235 27.5048 8.68553 28.1829C8.66563 28.2453 8.64726 28.3053 8.62995 28.3618C8.46107 28.9128 8.21225 29.7249 8.62232 30.449C9.05396 31.2109 9.94958 31.3987 10.5079 31.5248C10.5367 31.5312 10.5666 31.538 10.5976 31.5449C11.2928 31.6989 11.7872 32.3174 11.7801 33.0295C11.7795 33.095 11.7796 33.1577 11.7797 33.2166C11.781 33.7932 11.7828 34.642 12.3883 35.2131C13.0256 35.8139 13.9366 35.729 14.5074 35.6847C14.5373 35.6824 14.5683 35.68 14.6005 35.6773C15.3111 35.6193 15.9641 36.0674 16.168 36.7506C16.1863 36.812 16.2046 36.8706 16.2218 36.9261C16.393 37.4765 16.6454 38.2871 17.3923 38.6541C18.1786 39.0399 19.024 38.6903 19.5562 38.4793C19.5841 38.4684 19.6131 38.4568 19.643 38.4449C20.3065 38.1788 21.0623 38.4176 21.46 39.0116C21.4948 39.0637 21.5286 39.1128 21.5606 39.1595C21.8866 39.6348 22.3669 40.3351 23.1889 40.4653C24.054 40.6023 24.7585 40.0182 25.2049 39.6601C25.2279 39.6413 25.2518 39.6222 25.2764 39.6025C25.831 39.1533 26.6233 39.1544 27.1774 39.6038C27.2271 39.6444 27.2752 39.6825 27.3208 39.7183C27.7724 40.0765 28.4379 40.604 29.2618 40.4854C30.1287 40.361 30.6296 39.5953 30.9503 39.1213C30.967 39.0968 30.984 39.0712 31.0017 39.045C31.3991 38.4524 32.1566 38.2197 32.8187 38.4858C32.878 38.5097 32.9352 38.5318 32.9894 38.5529C33.5268 38.7615 34.318 39.0692 35.0701 38.7131C35.862 38.3382 36.1145 37.4591 36.2811 36.9111C36.2896 36.8832 36.2985 36.8539 36.3077 36.8232C36.5122 36.141 37.1654 35.6936 37.8749 35.7526C37.9403 35.758 38.0027 35.7624 38.0616 35.7665C38.6365 35.8074 39.4836 35.8677 40.0973 35.3055C40.743 34.7139 40.725 33.7993 40.7226 33.2268C40.7223 33.1969 40.7223 33.1655 40.7219 33.1335C40.7158 32.4206 41.2109 31.8018 41.9071 31.6484C41.9698 31.6348 42.0294 31.6208 42.086 31.6079C42.6472 31.477 43.4742 31.2849 43.8947 30.5669C44.3374 29.8107 44.0501 28.9421 43.8791 28.3959C43.8702 28.3673 43.8607 28.3376 43.8508 28.307C43.6347 27.6275 43.9254 26.8904 44.5452 26.5384C44.6008 26.5067 44.6539 26.4757 44.704 26.4467C45.2019 26.1561 45.9355 25.7284 46.1253 24.9183C46.325 24.0653 45.7941 23.3201 45.4694 22.8487C45.4527 22.8244 45.4353 22.7991 45.4172 22.7732Z" fill="#FCC71D"/>
<path d="M26.2969 34.7412C18.2943 34.7412 11.8069 28.2538 11.8069 20.2512C11.8069 12.2487 18.2943 5.76132 26.2969 5.76132C34.2993 5.76132 40.7867 12.2487 40.7867 20.2512C40.7867 28.2538 34.2993 34.7412 26.2969 34.7412ZM26.2969 4.21097C17.4381 4.21097 10.2566 11.3925 10.2566 20.2513C10.2566 29.1101 17.4381 36.2917 26.2969 36.2917C35.1556 36.2917 42.3371 29.1101 42.3371 20.2513C42.3371 11.3925 35.1556 4.21097 26.2969 4.21097Z" fill="#EAA906"/>
<path d="M35.0759 8.72389C32.6398 6.86562 29.5975 5.76132 26.2969 5.76132C18.2943 5.76132 11.8069 12.2487 11.8069 20.2512C11.8069 23.6733 12.994 26.8178 14.9778 29.2969C24.6773 26.2839 32.2844 18.5187 35.0759 8.72389Z" fill="#FCC71D"/>
<path d="M10.2566 20.2512C10.2566 11.3924 17.4381 4.21096 26.2969 4.21096C29.7161 4.21096 32.8848 5.28156 35.4878 7.10476C35.7683 5.86197 35.9717 4.59019 36.0941 3.29462C35.9135 3.32678 35.7461 3.36676 35.6017 3.4007C35.5724 3.40761 35.542 3.4147 35.5107 3.4222C34.8172 3.58805 34.1033 3.24453 33.7977 2.60042C33.7704 2.54256 33.7435 2.48746 33.7179 2.43539C33.4648 1.91754 33.0916 1.15471 32.2976 0.906059C31.4614 0.644423 30.6794 1.11931 30.1856 1.40871C30.1601 1.42361 30.1335 1.43918 30.1062 1.4553C29.4908 1.8195 28.7071 1.69959 28.2228 1.17287C28.1806 1.12694 28.1397 1.08336 28.1008 1.04216C27.7062 0.622002 27.1246 0.00324964 26.2928 1.24229e-05C25.4166 -0.0033611 24.8094 0.681123 24.4229 1.10346C24.4204 1.10615 24.4178 1.10895 24.4154 1.11178C23.936 1.63552 23.1563 1.75356 22.5429 1.3959C22.5111 1.37733 22.48 1.35941 22.45 1.34216C21.9508 1.05385 21.2155 0.629225 20.4179 0.866395C19.5782 1.11604 19.1945 1.94664 18.9463 2.46248C18.9335 2.48909 18.9202 2.5167 18.9066 2.54535C18.6005 3.18827 17.8867 3.53124 17.1944 3.36461C17.1308 3.34931 17.0698 3.3353 17.0122 3.32222C16.4502 3.19402 15.6223 3.00538 14.9301 3.46731C14.2014 3.95355 14.0799 4.86041 13.995 5.42655C13.9906 5.45616 13.986 5.48703 13.9813 5.5189C13.8787 6.22304 13.2974 6.76032 12.5872 6.8054C12.5219 6.80952 12.4595 6.81426 12.4006 6.81869C11.8258 6.8621 10.9791 6.92606 10.4541 7.5716C9.9014 8.25125 10.0527 9.15361 10.1387 9.71955C10.1432 9.74913 10.1479 9.78 10.1528 9.81179C10.2627 10.5162 9.8634 11.2003 9.19701 11.4536C9.13707 11.4765 9.08003 11.4989 9.02609 11.5201C8.48959 11.7312 7.69947 12.0421 7.38832 12.8139C7.06075 13.6263 7.47161 14.4438 7.72081 14.9592C7.73362 14.9859 7.74701 15.0134 7.76088 15.0419C8.07472 15.6848 7.89268 16.4564 7.32903 16.8969C7.27986 16.9354 7.23318 16.9727 7.18895 17.008C6.73873 17.3679 6.07544 17.8981 6.00583 18.7274C5.9326 19.6003 6.56645 20.2601 6.95655 20.6791C6.97665 20.7007 6.99754 20.7231 7.01921 20.7463C7.50749 21.2664 7.5644 22.0569 7.15657 22.6423C7.11994 22.6949 7.08549 22.7456 7.05291 22.7935C6.72885 23.2703 6.25162 23.9726 6.4298 24.7855C6.61732 25.6412 7.41766 26.0845 7.91405 26.3697C7.93957 26.3847 7.96612 26.3997 7.99369 26.4154C8.61254 26.7677 8.90236 27.5048 8.68553 28.1829C8.66563 28.2453 8.64726 28.3053 8.62992 28.3618C8.46107 28.9128 8.21225 29.7249 8.62232 30.449C8.63909 30.4783 8.65769 30.5055 8.67578 30.5335C10.2793 30.3927 11.8468 30.1273 13.3687 29.7463C11.4129 27.0877 10.2566 23.8047 10.2566 20.2512Z" fill="#FFCE33"/>
<path d="M10.2566 20.2512C10.2566 23.8047 11.4129 27.0877 13.3687 29.7463C13.9108 29.6104 14.4477 29.4615 14.9777 29.2969C12.994 26.8178 11.8069 23.6733 11.8069 20.2512C11.8069 12.2487 18.2943 5.76132 26.2969 5.76132C29.5975 5.76132 32.6398 6.86563 35.0759 8.72389C35.2278 8.19019 35.3648 7.65009 35.4878 7.10477C32.8848 5.28157 29.7161 4.21097 26.2969 4.21097C17.4381 4.21097 10.2566 11.3925 10.2566 20.2512Z" fill="#F4B608"/>
<path d="M25.7482 10.2932L28.8468 16.5713L35.7751 17.578L30.7615 22.4649L31.945 29.3654L25.7482 26.1074L19.5513 29.3654L20.7348 22.4649L15.7214 17.578L22.6497 16.5713L25.7482 10.2932Z" fill="#FDD248"/>
<path d="M26.8455 11.1373L29.944 17.4154L36.8724 18.4222L31.8591 23.309L33.0425 30.2094L26.8455 26.9514L20.6487 30.2094L21.8322 23.309L16.8188 18.4222L23.7471 17.4154L26.8455 11.1373Z" fill="#EAA906"/>
<path d="M26.2546 10.7996L29.3531 17.0778L36.2815 18.0845L31.2679 22.9714L32.4517 29.8717L26.2546 26.6137L20.0578 29.8717L21.2413 22.9714L16.2279 18.0845L23.1562 17.0778L26.2546 10.7996Z" fill="#FCC71D"/>
<path d="M13.8037 18.3481C13.539 18.346 13.2711 18.3281 13.0073 18.295C12.642 18.2492 12.3781 18.2161 12.1113 18.1213C11.4601 17.8899 10.896 17.3314 10.6741 16.6984C10.5824 16.4368 10.5494 16.1571 10.4992 15.7336C10.47 15.4866 10.4521 15.2361 10.446 14.9891C10.4449 14.9465 10.411 14.9121 10.3684 14.9106C10.3275 14.9103 10.2894 14.9409 10.2853 14.9833C10.2697 15.1439 10.2516 15.3058 10.2318 15.4645C10.1442 16.1647 10.069 16.4399 9.96887 16.6787C9.95735 16.7063 9.94011 16.7458 9.91813 16.793C9.73906 17.1774 9.3341 17.861 8.6338 18.1197C8.50319 18.1679 8.36682 18.1927 8.09516 18.242C7.76647 18.3017 7.43249 18.3364 7.09997 18.3456C7.04201 18.3456 6.98357 18.3464 6.9254 18.3481C6.88138 18.3495 6.84662 18.3859 6.8473 18.43C6.84802 18.474 6.8839 18.5093 6.92789 18.5093H6.92796C6.98592 18.5092 7.04395 18.5083 7.10202 18.5068C7.4529 18.5075 7.80361 18.5438 8.14692 18.615C8.34688 18.6564 8.46758 18.6814 8.61908 18.7366C9.28268 18.9785 9.84657 19.5368 10.0557 20.1589C10.0977 20.2838 10.1247 20.4578 10.1784 20.8044C10.2332 21.1578 10.269 21.5163 10.285 21.8699C10.2869 21.913 10.3225 21.9468 10.3654 21.9468C10.3661 21.9468 10.3667 21.9468 10.3674 21.9468C10.4112 21.9458 10.4462 21.9098 10.446 21.866C10.4448 21.4766 10.4805 21.0841 10.5521 20.6993C10.5989 20.4478 10.6223 20.3215 10.6738 20.174C10.8969 19.5347 11.4557 18.9706 12.0975 18.7369C12.3548 18.6432 12.6004 18.6128 13.0073 18.5623C13.2711 18.5296 13.5391 18.5118 13.8038 18.5093C13.848 18.5088 13.8836 18.4728 13.8836 18.4286C13.8836 18.3844 13.8479 18.3485 13.8037 18.3481Z" fill="#F7F8F9"/>
<path d="M22.0623 11.9382C21.8964 11.9368 21.7284 11.9256 21.5629 11.9049C21.3338 11.8762 21.1683 11.8554 21.001 11.7959C20.5926 11.6508 20.2389 11.3006 20.0997 10.9036C20.0422 10.7396 20.0215 10.5642 19.99 10.2986C19.9717 10.1436 19.9605 9.98659 19.9566 9.83168C19.956 9.805 19.9347 9.7834 19.908 9.78244C19.8823 9.78227 19.8585 9.80145 19.8559 9.82803C19.8461 9.92873 19.8348 10.0303 19.8224 10.1298C19.7674 10.5689 19.7203 10.7415 19.6575 10.8913C19.6502 10.9086 19.6394 10.9333 19.6256 10.9629C19.5133 11.204 19.2594 11.6327 18.8202 11.7949C18.7383 11.8252 18.6528 11.8407 18.4824 11.8716C18.2763 11.9091 18.0668 11.9308 17.8583 11.9366C17.822 11.9366 17.7853 11.9371 17.7488 11.9382C17.7212 11.939 17.6994 11.9619 17.6999 11.9895C17.7003 12.0171 17.7228 12.0392 17.7504 12.0392H17.7504C17.7868 12.0392 17.8232 12.0387 17.8596 12.0377C18.0796 12.0382 18.2996 12.0609 18.5149 12.1055C18.6403 12.1315 18.7159 12.1472 18.811 12.1818C19.2271 12.3335 19.5808 12.6836 19.7119 13.0737C19.7382 13.152 19.7552 13.2612 19.7889 13.4785C19.8232 13.7002 19.8457 13.925 19.8557 14.1468C19.8569 14.1738 19.8792 14.195 19.9061 14.195C19.9066 14.195 19.907 14.195 19.9074 14.195C19.9348 14.1943 19.9568 14.1718 19.9567 14.1443C19.9559 13.9001 19.9783 13.654 20.0232 13.4127C20.0525 13.2549 20.0673 13.1758 20.0995 13.0832C20.2394 12.6823 20.5898 12.3285 20.9924 12.182C21.1537 12.1233 21.3077 12.1041 21.5629 12.0725C21.7283 12.052 21.8964 12.0408 22.0624 12.0392C22.0901 12.039 22.1125 12.0164 22.1125 11.9887C22.1124 11.961 22.0901 11.9384 22.0623 11.9382Z" fill="#F7F8F9"/>
</svg>
