<svg width="88" height="88" viewBox="0 0 88 88" fill="none" xmlns="http://www.w3.org/2000/svg">
<g filter="url(#filter0_d_293_4845)">
<rect x="2" y="16.1178" width="80" height="65.8824" rx="32.9412" fill="#764AF1"/>
</g>
<g filter="url(#filter1_d_293_4845)">
<rect x="18" y="37.0001" width="17" height="17" fill="white"/>
<rect x="49" y="6.00012" width="17" height="17" fill="white"/>
<rect x="18" y="6.00012" width="17" height="17" fill="white"/>
<rect x="45.111" y="33.1112" width="12.4444" height="12.4444" rx="1" fill="#9A76FF"/>
<rect x="57.5557" y="45.5557" width="12.4444" height="12.4444" rx="1" fill="#9A76FF"/>
<path fill-rule="evenodd" clip-rule="evenodd" d="M16 33.1112C14.8954 33.1112 14 34.0066 14 35.1112V56.0001C14 57.1047 14.8954 58.0001 16 58.0001H36.8889C37.9935 58.0001 38.8889 57.1047 38.8889 56.0001V35.1112C38.8889 34.0066 37.9935 33.1112 36.8889 33.1112H16ZM32.6668 39.3334H20.2224V51.7779H32.6668V39.3334ZM23.3335 48.6667V42.4445H29.5557V48.6667H23.3335Z" fill="#9A76FF"/>
<path fill-rule="evenodd" clip-rule="evenodd" d="M16 2.00012C14.8954 2.00012 14 2.89555 14 4.00012V24.889C14 25.9936 14.8954 26.889 16 26.889H36.8889C37.9935 26.889 38.8889 25.9936 38.8889 24.889V4.00012C38.8889 2.89555 37.9935 2.00012 36.8889 2.00012H16ZM32.6668 8.22235H20.2224V20.6668H32.6668V8.22235ZM23.3335 17.5557V11.3335H29.5557V17.5557H23.3335Z" fill="#9A76FF"/>
<path fill-rule="evenodd" clip-rule="evenodd" d="M47.111 2.00012C46.0065 2.00012 45.111 2.89555 45.111 4.00012V24.889C45.111 25.9936 46.0065 26.889 47.111 26.889H67.9999C69.1045 26.889 69.9999 25.9936 69.9999 24.889V4.00012C69.9999 2.89555 69.1045 2.00012 67.9999 2.00012H47.111ZM63.7777 8.22235H51.3333V20.6668H63.7777V8.22235ZM54.4444 17.5557V11.3335H60.6666V17.5557H54.4444Z" fill="#9A76FF"/>
</g>
<ellipse cx="42" cy="67.0001" rx="16" ry="1" fill="#5E36CF"/>
<defs>
<filter id="filter0_d_293_4845" x="0" y="14.1178" width="88" height="73.8823" filterUnits="userSpaceOnUse" color-interpolation-filters="sRGB">
<feFlood flood-opacity="0" result="BackgroundImageFix"/>
<feColorMatrix in="SourceAlpha" type="matrix" values="0 0 0 0 0 0 0 0 0 0 0 0 0 0 0 0 0 0 127 0" result="hardAlpha"/>
<feOffset dx="2" dy="2"/>
<feGaussianBlur stdDeviation="2"/>
<feComposite in2="hardAlpha" operator="out"/>
<feColorMatrix type="matrix" values="0 0 0 0 0.101961 0 0 0 0 0.101961 0 0 0 0 0.101961 0 0 0 0.08 0"/>
<feBlend mode="normal" in2="BackgroundImageFix" result="effect1_dropShadow_293_4845"/>
<feBlend mode="normal" in="SourceGraphic" in2="effect1_dropShadow_293_4845" result="shape"/>
</filter>
<filter id="filter1_d_293_4845" x="10" y="0.00012207" width="64.0001" height="64" filterUnits="userSpaceOnUse" color-interpolation-filters="sRGB">
<feFlood flood-opacity="0" result="BackgroundImageFix"/>
<feColorMatrix in="SourceAlpha" type="matrix" values="0 0 0 0 0 0 0 0 0 0 0 0 0 0 0 0 0 0 127 0" result="hardAlpha"/>
<feOffset dy="2"/>
<feGaussianBlur stdDeviation="2"/>
<feComposite in2="hardAlpha" operator="out"/>
<feColorMatrix type="matrix" values="0 0 0 0 0.101961 0 0 0 0 0.101961 0 0 0 0 0.101961 0 0 0 0.08 0"/>
<feBlend mode="normal" in2="BackgroundImageFix" result="effect1_dropShadow_293_4845"/>
<feBlend mode="normal" in="SourceGraphic" in2="effect1_dropShadow_293_4845" result="shape"/>
</filter>
</defs>
</svg>
