<svg width="302" height="379" viewBox="0 0 302 379" fill="none" xmlns="http://www.w3.org/2000/svg">
<g filter="url(#filter0_d_366_6154)">
<path d="M144.351 286.221C144.351 286.221 28.0608 277.849 14.0762 222.203C0.0915499 166.556 31.0844 158.985 41.6676 127.817C52.2504 96.648 4.24902 78.2655 36.3759 35.8583C68.5028 -6.54894 115.882 -7.28879 135.847 12.6851C146.01 22.8524 156.963 19.5048 170.157 16.1591C182.882 12.9323 197.693 9.70376 215.888 18.602C252.949 36.7263 262.019 73.3503 250.303 101.955C238.587 130.558 286.631 157.914 292.656 190.346C298.682 222.778 244.298 300.52 144.351 286.221Z" fill="#F28F27"/>
<path d="M26.5208 330.548H96.2064L101.987 315.317C104.035 309.922 108.225 305.586 113.583 303.213C118.63 300.978 125.422 296.922 132.007 289.688C144.82 275.613 151.618 260.514 151.618 260.514L108.433 260.307C108.433 260.307 112.319 236.667 90.855 205.27C88.5578 201.907 87.5129 197.875 87.8707 193.846L89.9053 170.948C89.9053 170.948 104.491 154.995 95.5423 135.206C95.5423 135.206 86.9848 123.61 83.5899 127.855C83.5899 127.855 57.7412 188.094 55.3877 197.049C53.0341 206.006 49.8961 211.637 53.0341 239.786C53.8648 247.239 54.1633 253.453 54.1528 258.564C54.1329 268.372 51.8937 278.056 47.6073 286.923L26.5208 330.548Z" fill="#FFC0BB"/>
<path fill-rule="evenodd" clip-rule="evenodd" d="M113.629 303.193C113.631 303.191 113.632 303.191 113.634 303.191C113.633 303.191 113.63 303.193 113.629 303.193Z" fill="#FFF2F1"/>
<path d="M54.1522 258.466C54.1531 257.681 54.1462 256.866 54.1319 256.027L54.1328 256.031L54.133 256.033C54.1471 256.87 54.1531 257.681 54.1522 258.466Z" fill="#C9E1EC"/>
<path d="M96.2064 330.548H26.5208L47.6073 286.923C51.8937 278.056 54.1329 268.372 54.1528 258.563V258.509C54.1528 258.505 54.153 258.501 54.153 258.498V258.466C54.1539 257.681 54.1477 256.869 54.1333 256.033C54.1492 256.152 57.1888 279.151 66.6132 282.348C76.0622 285.555 85.0474 284.445 91.5156 291.472C95.1059 295.372 100.362 297.757 107.612 297.757C113.423 297.757 120.517 296.224 129.057 292.711C123.46 298.066 117.923 301.284 113.635 303.19C113.633 303.19 113.631 303.19 113.629 303.192C113.622 303.196 113.615 303.197 113.609 303.201C113.6 303.205 113.591 303.208 113.583 303.212C108.225 305.585 104.035 309.922 101.987 315.317L96.2064 330.548Z" fill="#FFB7B1"/>
<path d="M238.765 50.7266C238.52 49.6809 237.563 48.9026 236.422 48.9026C236.212 48.9026 236.008 48.9282 235.814 48.9777C235.25 47.7983 234.029 46.9816 232.61 46.9816C232.243 46.9816 231.89 47.0365 231.557 47.1372C230.793 45.8993 229.405 45.0715 227.82 45.0715C225.935 45.0715 224.328 46.2436 223.72 47.8826C223.289 47.6482 222.793 47.5145 222.266 47.5145C220.611 47.5145 219.271 48.8257 219.271 50.4427C219.271 50.5379 219.277 50.6332 219.286 50.7266H238.765Z" fill="white"/>
<path d="M190.813 46.5151C190.173 43.7883 187.678 41.7519 184.697 41.7519C184.149 41.7519 183.619 41.8215 183.112 41.9497C181.641 38.8713 178.447 36.736 174.744 36.736C173.786 36.736 172.863 36.8788 171.995 37.1444C170 33.914 166.379 31.7531 162.24 31.7531C157.318 31.7531 153.125 34.8113 151.536 39.091C150.411 38.4775 149.116 38.1259 147.737 38.1259C143.422 38.1259 139.923 41.5505 139.923 45.7734C139.923 46.0243 139.937 46.2715 139.961 46.5151H190.813Z" fill="white"/>
<path d="M76.9944 75.8148C76.4584 73.5312 74.3708 71.8281 71.8754 71.8281C71.4172 71.8281 70.9729 71.8867 70.5492 71.9947C69.3176 69.4163 66.6446 67.6308 63.545 67.6308C62.7437 67.6308 61.9708 67.7498 61.2438 67.9714C59.575 65.2666 56.5437 63.4591 53.0803 63.4591C48.9598 63.4591 45.4504 66.0193 44.1205 69.6013C43.1792 69.0885 42.0955 68.7936 40.9415 68.7936C37.3297 68.7936 34.4019 71.6596 34.4019 75.194C34.4019 75.4028 34.4129 75.6097 34.4329 75.8148H76.9944Z" fill="white"/>
<path d="M60.7013 57.6509C76.7217 82.3898 116.208 104.435 116.208 104.435C116.208 104.435 84.819 101.941 69.2419 82.0876L74.8902 77.5112C74.8902 77.5112 70.4012 77.9361 66.6402 78.3609C63.1765 72.737 60.9324 65.9173 60.7013 57.6509Z" fill="#4925AD"/>
<path d="M102.737 67.8821C100.3 68.9644 96.6967 70.6126 96.6967 70.6126L100.169 65.7304C96.1247 62.6501 91.6741 60.5991 87.2637 59.2549C85.4758 61.8023 83.3747 64.6499 83.3747 64.6499L82.9578 58.1507C71.1364 55.6583 60.7013 57.6507 60.7013 57.6507C76.7217 82.3896 116.208 104.435 116.208 104.435C116.029 86.2592 110.374 74.9106 102.737 67.8821Z" fill="#764AF1"/>
<path d="M54.819 92.5549C59.5307 89.8465 64.3123 88.3851 68.9582 87.7899C70.3581 89.3538 72.0752 91.1925 72.0752 91.1925L72.1706 87.5098C90.0272 86.6729 105.082 97.6789 105.082 97.6789C94.8641 103.762 86.0703 105.467 78.825 104.964C78.368 103.676 77.7188 101.759 77.7188 101.759L76.5064 104.722C73.0277 104.237 69.9456 103.252 67.2762 102.041C67.919 100.505 68.5931 98.7466 68.5931 98.7466L64.7857 100.788C58.2496 97.1698 54.819 92.5549 54.819 92.5549Z" fill="#FF5341"/>
<path d="M78.825 104.964C78.368 103.677 77.7188 101.759 77.7188 101.759L76.5064 104.722C73.0277 104.237 69.9456 103.252 67.2762 102.041C67.919 100.505 68.5931 98.7469 68.5931 98.7469L64.7857 100.789C58.2496 97.1702 54.819 92.5553 54.819 92.5553C75.5944 90.2332 105.082 97.6792 105.082 97.6792C94.8641 103.763 86.0703 105.468 78.825 104.964Z" fill="#F82C17"/>
<path d="M230.651 90.0148L229.142 101.123L237.208 95.3603L261.888 83.0211L242.797 84.7315C242.797 84.7315 233.072 87.0445 232.546 87.5114C232.018 87.9766 230.651 90.0148 230.651 90.0148Z" fill="#F82C17"/>
<path d="M222.571 83.3239L262.263 83.04L231.025 90.0319L222.571 83.3239Z" fill="#FF5341"/>
<path d="M243.783 101.21L233.383 93.0334L262.262 83.04L243.783 101.21Z" fill="#FF5341"/>
<path d="M226.558 95.8017C228.078 95.2431 229.197 95.1223 229.208 95.1205L229.133 94.4319C229.084 94.4355 227.911 94.5619 226.307 95.1534L226.558 95.8017Z" fill="#D07516"/>
<path d="M218.581 102.385C219.294 100.678 220.331 99.1896 221.657 97.9608L222.144 98.4644C220.89 99.6255 219.911 101.032 219.238 102.647L218.581 102.385ZM217.69 112.862C217.409 110.992 217.32 109.221 217.423 107.597L218.13 107.639C218.029 109.216 218.117 110.939 218.392 112.759L218.397 112.8L217.696 112.893L217.69 112.862ZM218.484 118.085L219.185 117.988C219.483 120.017 219.694 121.674 219.851 123.205L219.146 123.275C218.989 121.755 218.779 120.105 218.484 118.085ZM219.492 128.483L220.2 128.466C220.244 130.349 220.186 132.078 220.025 133.746L219.32 133.682C219.479 132.039 219.535 130.338 219.492 128.483ZM216.629 143.652C216.977 142.937 217.297 142.194 217.58 141.441C217.9 140.588 218.184 139.696 218.424 138.789L219.109 138.963C218.865 139.892 218.573 140.806 218.244 141.679C217.954 142.454 217.626 143.218 217.269 143.95L216.629 143.652ZM210.323 151.883C211.657 150.691 212.857 149.407 213.889 148.067L214.456 148.484C213.395 149.86 212.166 151.174 210.802 152.396L210.323 151.883ZM201.546 157.677C203.188 156.864 204.733 155.985 206.14 155.068L206.533 155.645C205.104 156.579 203.532 157.47 201.866 158.296L201.546 157.677Z" fill="#D07516"/>
<path d="M194.258 161.42C195.169 161.109 196.067 160.785 196.93 160.453L196.67 159.807C195.816 160.135 194.928 160.457 194.024 160.765L194.258 161.42Z" fill="#65CEFE"/>
<path d="M190.581 87.6907C190.581 87.6907 205.341 78.0233 208.712 84.3925C212.082 90.7618 189.534 113.299 189.534 113.299L190.581 87.6907Z" fill="#EAA0A0"/>
<path d="M190.581 129.814C190.581 129.814 205.341 120.147 208.712 126.516C212.082 132.885 189.534 155.423 189.534 155.423L190.581 129.814Z" fill="#EAA0A0"/>
<path d="M190.581 158.512C190.581 158.512 205.341 148.845 208.712 155.214C212.082 161.583 189.534 184.121 189.534 184.121L190.581 158.512Z" fill="#EAA0A0"/>
<path d="M180.388 76.8591H99.3564C93.3228 76.8591 88.4297 81.6443 88.4297 87.5502V249.614C88.4297 255.568 93.3742 260.307 99.3564 260.307H180.388C186.419 260.307 191.314 255.522 191.314 249.614V87.5502C191.314 81.593 186.363 76.8591 180.388 76.8591Z" fill="#8C4800"/>
<path d="M151.618 260.514L108.432 260.307H151.624C151.62 260.444 151.618 260.514 151.618 260.514Z" fill="#C9E1EC"/>
<path d="M106.515 268.017C90.6141 268.015 83.8059 260.609 82.5774 254.874C81.8824 251.627 85.0305 241.575 88.4297 232.149V249.614C88.4297 255.568 93.3742 260.307 99.3564 260.307H108.432L151.618 260.514C151.618 260.514 136.536 264.471 114.715 267.431C111.746 267.834 109.019 268.017 106.515 268.017Z" fill="#FFB7B1"/>
<path d="M185.992 91.433H93.7018V245.734H185.992V91.433Z" fill="white"/>
<path d="M171.07 149.448H108.316V149.689L136.731 171.904C138.357 173.183 141.025 173.183 142.655 171.904L171.07 149.689V149.448Z" fill="url(#paint0_linear_366_6154)"/>
<path d="M142.145 131.038C140.793 130.183 138.593 130.183 137.235 131.038L108.316 149.448C109.005 149.933 110.072 150.076 110.978 150.076H168.409C169.32 150.076 170.38 149.933 171.07 149.448L142.145 131.038Z" fill="url(#paint1_linear_366_6154)"/>
<path opacity="0.2" d="M162.104 143.742L154.176 138.696H125.206L113.748 145.991V153.937L136.731 171.905C138.357 173.184 141.025 173.184 142.655 171.905L162.104 156.7V143.742Z" fill="#7D7D7D"/>
<path d="M162.464 181.726H116.278C115.679 181.726 115.193 181.251 115.193 180.665V139.871C115.193 139.285 115.678 138.81 116.278 138.81H162.464C163.064 138.81 163.549 139.285 163.549 139.871V180.665C163.548 181.251 163.063 181.726 162.464 181.726Z" fill="#EBEBEB"/>
<path d="M149.779 151.304C149.374 150.89 148.955 150.463 148.797 150.088C148.651 149.744 148.642 149.174 148.634 148.622C148.617 147.595 148.6 146.432 147.774 145.624C146.948 144.815 145.759 144.798 144.71 144.782C144.146 144.774 143.564 144.766 143.212 144.623C142.83 144.468 142.392 144.058 141.969 143.662C141.228 142.964 140.385 142.175 139.263 142.175C138.142 142.175 137.3 142.964 136.558 143.662C136.134 144.058 135.698 144.468 135.314 144.623C134.965 144.766 134.381 144.774 133.816 144.782C132.768 144.798 131.579 144.815 130.753 145.624C129.926 146.432 129.915 147.595 129.893 148.622C129.885 149.174 129.876 149.744 129.73 150.088C129.572 150.462 129.153 150.89 128.748 151.304C128.035 152.03 127.228 152.854 127.228 153.952C127.228 155.05 128.035 155.874 128.748 156.6C129.153 157.015 129.572 157.442 129.73 157.817C129.876 158.161 129.885 158.731 129.893 159.283C129.909 160.309 129.926 161.472 130.753 162.281C131.579 163.09 132.768 163.106 133.816 163.122C134.381 163.131 134.963 163.139 135.314 163.282C135.697 163.437 136.134 163.847 136.558 164.243C137.299 164.94 138.142 165.73 139.263 165.73C140.385 165.73 141.227 164.94 141.969 164.243C142.392 163.847 142.829 163.437 143.212 163.282C143.564 163.139 144.146 163.131 144.71 163.122C145.759 163.106 146.948 163.09 147.774 162.281C148.6 161.472 148.617 160.309 148.634 159.283C148.642 158.731 148.651 158.161 148.797 157.817C148.955 157.443 149.374 157.015 149.779 156.6C150.491 155.875 151.298 155.05 151.298 153.952C151.298 152.854 150.491 152.031 149.779 151.304ZM144.17 152.024L138.152 157.913C138.072 157.991 137.978 158.053 137.873 158.095C137.769 158.138 137.657 158.159 137.544 158.159C137.431 158.159 137.319 158.138 137.215 158.095C137.111 158.053 137.016 157.991 136.936 157.913L134.357 155.389C134.196 155.231 134.105 155.017 134.105 154.794C134.105 154.57 134.196 154.356 134.357 154.198C134.518 154.041 134.737 153.952 134.965 153.952C135.193 153.952 135.412 154.041 135.573 154.198L137.544 156.128L142.953 150.833C143.033 150.755 143.128 150.693 143.232 150.651C143.337 150.609 143.449 150.587 143.562 150.587C143.675 150.587 143.786 150.609 143.891 150.651C143.995 150.693 144.09 150.755 144.17 150.833C144.25 150.911 144.313 151.004 144.356 151.106C144.4 151.209 144.422 151.318 144.422 151.429C144.422 151.539 144.4 151.649 144.356 151.751C144.313 151.853 144.25 151.946 144.17 152.024Z" fill="#F28F27"/>
<path d="M136.731 171.905L108.316 149.689V183.766C108.316 185.912 110.115 187.678 112.316 187.678H167.07C169.267 187.678 171.07 185.912 171.07 183.766V149.689L142.655 171.905C141.025 173.184 138.356 173.184 136.731 171.905Z" fill="url(#paint2_linear_366_6154)"/>
<path d="M142.03 169.528C140.741 168.712 138.644 168.712 137.349 169.528L109.994 186.933C110.652 187.395 111.453 187.678 112.316 187.678H167.07C167.939 187.678 168.734 187.395 169.391 186.933L142.03 169.528Z" fill="url(#paint3_linear_366_6154)"/>
<path d="M88.4296 200.04C87.8777 198.039 87.6842 195.942 87.8704 193.845L88.4296 187.553V200.04Z" fill="#C0E8F7"/>
<path d="M191.314 111.472V108.094H192.276C192.936 108.094 193.567 108.218 194.145 108.445C193.052 109.639 192.079 110.67 191.314 111.472Z" fill="#E09D9E"/>
<path d="M158.75 86.5831H121.143C120.623 86.5831 120.201 86.1693 120.201 85.6602V85.5723C120.201 85.0613 120.623 84.6493 121.143 84.6493H158.75C159.27 84.6493 159.693 85.0613 159.693 85.5723V85.6602C159.693 86.1693 159.27 86.5831 158.75 86.5831Z" fill="white"/>
<path d="M86.5928 184.766C86.5928 184.766 87.1496 186.792 88.4088 187.788L89.9051 170.947C89.9051 170.947 100.635 159.212 98.0424 143.386C97.1549 137.968 94.4014 132.983 90.19 129.359C87.7862 127.291 85.1456 125.908 83.5896 127.855C83.5896 127.855 71.4342 156.182 63.0354 176.873L86.5928 184.766Z" fill="#FFC0BB"/>
<path d="M186.016 236.607H93.7266V245.734H186.016V236.607Z" fill="#D07516"/>
<path d="M186.016 91.433H93.7266V99.6207H186.016V91.433Z" fill="#D07516"/>
<path d="M85.7753 144.493C89.1339 142.982 90.8875 134.43 91.5155 130.584C88.8201 127.93 85.439 125.542 83.5896 127.855C83.5896 127.855 80.9131 134.093 77.2042 142.852C79.74 144.233 83.264 145.624 85.7753 144.493Z" fill="#EAA0A0"/>
<path d="M170.406 193.057C170.406 193.057 157.941 194.08 157.505 197.322C157.069 200.563 158.029 206.279 169.796 207.388H181.986C181.986 207.388 178.339 197.492 178.513 197.152C178.687 196.811 170.406 193.057 170.406 193.057Z" fill="#EFADAB"/>
<path d="M150.396 241.374C148.803 242.252 148.249 244.342 149.153 245.963C154.563 255.655 176.071 294.178 178.011 297.311C180.229 300.898 185.656 309.352 203.658 313.708C221.66 318.065 229.057 330.619 229.057 330.619H284.544C284.544 330.619 271.475 309.097 260.623 253.24C260.623 253.24 252.239 206.865 236.457 208.401C236.457 208.401 226.839 197.897 217.467 199.947C217.467 199.947 199.712 188.929 189.602 188.929L165.315 159.109C162.912 156.157 158.675 155.579 155.719 157.928C154.768 158.683 154.044 159.683 153.843 161.001C153.103 165.869 159.268 178.168 169.132 193.029C178.997 207.89 203.411 255.034 192.806 275.787C192.806 275.787 181.957 267.333 172.586 253.754C164.738 242.38 155.507 238.556 150.396 241.374Z" fill="#FFC0BB"/>
<path d="M189.496 189.042C192.913 191.905 196.115 195.011 199.141 198.272C203.226 202.623 208.383 209.073 211.411 214.054C215.231 220.213 217.751 225.615 218.943 232.396L218.866 232.413C217.495 226.04 213.909 219.178 210.788 214.437C208.451 210.73 204.126 204.841 198.673 198.67C195.936 195.578 192.462 191.927 189.442 189.099L189.496 189.042Z" fill="#EAA0A0"/>
<path d="M217.063 199.955C219.844 201.347 222.321 203.29 224.513 205.485C226.73 207.67 228.573 210.15 230.16 212.856C231.708 215.541 232.896 218.422 233.693 221.392C234.369 224.176 234.807 226.064 234.878 230.47L234.799 230.475C234.541 227.457 233.978 224.467 233.104 221.564C232.221 218.755 230.98 215.737 229.477 213.234C227.971 210.591 226.139 208.13 224.058 205.894C222.089 203.786 219.515 201.508 217.024 200.023L217.063 199.955Z" fill="#EAA0A0"/>
<path d="M236.29 208.264C238.749 210.083 241.238 213.306 242.445 215.482C243.964 218.038 245.167 221.007 245.961 224.255C246.541 226.334 246.689 228.352 246.78 230.465L246.702 230.476C246.341 228.429 246.112 226.901 245.368 224.42C244.224 220.66 243.328 218.727 241.795 215.828C240.882 214.042 238.506 210.502 236.254 208.321L236.29 208.264Z" fill="#EAA0A0"/>
<path d="M162.283 253.324C162.805 250.735 159.719 246.625 156.92 243.525C155.172 241.591 152.413 240.868 149.986 241.677C148.629 242.659 148.216 244.521 149.089 245.995C150.63 248.596 153.405 253.278 156.678 258.792C159.128 257.571 161.8 255.723 162.283 253.324Z" fill="#EAA0A0"/>
<path d="M164.755 170.936C166.242 170.645 172.992 168.447 172.579 167.244L165.922 159.545C164.599 158.016 162.754 157.126 160.847 156.95L160.816 156.947C160.761 156.941 160.64 156.934 160.469 156.934C159.577 156.934 157.378 157.183 156.895 159.549C156.418 161.884 160.368 167.561 162.111 169.921C162.713 170.738 163.746 171.134 164.755 170.936Z" fill="#EAA0A0"/>
<path d="M46.599 290.307C53.9727 294.741 77.7111 307.997 102.257 310.823C103.695 310.99 104.706 312.279 104.281 313.392L99.9927 324.633C99.709 325.376 98.8548 325.81 97.8955 325.697C90.6618 324.838 60.8147 320.441 39.8142 304.542C39.0996 304.001 38.7981 303.181 39.0654 302.48L43.4414 291.008C43.8534 289.93 45.3986 289.585 46.599 290.307Z" fill="#8C4800"/>
<path d="M44.4446 301.057L44.3634 301.026C43.9328 300.868 43.7142 300.4 43.8749 299.978L45.195 296.519C45.3557 296.098 45.8351 295.884 46.2655 296.041L46.3468 296.07C46.7772 296.228 46.9959 296.697 46.8352 297.118L45.5151 300.577C45.3542 300.998 44.875 301.213 44.4446 301.057Z" fill="#AE5D08"/>
<path d="M48.8598 303.719L48.7788 303.688C48.3482 303.531 48.1295 303.062 48.2902 302.641L49.6104 299.182C49.771 298.76 50.2504 298.546 50.6808 298.704L50.762 298.733C51.1926 298.89 51.4113 299.359 51.2506 299.78L49.9304 303.24C49.7697 303.663 49.2904 303.877 48.8598 303.719Z" fill="#AE5D08"/>
<path d="M53.2415 306.349C52.7885 306.182 52.5585 305.69 52.7276 305.247L54.0173 301.866C54.1865 301.423 54.6908 301.198 55.1439 301.362C55.5967 301.529 55.8267 302.022 55.6575 302.465L54.3676 305.845C54.1987 306.289 53.6944 306.514 53.2415 306.349Z" fill="#AE5D08"/>
<path d="M57.8331 308.513L57.7519 308.484C57.3215 308.327 57.1027 307.858 57.2633 307.437L58.5836 303.977C58.7442 303.554 59.2236 303.342 59.654 303.498L59.7352 303.529C60.1656 303.686 60.3844 304.155 60.2237 304.576L58.9036 308.035C58.7429 308.457 58.2637 308.671 57.8331 308.513Z" fill="#AE5D08"/>
<path d="M62.3104 311.015L62.2294 310.984C61.7988 310.829 61.58 310.358 61.7408 309.937L63.0608 306.477C63.2215 306.056 63.701 305.842 64.1314 305.999L64.2126 306.029C64.6432 306.186 64.8617 306.655 64.701 307.076L63.381 310.537C63.2202 310.959 62.7408 311.173 62.3104 311.015Z" fill="#AE5D08"/>
<path d="M66.9852 312.997L66.904 312.967C66.4734 312.81 66.2549 312.341 66.4156 311.92L67.7356 308.459C67.8964 308.038 68.3756 307.825 68.8062 307.981L68.8874 308.012C69.3178 308.168 69.5366 308.638 69.3758 309.059L68.0558 312.519C67.8949 312.94 67.4156 313.154 66.9852 312.997Z" fill="#AE5D08"/>
<path d="M71.7522 314.738L71.671 314.709C71.2404 314.551 71.0217 314.082 71.1824 313.661L72.5026 310.202C72.6634 309.779 73.1426 309.566 73.5732 309.722L73.6542 309.753C74.0848 309.911 74.3036 310.38 74.1428 310.801L72.8226 314.26C72.6621 314.681 72.1828 314.895 71.7522 314.738Z" fill="#AE5D08"/>
<path d="M76.5702 316.225C76.1172 316.059 75.8872 315.566 76.0564 315.123L77.3461 311.742C77.5152 311.299 78.0194 311.074 78.4724 311.239C78.9253 311.404 79.1552 311.898 78.9863 312.341L77.6964 315.722C77.5274 316.165 77.0231 316.39 76.5702 316.225Z" fill="#AE5D08"/>
<path d="M81.6261 317.207C81.1733 317.042 80.9433 316.55 81.1122 316.106L82.4021 312.724C82.5713 312.281 83.0756 312.056 83.5287 312.222C83.9813 312.387 84.2113 312.882 84.0423 313.325L82.7524 316.705C82.5835 317.148 82.0791 317.374 81.6261 317.207Z" fill="#AE5D08"/>
<path d="M86.59 318.555L86.5088 318.526C86.0782 318.368 85.8596 317.899 86.0203 317.478L87.3405 314.017C87.5011 313.596 87.9805 313.382 88.4109 313.539L88.4921 313.568C88.9227 313.726 89.1415 314.195 88.9806 314.616L87.6605 318.077C87.4998 318.498 87.0205 318.713 86.59 318.555Z" fill="#AE5D08"/>
<path d="M91.7011 319.393L91.6201 319.362C91.1895 319.207 90.9707 318.736 91.1315 318.315L92.4517 314.856C92.6124 314.434 93.0916 314.22 93.5222 314.378L93.6033 314.407C94.0338 314.564 94.2526 315.033 94.0919 315.454L92.7717 318.915C92.6111 319.337 92.1317 319.551 91.7011 319.393Z" fill="#AE5D08"/>
<path d="M96.7788 320.198H96.7786C96.3258 320.033 96.0958 319.54 96.2648 319.097L97.5548 315.715C97.7238 315.272 98.2281 315.046 98.681 315.213C99.1338 315.378 99.3638 315.872 99.1949 316.315L97.9052 319.696C97.736 320.139 97.2317 320.364 96.7788 320.198Z" fill="#AE5D08"/>
<path d="M61.1691 316.335L61.1891 316.282C61.1112 316.271 61.0336 316.255 60.9572 316.227L55.1483 314.105C54.5748 313.894 54.2965 313.231 54.5278 312.625L59.7656 298.894C59.9967 298.288 60.6516 297.966 61.2252 298.175L67.0341 300.297C67.3743 300.422 67.6093 300.707 67.6971 301.044C68.1529 301.238 68.6122 301.432 69.077 301.627C69.2323 300.473 68.6267 299.35 67.5459 298.957L61.737 296.834C60.4639 296.369 59.0103 297.085 58.497 298.431L53.2592 312.16C52.7456 313.508 53.3637 314.98 54.6365 315.445L60.4454 317.568C61.3169 317.887 62.2724 317.65 62.9535 317.039C62.3596 316.81 61.7647 316.575 61.1691 316.335Z" fill="#F28F27"/>
<path d="M59.8944 305.44L57.3678 304.517C56.9147 304.352 56.3996 304.605 56.2167 305.084C56.0341 305.562 56.2532 306.086 56.7061 306.251L59.2329 307.174L59.8944 305.44Z" fill="#EEFBFF"/>
<path d="M204.674 313.826C204.657 313.822 204.641 313.819 204.624 313.813C204.641 313.819 204.659 313.822 204.674 313.826ZM284.542 330.617C284.424 330.419 276.02 316.357 267.174 281.827V281.825C276.02 316.359 284.424 330.419 284.542 330.617ZM204.542 313.793C204.537 313.791 204.53 313.791 204.523 313.789C204.528 313.789 204.537 313.793 204.542 313.793ZM204.237 313.718C204.233 313.717 204.228 313.717 204.225 313.715C204.228 313.717 204.232 313.717 204.237 313.718ZM204.087 313.68C204.084 313.68 204.08 313.678 204.077 313.678C204.08 313.678 204.085 313.68 204.087 313.68ZM204.037 313.667C204.035 313.667 204.031 313.666 204.03 313.666C204.031 313.666 204.033 313.667 204.037 313.667ZM180.036 298.633C180.035 298.631 180.035 298.628 180.033 298.626C180.035 298.63 180.035 298.631 180.036 298.633Z" fill="#FFF2F1"/>
<path d="M284.544 330.619H229.755C229.755 330.619 222.45 318.152 204.674 313.826C204.659 313.822 204.641 313.819 204.624 313.813C204.613 313.811 204.603 313.808 204.592 313.806C204.585 313.804 204.58 313.802 204.573 313.802C204.563 313.799 204.554 313.797 204.542 313.793C204.537 313.793 204.528 313.789 204.523 313.789C204.514 313.786 204.504 313.784 204.493 313.782C204.486 313.78 204.479 313.779 204.472 313.777C204.462 313.773 204.451 313.771 204.439 313.768C204.434 313.768 204.429 313.766 204.423 313.764C204.411 313.762 204.401 313.759 204.389 313.757C204.383 313.755 204.378 313.753 204.373 313.751C204.361 313.749 204.348 313.746 204.336 313.742C204.333 313.742 204.328 313.74 204.324 313.74C204.312 313.737 204.301 313.735 204.289 313.731C204.284 313.729 204.279 313.728 204.274 313.728C204.261 313.724 204.249 313.72 204.237 313.718C204.232 313.717 204.228 313.717 204.225 313.715C204.213 313.711 204.2 313.709 204.188 313.706C204.183 313.704 204.179 313.704 204.174 313.702C204.162 313.698 204.15 313.697 204.138 313.693C204.132 313.691 204.129 313.691 204.125 313.689C204.113 313.688 204.099 313.684 204.087 313.68C204.085 313.68 204.08 313.678 204.077 313.678C204.063 313.675 204.049 313.671 204.037 313.667C204.033 313.667 204.031 313.666 204.03 313.666C204.016 313.662 204.002 313.658 203.988 313.655C203.984 313.655 203.983 313.655 203.979 313.653C203.965 313.649 203.951 313.646 203.937 313.642H203.932C203.916 313.637 203.904 313.635 203.888 313.629H203.883C188.34 309.658 182.589 302.55 180.042 298.64C180.042 298.64 180.042 298.639 180.04 298.639C180.04 298.637 180.038 298.635 180.036 298.633C180.035 298.631 180.035 298.63 180.033 298.626C180.031 298.624 180.031 298.624 180.029 298.622C179.9 298.424 179.78 298.234 179.667 298.054C184.555 300.449 216.796 307.59 229.912 307.59C231.18 307.59 232.269 307.522 233.139 307.378C241.698 305.958 263.266 307.435 267.174 281.825C276.02 316.357 284.424 330.419 284.542 330.617H284.544V330.619Z" fill="#FFB7B1"/>
<path d="M198.111 264.874C198.476 255.734 195.536 244.464 191.314 233.436V233.138C195.588 244.21 198.548 255.564 198.111 264.874Z" fill="#C9E1EC"/>
<path d="M191.314 233.437C189.697 229.217 187.893 225.031 186.016 221.017V220.835C187.895 224.813 189.699 228.957 191.314 233.138V233.437Z" fill="#063B6A"/>
<path d="M186.016 221.016C183.741 216.147 181.353 211.525 179.061 207.388H179.087C181.377 211.485 183.75 216.039 186.016 220.835V221.016Z" fill="#FFF2F1"/>
<path d="M179.087 207.388H179.061C177.053 203.766 175.116 200.517 173.385 197.796C175.131 200.539 177.075 203.786 179.087 207.388Z" fill="#EFA4A2"/>
<path d="M202.175 282.349L195.378 275.784C197.096 272.734 197.944 269.022 198.111 264.874C198.548 255.564 195.588 244.21 191.314 233.138C189.699 228.957 187.895 224.813 186.016 220.836C183.75 216.039 181.377 211.485 179.087 207.388C177.075 203.786 175.131 200.539 173.387 197.796C179.341 204.856 185.663 213.12 192.021 222.674C219.348 263.732 202.175 282.349 202.175 282.349Z" fill="#FFB7B1"/>
<path d="M14.1246 115.902C11.7308 104.05 29.7973 100.067 32.7051 111.809C32.9678 112.871 33.137 114.056 33.1898 115.378C33.7525 129.49 25.0294 144.853 15.7432 142.267C6.45728 139.679 11.8038 130.041 14.6177 124.258C15.9307 121.561 14.7419 118.958 14.1246 115.902Z" fill="#F28F27"/>
<path d="M276.926 90.0497C271.634 88.2422 265.837 91.0001 263.845 96.1296C262.296 100.116 260.524 105.678 260.363 110.569C260.073 119.394 263.658 138.335 277.371 143.012C291.084 147.688 299.267 135.352 290.137 121.077C286.237 114.981 288.184 93.8972 276.926 90.0497Z" fill="#F28F27"/>
<path d="M33.6756 187.892C32.4475 186.854 31.4396 186.363 31.4295 186.358L31.7428 185.737C31.7871 185.757 32.8427 186.272 34.1388 187.369L33.6756 187.892Z" fill="#D07516"/>
<path d="M38.1313 196.79C38.0675 195.047 37.6459 193.395 36.8781 191.882L37.513 191.575C38.3259 193.175 38.7722 194.922 38.8394 196.767L38.1313 196.79ZM35.9634 206.928L35.3378 206.602L35.3576 206.566C36.256 204.951 36.9467 203.365 37.4093 201.85L38.0882 202.05C37.6116 203.608 36.902 205.242 35.9789 206.899L35.9634 206.928ZM30.9382 216.18L30.3008 215.878C30.9893 214.493 31.7733 213.008 32.7681 211.204L33.3918 211.534C32.4019 213.331 31.6221 214.807 30.9382 216.18ZM27.1037 225.888L26.4186 225.71C26.8561 224.089 27.4121 222.449 28.1176 220.696L28.777 220.951C28.0814 222.677 27.5341 224.293 27.1037 225.888ZM25.4058 236.218C25.3295 235.41 25.291 234.583 25.291 233.759C25.2911 232.826 25.3405 231.871 25.4382 230.916L26.1431 230.986C26.0479 231.916 25.9998 232.848 25.9996 233.759C25.9996 234.561 26.0372 235.367 26.1113 236.154L25.4058 236.218ZM28.4963 246.33C27.6456 244.723 26.9558 243.073 26.4465 241.424L27.1246 241.223C27.6217 242.831 28.295 244.441 29.1256 246.01L28.4963 246.33ZM34.8003 254.886C33.5271 253.549 32.368 252.181 31.3547 250.821L31.9272 250.412C32.924 251.749 34.0651 253.095 35.3191 254.414L34.8003 254.886Z" fill="#D07516"/>
<path d="M40.8386 260.389C40.0919 259.79 39.3631 259.18 38.672 258.578L39.1436 258.062C39.8273 258.657 40.5487 259.259 41.2879 259.853L40.8386 260.389Z" fill="#D07516"/>
<path d="M29.0095 176.159L28.0718 187.328L21.4419 180.021L0 162.836L18.2845 168.473C18.2845 168.473 27.2868 172.753 27.6999 173.318C28.1131 173.883 29.0095 176.159 29.0095 176.159Z" fill="#4925AD"/>
<path d="M38.7259 171.359L0 162.836L29.0095 176.159L38.7259 171.359Z" fill="#764AF1"/>
<path d="M14.1164 184.431L26.053 178.602L0 162.836L14.1164 184.431Z" fill="#764AF1"/>
<path d="M190.156 69.5887C190.663 67.4278 192.637 65.8162 194.998 65.8162C195.433 65.8162 195.854 65.8712 196.254 65.9737C197.42 63.5344 199.948 61.8441 202.882 61.8441C203.64 61.8441 204.372 61.9577 205.059 62.1665C206.638 59.6081 209.507 57.8977 212.783 57.8977C216.683 57.8977 220.005 60.3187 221.262 63.7084C222.153 63.2231 223.178 62.9448 224.271 62.9448C227.688 62.9448 230.46 65.6569 230.46 69.0009C230.46 69.2005 230.448 69.3946 230.43 69.5887H190.156Z" fill="white"/>
<path d="M84.8828 35.8933C85.2456 34.3477 86.6594 33.194 88.3493 33.194C88.6594 33.194 88.9605 33.2324 89.2472 33.3057C90.0812 31.5604 91.8913 30.3518 93.9904 30.3518C94.5331 30.3518 95.0565 30.4324 95.5486 30.5825C96.6785 28.7512 98.7315 27.5261 101.077 27.5261C103.867 27.5261 106.243 29.2603 107.144 31.685C107.782 31.3389 108.515 31.1393 109.297 31.1393C111.742 31.1393 113.725 33.0786 113.725 35.4721C113.725 35.6149 113.718 35.7541 113.704 35.8933H84.8828Z" fill="white"/>
<path d="M228.935 149.227C228.935 149.227 228.329 155.076 223.613 155.48C228.329 155.885 228.935 161.734 228.935 161.734C228.935 161.734 229.541 155.885 234.257 155.48C229.541 155.076 228.935 149.227 228.935 149.227Z" fill="white"/>
<path d="M56.6342 105.998C56.6342 105.998 56.0279 111.847 51.3115 112.252C56.0279 112.657 56.6342 118.506 56.6342 118.506C56.6342 118.506 57.2403 112.657 61.9569 112.252C57.2403 111.847 56.6342 105.998 56.6342 105.998Z" fill="white"/>
<path d="M241.412 133.044C241.412 133.044 241.012 136.914 237.893 137.181C241.012 137.449 241.412 141.318 241.412 141.318C241.412 141.318 241.815 137.449 244.934 137.181C241.815 136.914 241.412 133.044 241.412 133.044Z" fill="white"/>
<path d="M66.5564 39.2078C66.5564 39.2078 66.1554 43.0754 63.0354 43.3446C66.1554 43.612 66.5564 47.4816 66.5564 47.4816C66.5564 47.4816 66.9575 43.612 70.0775 43.3446C66.9575 43.0754 66.5564 39.2078 66.5564 39.2078Z" fill="white"/>
<path d="M223.182 150.544C223.182 150.544 223.002 152.275 221.607 152.396C223.002 152.515 223.182 154.245 223.182 154.245C223.182 154.245 223.362 152.515 224.758 152.396C223.362 152.275 223.182 150.544 223.182 150.544Z" fill="white"/>
<path d="M60.8228 128.839C60.8228 128.839 60.6434 130.571 59.2474 130.69C60.6434 130.809 60.8228 132.542 60.8228 132.542C60.8228 132.542 61.0021 130.809 62.3983 130.69C61.0021 130.571 60.8228 128.839 60.8228 128.839Z" fill="white"/>
<rect y="330.619" width="293.141" height="40.381" rx="8" fill="#F28F27"/>
<path d="M40.5354 358.049C39.4154 358.049 38.3421 357.903 37.3154 357.609C36.2887 357.303 35.4621 356.909 34.8354 356.429L35.9354 353.989C36.5354 354.416 37.2421 354.769 38.0554 355.049C38.8821 355.316 39.7154 355.449 40.5554 355.449C41.1954 355.449 41.7087 355.389 42.0954 355.269C42.4954 355.136 42.7887 354.956 42.9754 354.729C43.1621 354.503 43.2554 354.243 43.2554 353.949C43.2554 353.576 43.1087 353.283 42.8154 353.069C42.5221 352.843 42.1354 352.663 41.6554 352.529C41.1754 352.383 40.6421 352.249 40.0554 352.129C39.4821 351.996 38.9021 351.836 38.3154 351.649C37.7421 351.463 37.2154 351.223 36.7354 350.929C36.2554 350.636 35.8621 350.249 35.5554 349.769C35.2621 349.289 35.1154 348.676 35.1154 347.929C35.1154 347.129 35.3287 346.403 35.7554 345.749C36.1954 345.083 36.8487 344.556 37.7154 344.169C38.5954 343.769 39.6954 343.569 41.0154 343.569C41.8954 343.569 42.7621 343.676 43.6154 343.889C44.4687 344.089 45.2221 344.396 45.8754 344.809L44.8754 347.269C44.2221 346.896 43.5687 346.623 42.9154 346.449C42.2621 346.263 41.6221 346.169 40.9954 346.169C40.3687 346.169 39.8554 346.243 39.4554 346.389C39.0554 346.536 38.7687 346.729 38.5954 346.969C38.4221 347.196 38.3354 347.463 38.3354 347.769C38.3354 348.129 38.4821 348.423 38.7754 348.649C39.0687 348.863 39.4554 349.036 39.9354 349.169C40.4154 349.303 40.9421 349.436 41.5154 349.569C42.1021 349.703 42.6821 349.856 43.2554 350.029C43.8421 350.203 44.3754 350.436 44.8554 350.729C45.3354 351.023 45.7221 351.409 46.0154 351.889C46.3221 352.369 46.4754 352.976 46.4754 353.709C46.4754 354.496 46.2554 355.216 45.8154 355.869C45.3754 356.523 44.7154 357.049 43.8354 357.449C42.9687 357.849 41.8687 358.049 40.5354 358.049ZM54.9093 358.049C52.9226 358.049 51.3693 357.496 50.2493 356.389C49.1293 355.283 48.5693 353.703 48.5693 351.649V343.809H51.8093V351.529C51.8093 352.863 52.0826 353.823 52.6293 354.409C53.176 354.996 53.9426 355.289 54.9293 355.289C55.916 355.289 56.6826 354.996 57.2293 354.409C57.776 353.823 58.0493 352.863 58.0493 351.529V343.809H61.2493V351.649C61.2493 353.703 60.6893 355.283 59.5693 356.389C58.4493 357.496 56.896 358.049 54.9093 358.049ZM64.451 357.809V343.809H71.291C73.051 343.809 74.371 344.143 75.251 344.809C76.1443 345.476 76.591 346.356 76.591 347.449C76.591 348.183 76.411 348.823 76.051 349.369C75.691 349.903 75.1977 350.316 74.571 350.609C73.9444 350.903 73.2243 351.049 72.411 351.049L72.791 350.229C73.671 350.229 74.451 350.376 75.131 350.669C75.811 350.949 76.3377 351.369 76.711 351.929C77.0977 352.489 77.291 353.176 77.291 353.989C77.291 355.189 76.8177 356.129 75.871 356.809C74.9243 357.476 73.531 357.809 71.691 357.809H64.451ZM67.671 355.369H71.451C72.291 355.369 72.9243 355.236 73.351 354.969C73.791 354.689 74.011 354.249 74.011 353.649C74.011 353.063 73.791 352.629 73.351 352.349C72.9243 352.056 72.291 351.909 71.451 351.909H67.431V349.549H70.891C71.6777 349.549 72.2777 349.416 72.691 349.149C73.1177 348.869 73.331 348.449 73.331 347.889C73.331 347.343 73.1177 346.936 72.691 346.669C72.2777 346.389 71.6777 346.249 70.891 346.249H67.671V355.369ZM79.744 357.809V343.809H82.424L88.384 353.689H86.964L92.824 343.809H95.484L95.524 357.809H92.484L92.464 348.469H93.024L88.344 356.329H86.884L82.104 348.469H82.784V357.809H79.744ZM98.8455 357.809V343.809H102.086V357.809H98.8455ZM108.308 357.809V346.449H103.828V343.809H116.028V346.449H111.548V357.809H108.308ZM128.035 358.049C126.915 358.049 125.842 357.903 124.815 357.609C123.789 357.303 122.962 356.909 122.335 356.429L123.435 353.989C124.035 354.416 124.742 354.769 125.555 355.049C126.382 355.316 127.215 355.449 128.055 355.449C128.695 355.449 129.209 355.389 129.595 355.269C129.995 355.136 130.289 354.956 130.475 354.729C130.662 354.503 130.755 354.243 130.755 353.949C130.755 353.576 130.609 353.283 130.315 353.069C130.022 352.843 129.635 352.663 129.155 352.529C128.675 352.383 128.142 352.249 127.555 352.129C126.982 351.996 126.402 351.836 125.815 351.649C125.242 351.463 124.715 351.223 124.235 350.929C123.755 350.636 123.362 350.249 123.055 349.769C122.762 349.289 122.615 348.676 122.615 347.929C122.615 347.129 122.829 346.403 123.255 345.749C123.695 345.083 124.349 344.556 125.215 344.169C126.095 343.769 127.195 343.569 128.515 343.569C129.395 343.569 130.262 343.676 131.115 343.889C131.969 344.089 132.722 344.396 133.375 344.809L132.375 347.269C131.722 346.896 131.069 346.623 130.415 346.449C129.762 346.263 129.122 346.169 128.495 346.169C127.869 346.169 127.355 346.243 126.955 346.389C126.555 346.536 126.269 346.729 126.095 346.969C125.922 347.196 125.835 347.463 125.835 347.769C125.835 348.129 125.982 348.423 126.275 348.649C126.569 348.863 126.955 349.036 127.435 349.169C127.915 349.303 128.442 349.436 129.015 349.569C129.602 349.703 130.182 349.856 130.755 350.029C131.342 350.203 131.875 350.436 132.355 350.729C132.835 351.023 133.222 351.409 133.515 351.889C133.822 352.369 133.975 352.976 133.975 353.709C133.975 354.496 133.755 355.216 133.315 355.869C132.875 356.523 132.215 357.049 131.335 357.449C130.469 357.849 129.369 358.049 128.035 358.049ZM142.409 358.049C140.423 358.049 138.869 357.496 137.749 356.389C136.629 355.283 136.069 353.703 136.069 351.649V343.809H139.309V351.529C139.309 352.863 139.583 353.823 140.129 354.409C140.676 354.996 141.443 355.289 142.429 355.289C143.416 355.289 144.183 354.996 144.729 354.409C145.276 353.823 145.549 352.863 145.549 351.529V343.809H148.749V351.649C148.749 353.703 148.189 355.283 147.069 356.389C145.949 357.496 144.396 358.049 142.409 358.049ZM158.651 358.049C157.571 358.049 156.564 357.876 155.631 357.529C154.711 357.169 153.911 356.663 153.231 356.009C152.551 355.356 152.018 354.589 151.631 353.709C151.258 352.829 151.071 351.863 151.071 350.809C151.071 349.756 151.258 348.789 151.631 347.909C152.018 347.029 152.551 346.263 153.231 345.609C153.924 344.956 154.731 344.456 155.651 344.109C156.571 343.749 157.578 343.569 158.671 343.569C159.884 343.569 160.978 343.783 161.951 344.209C162.938 344.623 163.764 345.236 164.431 346.049L162.351 347.969C161.871 347.423 161.338 347.016 160.751 346.749C160.164 346.469 159.524 346.329 158.831 346.329C158.178 346.329 157.578 346.436 157.031 346.649C156.484 346.863 156.011 347.169 155.611 347.569C155.211 347.969 154.898 348.443 154.671 348.989C154.458 349.536 154.351 350.143 154.351 350.809C154.351 351.476 154.458 352.083 154.671 352.629C154.898 353.176 155.211 353.649 155.611 354.049C156.011 354.449 156.484 354.756 157.031 354.969C157.578 355.183 158.178 355.289 158.831 355.289C159.524 355.289 160.164 355.156 160.751 354.889C161.338 354.609 161.871 354.189 162.351 353.629L164.431 355.549C163.764 356.363 162.938 356.983 161.951 357.409C160.978 357.836 159.878 358.049 158.651 358.049ZM173.026 358.049C171.946 358.049 170.939 357.876 170.006 357.529C169.086 357.169 168.286 356.663 167.606 356.009C166.926 355.356 166.393 354.589 166.006 353.709C165.633 352.829 165.446 351.863 165.446 350.809C165.446 349.756 165.633 348.789 166.006 347.909C166.393 347.029 166.926 346.263 167.606 345.609C168.299 344.956 169.106 344.456 170.026 344.109C170.946 343.749 171.953 343.569 173.046 343.569C174.259 343.569 175.353 343.783 176.326 344.209C177.313 344.623 178.139 345.236 178.806 346.049L176.726 347.969C176.246 347.423 175.713 347.016 175.126 346.749C174.539 346.469 173.899 346.329 173.206 346.329C172.553 346.329 171.953 346.436 171.406 346.649C170.859 346.863 170.386 347.169 169.986 347.569C169.586 347.969 169.273 348.443 169.046 348.989C168.833 349.536 168.726 350.143 168.726 350.809C168.726 351.476 168.833 352.083 169.046 352.629C169.273 353.176 169.586 353.649 169.986 354.049C170.386 354.449 170.859 354.756 171.406 354.969C171.953 355.183 172.553 355.289 173.206 355.289C173.899 355.289 174.539 355.156 175.126 354.889C175.713 354.609 176.246 354.189 176.726 353.629L178.806 355.549C178.139 356.363 177.313 356.983 176.326 357.409C175.353 357.836 174.253 358.049 173.026 358.049ZM183.974 349.449H190.714V351.969H183.974V349.449ZM184.214 355.209H191.834V357.809H180.994V343.809H191.574V346.409H184.214V355.209ZM199.012 358.049C197.892 358.049 196.819 357.903 195.792 357.609C194.765 357.303 193.939 356.909 193.312 356.429L194.412 353.989C195.012 354.416 195.719 354.769 196.532 355.049C197.359 355.316 198.192 355.449 199.032 355.449C199.672 355.449 200.185 355.389 200.572 355.269C200.972 355.136 201.265 354.956 201.452 354.729C201.639 354.503 201.732 354.243 201.732 353.949C201.732 353.576 201.585 353.283 201.292 353.069C200.999 352.843 200.612 352.663 200.132 352.529C199.652 352.383 199.119 352.249 198.532 352.129C197.959 351.996 197.379 351.836 196.792 351.649C196.219 351.463 195.692 351.223 195.212 350.929C194.732 350.636 194.339 350.249 194.032 349.769C193.739 349.289 193.592 348.676 193.592 347.929C193.592 347.129 193.805 346.403 194.232 345.749C194.672 345.083 195.325 344.556 196.192 344.169C197.072 343.769 198.172 343.569 199.492 343.569C200.372 343.569 201.239 343.676 202.092 343.889C202.945 344.089 203.699 344.396 204.352 344.809L203.352 347.269C202.699 346.896 202.045 346.623 201.392 346.449C200.739 346.263 200.099 346.169 199.472 346.169C198.845 346.169 198.332 346.243 197.932 346.389C197.532 346.536 197.245 346.729 197.072 346.969C196.899 347.196 196.812 347.463 196.812 347.769C196.812 348.129 196.959 348.423 197.252 348.649C197.545 348.863 197.932 349.036 198.412 349.169C198.892 349.303 199.419 349.436 199.992 349.569C200.579 349.703 201.159 349.856 201.732 350.029C202.319 350.203 202.852 350.436 203.332 350.729C203.812 351.023 204.199 351.409 204.492 351.889C204.799 352.369 204.952 352.976 204.952 353.709C204.952 354.496 204.732 355.216 204.292 355.869C203.852 356.523 203.192 357.049 202.312 357.449C201.445 357.849 200.345 358.049 199.012 358.049ZM211.766 358.049C210.646 358.049 209.573 357.903 208.546 357.609C207.519 357.303 206.693 356.909 206.066 356.429L207.166 353.989C207.766 354.416 208.473 354.769 209.286 355.049C210.113 355.316 210.946 355.449 211.786 355.449C212.426 355.449 212.939 355.389 213.326 355.269C213.726 355.136 214.019 354.956 214.206 354.729C214.393 354.503 214.486 354.243 214.486 353.949C214.486 353.576 214.339 353.283 214.046 353.069C213.753 352.843 213.366 352.663 212.886 352.529C212.406 352.383 211.873 352.249 211.286 352.129C210.713 351.996 210.133 351.836 209.546 351.649C208.973 351.463 208.446 351.223 207.966 350.929C207.486 350.636 207.093 350.249 206.786 349.769C206.493 349.289 206.346 348.676 206.346 347.929C206.346 347.129 206.559 346.403 206.986 345.749C207.426 345.083 208.079 344.556 208.946 344.169C209.826 343.769 210.926 343.569 212.246 343.569C213.126 343.569 213.993 343.676 214.846 343.889C215.699 344.089 216.453 344.396 217.106 344.809L216.106 347.269C215.453 346.896 214.799 346.623 214.146 346.449C213.493 346.263 212.853 346.169 212.226 346.169C211.599 346.169 211.086 346.243 210.686 346.389C210.286 346.536 209.999 346.729 209.826 346.969C209.653 347.196 209.566 347.463 209.566 347.769C209.566 348.129 209.713 348.423 210.006 348.649C210.299 348.863 210.686 349.036 211.166 349.169C211.646 349.303 212.173 349.436 212.746 349.569C213.333 349.703 213.913 349.856 214.486 350.029C215.073 350.203 215.606 350.436 216.086 350.729C216.566 351.023 216.953 351.409 217.246 351.889C217.553 352.369 217.706 352.976 217.706 353.709C217.706 354.496 217.486 355.216 217.046 355.869C216.606 356.523 215.946 357.049 215.066 357.449C214.199 357.849 213.099 358.049 211.766 358.049ZM222.92 350.109H229.64V352.709H222.92V350.109ZM223.16 357.809H219.92V343.809H230.5V346.409H223.16V357.809ZM238.913 358.049C236.927 358.049 235.373 357.496 234.253 356.389C233.133 355.283 232.573 353.703 232.573 351.649V343.809H235.813V351.529C235.813 352.863 236.087 353.823 236.633 354.409C237.18 354.996 237.947 355.289 238.933 355.289C239.92 355.289 240.687 354.996 241.233 354.409C241.78 353.823 242.053 352.863 242.053 351.529V343.809H245.253V351.649C245.253 353.703 244.693 355.283 243.573 356.389C242.453 357.496 240.9 358.049 238.913 358.049ZM248.455 357.809V343.809H251.695V355.169H258.715V357.809H248.455Z" fill="white"/>
</g>
<defs>
<filter id="filter0_d_366_6154" x="0" y="0" width="302" height="379" filterUnits="userSpaceOnUse" color-interpolation-filters="sRGB">
<feFlood flood-opacity="0" result="BackgroundImageFix"/>
<feColorMatrix in="SourceAlpha" type="matrix" values="0 0 0 0 0 0 0 0 0 0 0 0 0 0 0 0 0 0 127 0" result="hardAlpha"/>
<feOffset dx="4" dy="4"/>
<feGaussianBlur stdDeviation="2"/>
<feComposite in2="hardAlpha" operator="out"/>
<feColorMatrix type="matrix" values="0 0 0 0 0.101961 0 0 0 0 0.101961 0 0 0 0 0.101961 0 0 0 0.08 0"/>
<feBlend mode="normal" in2="BackgroundImageFix" result="effect1_dropShadow_366_6154"/>
<feBlend mode="normal" in="SourceGraphic" in2="effect1_dropShadow_366_6154" result="shape"/>
</filter>
<linearGradient id="paint0_linear_366_6154" x1="139.693" y1="189.283" x2="139.693" y2="169.931" gradientUnits="userSpaceOnUse">
<stop stop-color="#FFBD49"/>
<stop offset="1" stop-color="#F0992B"/>
</linearGradient>
<linearGradient id="paint1_linear_366_6154" x1="139.693" y1="134.481" x2="139.693" y2="147.166" gradientUnits="userSpaceOnUse">
<stop stop-color="#FFBD49"/>
<stop offset="1" stop-color="#F0992B"/>
</linearGradient>
<linearGradient id="paint2_linear_366_6154" x1="139.693" y1="151.509" x2="139.693" y2="206.674" gradientUnits="userSpaceOnUse">
<stop stop-color="#FFBD49"/>
<stop offset="1" stop-color="#F0992B"/>
</linearGradient>
<linearGradient id="paint3_linear_366_6154" x1="139.693" y1="172.811" x2="139.693" y2="184.904" gradientUnits="userSpaceOnUse">
<stop stop-color="#FFBD49"/>
<stop offset="1" stop-color="#FFCB5A"/>
</linearGradient>
</defs>
</svg>
